<svg width="32" height="32" viewBox="0 0 32 32" fill="none" xmlns="http://www.w3.org/2000/svg">
<rect width="32" height="32" rx="16" fill="white"/>
<mask id="mask0_2011_758" style="mask-type:alpha" maskUnits="userSpaceOnUse" x="4" y="4" width="24" height="24">
<rect x="4" y="4" width="24" height="24" fill="#D9D9D9"/>
</mask>
<g mask="url(#mask0_2011_758)">
<path d="M9 26C8.45 26 7.97917 25.8042 7.5875 25.4125C7.19583 25.0208 7 24.55 7 24V10C7 9.45 7.19583 8.97917 7.5875 8.5875C7.97917 8.19583 8.45 8 9 8H10V6H12V8H20V6H22V8H23C23.55 8 24.0208 8.19583 24.4125 8.5875C24.8042 8.97917 25 9.45 25 10V24C25 24.55 24.8042 25.0208 24.4125 25.4125C24.0208 25.8042 23.55 26 23 26H9ZM9 24H23V14H9V24ZM9 12H23V10H9V12ZM16 18C15.7167 18 15.4792 17.9042 15.2875 17.7125C15.0958 17.5208 15 17.2833 15 17C15 16.7167 15.0958 16.4792 15.2875 16.2875C15.4792 16.0958 15.7167 16 16 16C16.2833 16 16.5208 16.0958 16.7125 16.2875C16.9042 16.4792 17 16.7167 17 17C17 17.2833 16.9042 17.5208 16.7125 17.7125C16.5208 17.9042 16.2833 18 16 18ZM12 18C11.7167 18 11.4792 17.9042 11.2875 17.7125C11.0958 17.5208 11 17.2833 11 17C11 16.7167 11.0958 16.4792 11.2875 16.2875C11.4792 16.0958 11.7167 16 12 16C12.2833 16 12.5208 16.0958 12.7125 16.2875C12.9042 16.4792 13 16.7167 13 17C13 17.2833 12.9042 17.5208 12.7125 17.7125C12.5208 17.9042 12.2833 18 12 18ZM20 18C19.7167 18 19.4792 17.9042 19.2875 17.7125C19.0958 17.5208 19 17.2833 19 17C19 16.7167 19.0958 16.4792 19.2875 16.2875C19.4792 16.0958 19.7167 16 20 16C20.2833 16 20.5208 16.0958 20.7125 16.2875C20.9042 16.4792 21 16.7167 21 17C21 17.2833 20.9042 17.5208 20.7125 17.7125C20.5208 17.9042 20.2833 18 20 18ZM16 22C15.7167 22 15.4792 21.9042 15.2875 21.7125C15.0958 21.5208 15 21.2833 15 21C15 20.7167 15.0958 20.4792 15.2875 20.2875C15.4792 20.0958 15.7167 20 16 20C16.2833 20 16.5208 20.0958 16.7125 20.2875C16.9042 20.4792 17 20.7167 17 21C17 21.2833 16.9042 21.5208 16.7125 21.7125C16.5208 21.9042 16.2833 22 16 22ZM12 22C11.7167 22 11.4792 21.9042 11.2875 21.7125C11.0958 21.5208 11 21.2833 11 21C11 20.7167 11.0958 20.4792 11.2875 20.2875C11.4792 20.0958 11.7167 20 12 20C12.2833 20 12.5208 20.0958 12.7125 20.2875C12.9042 20.4792 13 20.7167 13 21C13 21.2833 12.9042 21.5208 12.7125 21.7125C12.5208 21.9042 12.2833 22 12 22ZM20 22C19.7167 22 19.4792 21.9042 19.2875 21.7125C19.0958 21.5208 19 21.2833 19 21C19 20.7167 19.0958 20.4792 19.2875 20.2875C19.4792 20.0958 19.7167 20 20 20C20.2833 20 20.5208 20.0958 20.7125 20.2875C20.9042 20.4792 21 20.7167 21 21C21 21.2833 20.9042 21.5208 20.7125 21.7125C20.5208 21.9042 20.2833 22 20 22Z" fill="#3B3978"/>
</g>
</svg>
