<svg width="110" height="69" viewBox="0 0 110 69" fill="none" xmlns="http://www.w3.org/2000/svg">
<path fill-rule="evenodd" clip-rule="evenodd" d="M0.0849549 31.7429C0.0849549 31.7429 0.033982 31.7344 0 31.7259C0.067964 31.3351 0.135928 30.9528 0.195396 30.5621C0.16991 30.5621 0.144423 30.5621 0.118937 30.5451C0.16991 30.2392 0.220883 29.9334 0.271856 29.636C0.246369 29.636 0.212387 29.6276 0.186901 29.6191C0.203892 29.5341 0.212387 29.4576 0.229378 29.3727C0.203892 29.3727 0.178405 29.3727 0.144423 29.3557C0.178405 29.1603 0.212387 28.9649 0.246369 28.778C0.271856 28.778 0.297342 28.778 0.331324 28.795C0.348315 28.4892 0.373802 28.1748 0.399288 27.869C0.501234 27.4017 0.611676 26.9345 0.722117 26.4672C0.69663 26.4672 0.934504 25.8556 0.909018 25.3883C0.883531 25.3883 0.849549 25.3798 0.824063 25.3713C0.883531 25.1759 0.943 24.989 1.00247 24.8021C1.02795 24.8021 1.05344 24.8021 1.08742 24.8191C1.1299 24.5727 1.17238 24.3179 1.21486 24.0715C1.24034 24.0715 1.26583 24.0715 1.29131 24.0885C1.3253 23.8931 1.35928 23.6977 1.39326 23.5108C1.41875 23.5108 1.44423 23.5108 1.47822 23.5278C1.54618 23.2899 1.62264 23.0435 1.6906 22.7972C1.71609 22.7972 1.75007 22.7972 1.77556 22.8142C1.79255 22.7037 1.80954 22.5933 1.83503 22.4828C1.86051 22.4828 1.8945 22.4828 1.91998 22.4998C2.00494 22.1685 2.08989 21.8457 2.17485 21.5144C2.20033 21.5144 2.22582 21.5144 2.2598 21.5313C2.27679 21.4549 2.28529 21.3699 2.30228 21.285C2.32777 21.285 2.36175 21.2935 2.38723 21.302C2.39573 21.251 2.40422 21.1915 2.41272 21.1406C2.43821 21.1406 2.47219 21.1406 2.49768 21.1575C2.51467 21.0471 2.53166 20.9367 2.54865 20.8262C2.57413 20.8262 2.60812 20.8347 2.6336 20.8432C2.65059 20.7583 2.65909 20.6733 2.67608 20.5968C2.70157 20.5968 2.73555 20.5968 2.76104 20.6138C2.77803 20.5289 2.78652 20.4439 2.80351 20.3675C2.829 20.3675 2.86298 20.376 2.88847 20.3845C2.89696 20.325 2.90546 20.274 2.91395 20.2145C2.93944 20.2145 2.97342 20.223 2.99891 20.2315C2.99891 20.0361 3.0074 19.8322 3.0159 19.6369C3.07537 19.6199 3.13484 19.6029 3.19431 19.5774C3.22829 19.3905 3.7635 18.422 3.84846 18.2351C3.87395 18.2351 3.90793 18.2521 3.93341 18.2521C3.93341 18.2011 3.9504 18.1416 3.9589 18.0822C4.01837 18.0652 4.07784 18.0482 4.13731 18.0227C4.1458 17.9717 4.16279 17.9123 4.17129 17.8613C4.23076 17.8443 4.29022 17.8273 4.34969 17.8103C4.34969 17.7509 4.36668 17.6999 4.37518 17.6489C4.46863 17.6064 4.56208 17.564 4.65553 17.5215C4.65553 17.462 4.67252 17.411 4.68102 17.3516C4.74049 17.3346 4.79995 17.3176 4.85942 17.3006C4.9019 17.1986 4.95287 17.0882 4.99535 16.9863C5.12278 16.9183 5.24172 16.8503 5.36915 16.7909C5.36915 16.7399 5.38614 16.6804 5.39464 16.6294C5.45411 16.6125 5.51358 16.587 5.57304 16.5785C5.61552 16.468 5.66649 16.3661 5.70897 16.2556C5.76844 16.2387 5.82791 16.2217 5.88738 16.2047C5.93835 16.1027 5.98083 15.9923 6.0318 15.8818C6.15923 15.8224 6.27817 15.7544 6.4056 15.6949C6.4141 15.644 6.42259 15.5845 6.43109 15.5335C6.58401 15.4401 6.74542 15.3551 6.89834 15.2702C6.90684 15.2107 6.91533 15.1597 6.92383 15.1003C7.50152 14.718 8.07921 14.3272 8.65691 13.9364C8.70788 13.8259 8.75036 13.724 8.80133 13.622C8.98823 13.5371 9.17513 13.4606 9.35354 13.3757C9.36203 13.3162 9.37053 13.2652 9.37902 13.2058C9.54044 13.1123 9.69336 13.0359 9.85477 12.9424C9.86327 12.8829 9.87176 12.832 9.88026 12.781L10.0757 12.6451C10.1266 12.6451 10.1861 12.662 10.2456 12.6705L10.441 12.5346C10.4495 12.4751 10.458 12.4242 10.4664 12.3732C10.6533 12.2628 10.8487 12.1523 11.0356 12.0419C11.0781 11.9909 11.1121 11.9399 11.1461 11.889C11.2056 11.889 11.2565 11.906 11.316 11.9144C11.4859 11.7785 11.6473 11.6341 11.8172 11.4897C11.8682 11.4982 11.9277 11.5067 11.9871 11.5152C12.0211 11.4642 12.0636 11.4132 12.0976 11.3622C12.1231 11.3622 12.1486 11.3707 12.1825 11.3792C12.2505 11.3113 12.3185 11.2348 12.3864 11.1583C12.6498 11.1159 12.9132 11.0734 13.1765 11.0394C13.2105 10.9884 13.253 10.9375 13.287 10.8865C13.3719 10.8695 13.4654 10.861 13.5503 10.844C13.6183 10.7761 13.6862 10.6996 13.7542 10.6231C13.8646 10.6231 13.9836 10.6061 14.1025 10.5976C14.1025 10.5722 14.111 10.5382 14.1195 10.5127C14.2045 10.4957 14.2979 10.4872 14.3829 10.4787C14.4253 10.4192 14.4593 10.3768 14.4933 10.3258C14.5783 10.3428 14.6632 10.3598 14.7397 10.3683C14.7397 10.3343 14.7482 10.3088 14.7567 10.2833C14.8076 10.2918 14.8671 10.3088 14.9266 10.3088C14.9606 10.2578 15.003 10.2069 15.037 10.1559C15.0965 10.1644 15.156 10.1729 15.2069 10.1814C15.2069 10.1559 15.2154 10.1304 15.2239 10.0964C15.2834 10.1049 15.3344 10.1134 15.3938 10.1219C15.3938 10.0964 15.3938 10.0709 15.4108 10.0369C15.4958 10.0539 15.5807 10.0709 15.6572 10.0794C15.6572 10.0454 15.6657 10.02 15.6742 9.99446C15.7337 9.99446 15.7846 10.0115 15.8441 10.02C15.8441 9.99446 15.8526 9.96898 15.8611 9.94349C16.0565 9.94349 16.2604 9.94349 16.4558 9.96048C16.4982 9.90951 16.5322 9.85854 16.5662 9.80756C16.6257 9.80756 16.6767 9.82456 16.7361 9.83305C16.7361 9.80756 16.7446 9.78208 16.7531 9.7481C16.8041 9.7481 16.8636 9.76509 16.9145 9.77358C16.9145 9.7481 16.923 9.72261 16.9315 9.68863C17.0759 9.71411 17.2119 9.7396 17.3478 9.76509C17.3478 9.7311 17.3563 9.70562 17.3648 9.68013C17.4497 9.68863 17.5262 9.70562 17.6112 9.72261C17.6112 9.69712 17.6197 9.67164 17.6281 9.64615C17.8235 9.64615 18.0274 9.65464 18.2228 9.66314C18.2228 9.63765 18.2313 9.60367 18.2398 9.57819C18.4097 9.61217 18.5711 9.63765 18.7411 9.66314C18.7411 9.63765 18.7496 9.61217 18.758 9.58668C18.843 9.60367 18.9195 9.61217 19.0044 9.62916C19.0044 9.60367 19.0129 9.57819 19.0214 9.5442C19.1064 9.5527 19.1913 9.56969 19.2763 9.58668C19.2763 9.56119 19.2848 9.53571 19.2933 9.50173C19.6501 9.59518 19.9984 9.68013 20.3552 9.76509C20.661 9.7396 21.8929 9.72261 22.2922 9.918C22.2922 9.95199 22.2837 9.97747 22.2752 10.003C22.3601 10.02 22.4451 10.0284 22.5216 10.0454C22.5216 10.0709 22.5131 10.1049 22.5046 10.1304C22.8869 10.1984 23.2777 10.2578 23.6684 10.3258C23.6684 10.3513 23.6684 10.3853 23.6515 10.4107C23.7619 10.4277 23.8723 10.4532 23.9828 10.4702C23.9828 10.4957 23.9743 10.5212 23.9658 10.5467C24.1952 10.7081 24.518 10.7845 24.6539 11.0054C24.9343 11.0479 25.2061 11.0989 25.4865 11.1414C25.4865 11.1414 25.6904 10.963 25.7753 10.9375C25.8943 10.3258 26.1151 9.90101 26.3615 9.50173C26.3785 9.41677 26.387 9.34031 26.404 9.24686C26.4295 9.24686 26.455 9.25536 26.4889 9.26385C26.4974 9.21288 26.5059 9.15341 26.5144 9.10244C26.5484 9.10244 26.5739 9.10244 26.5994 9.11943C26.6164 9.03447 26.6249 8.95801 26.6419 8.87306C26.6674 8.87306 26.7013 8.87306 26.7268 8.89005C26.7353 8.83908 26.7438 8.77961 26.7523 8.72014C26.7778 8.72014 26.8118 8.72014 26.8373 8.73713C26.8458 8.68616 26.8543 8.62669 26.8628 8.57572C26.9222 8.55873 26.9817 8.54174 27.0412 8.52474C27.0497 8.47377 27.0581 8.4143 27.0666 8.36333C27.0921 8.36333 27.1176 8.36333 27.1516 8.38032C27.1941 8.26988 27.245 8.16793 27.2875 8.06599C27.313 8.06599 27.3385 8.07448 27.3725 8.08298C27.4235 7.94705 27.4744 7.81112 27.5254 7.6752C27.5849 7.6582 27.6443 7.64121 27.7038 7.62422C27.7123 7.56475 27.7208 7.50529 27.7293 7.45431C27.7548 7.45431 27.7803 7.46281 27.8142 7.4713C27.8312 7.36086 27.8482 7.25042 27.8652 7.13998C27.9927 7.08051 28.1116 7.01255 28.239 6.95308C28.4769 6.78317 28.5618 6.56229 28.7657 6.35839C28.8592 6.31592 28.9526 6.28193 29.0461 6.23946C29.0546 6.17999 29.0631 6.12901 29.0716 6.07804C29.165 6.03556 29.2585 5.99309 29.3519 5.95061C29.3604 5.89964 29.3689 5.84017 29.3774 5.7892C29.5049 5.72123 29.6238 5.65327 29.7512 5.5938C29.7597 5.53433 29.7682 5.48336 29.7767 5.42389C29.9976 5.28796 30.2185 5.16053 30.4394 5.0246C30.4479 4.97363 30.4563 4.91416 30.4648 4.86319C30.5838 4.80372 30.7197 4.73575 30.8386 4.66779C30.8386 4.60832 30.8556 4.55735 30.8641 4.49788C30.9151 4.50638 30.9746 4.51487 31.0255 4.53186C31.2549 4.33647 31.4928 4.15806 31.7222 3.97116C31.8156 3.92868 31.9091 3.8862 32.0025 3.84373C32.045 3.73329 32.096 3.63134 32.1385 3.5209C32.2914 3.43594 32.4528 3.35099 32.6057 3.25754C32.6142 3.20657 32.6227 3.1471 32.6312 3.08763L32.8266 2.9517C32.8861 2.9602 32.937 2.96869 32.9965 2.97719C33.1919 2.80728 33.3958 2.64586 33.5912 2.47595C33.6846 2.45896 33.7696 2.45047 33.8545 2.43348C33.863 2.3825 33.8715 2.32303 33.88 2.27206C33.9055 2.27206 33.931 2.28056 33.965 2.28905C34.0329 2.21259 34.1009 2.14463 34.1689 2.06817C34.2283 2.06817 34.2793 2.08516 34.3388 2.09366C34.3728 2.04268 34.4152 1.99171 34.4492 1.94074C34.5937 1.94074 34.7296 1.93224 34.874 1.93224C34.908 1.88127 34.9505 1.8303 34.9844 1.77932C35.0354 1.77932 35.0949 1.79631 35.1544 1.80481C35.2223 1.72835 35.2903 1.66039 35.3582 1.58393C35.3922 1.58393 35.4177 1.59242 35.4432 1.60092C35.4857 1.52446 35.5282 1.448 35.5706 1.37154C35.6896 1.35455 35.8 1.35455 35.9189 1.34605C35.9189 1.32057 35.9274 1.28658 35.9359 1.2611C36.1143 1.23561 36.2927 1.21012 36.4627 1.18464C36.4627 1.15066 36.4712 1.12517 36.4796 1.09968C36.6241 1.09968 36.76 1.09968 36.9044 1.09119C36.9044 1.05721 36.9129 1.03172 36.9214 1.00623C36.9724 1.00623 37.0319 1.02322 37.0913 1.03172C37.0913 1.00623 37.0913 0.980746 37.1083 0.955259C37.2527 0.955259 37.3972 0.946764 37.5331 0.938268C37.5331 0.912782 37.5416 0.8788 37.5501 0.853313C37.6096 0.861809 37.6605 0.870304 37.72 0.887295C37.788 0.810836 37.8559 0.734376 37.9324 0.666412C37.9918 0.674908 38.0428 0.683403 38.0938 0.691899C38.0938 0.666413 38.1023 0.63243 38.1108 0.606944C38.2467 0.63243 38.3911 0.649422 38.5271 0.674908C38.5271 0.649422 38.5356 0.623935 38.5441 0.598449C38.595 0.606944 38.6545 0.61544 38.7055 0.623935C38.7055 0.598449 38.714 0.564467 38.7225 0.53898C38.8924 0.53898 39.0708 0.53898 39.2322 0.53898C39.2322 0.513494 39.2322 0.479512 39.2492 0.454025C39.4191 0.479512 39.5805 0.513494 39.7504 0.53898C39.7504 0.513494 39.7589 0.479512 39.7674 0.454025C39.9373 0.428539 40.1157 0.403052 40.2941 0.36907C40.2941 0.343584 40.3026 0.318097 40.3111 0.284115C40.3621 0.292611 40.4216 0.301106 40.4725 0.309602C40.4725 0.284115 40.481 0.250133 40.4895 0.224647C40.7189 0.233142 40.9483 0.241638 41.1692 0.250133C41.1692 0.224647 41.1777 0.190665 41.1862 0.165178C41.441 0.182169 41.6959 0.190665 41.9422 0.207656C41.9422 0.182169 41.9507 0.156683 41.9592 0.131196C42.2396 0.173674 42.5114 0.224647 42.7918 0.267124C42.7918 0.241638 42.8003 0.207656 42.8088 0.182169C42.9192 0.19916 43.0297 0.216151 43.1401 0.233142C43.1401 0.207656 43.1486 0.182169 43.1571 0.148187C43.2081 0.156683 43.2675 0.165178 43.327 0.173674C43.327 0.148187 43.3355 0.114205 43.344 0.0887189C43.5904 0.131196 43.8367 0.173674 44.0916 0.216151C44.0916 0.182169 44.0916 0.165178 44.1086 0.131196C44.219 0.148187 44.3295 0.165178 44.4399 0.190665C44.4399 0.165178 44.4484 0.131196 44.4569 0.10571C44.6268 0.131196 44.7882 0.156683 44.9581 0.190665C44.9581 0.165178 44.9666 0.131196 44.9751 0.10571C45.0516 0.122701 45.1366 0.131196 45.2215 0.148187C45.2215 0.122701 45.23 0.0972144 45.2385 0.0632324C45.7992 0.131196 46.3514 0.190665 46.9121 0.258629C46.9121 0.258629 46.9121 0.335088 47.065 0.36907C47.4898 0.386061 47.9146 0.394557 48.3394 0.411548C48.3394 0.386061 48.3479 0.352079 48.3563 0.326593C48.5687 0.394557 48.7896 0.462521 49.0105 0.521989C49.0105 0.496503 49.019 0.462521 49.0275 0.437034C49.1974 0.462521 49.3588 0.496503 49.5287 0.521989C49.5287 0.547476 49.5202 0.572962 49.5117 0.606944C49.6222 0.606944 49.7411 0.589953 49.8601 0.581458C49.8855 0.581458 49.911 0.589953 49.945 0.598449C49.945 0.623935 49.9365 0.657917 49.928 0.683403C50.1744 0.725881 50.4293 0.768358 50.6756 0.810836C50.6756 0.836322 50.6671 0.870304 50.6586 0.895791C50.9645 0.921277 51.2788 0.946764 51.5846 0.97225C51.5846 0.997737 51.5846 1.02322 51.5676 1.04871C51.899 1.10818 52.2303 1.15915 52.5616 1.21862C52.5616 1.2526 52.5531 1.27809 52.5446 1.30357C52.6296 1.32057 54.0653 1.76233 54.5071 1.80481C54.5071 1.83879 54.4986 1.85578 54.4901 1.88127C54.6005 1.90675 54.711 1.92375 54.8214 1.94074C54.8214 1.96622 54.8129 1.99171 54.8044 2.02569C54.8894 2.04268 54.9658 2.05118 55.0508 2.06817C55.0508 2.09366 55.0423 2.12764 55.0338 2.15312C55.0848 2.15312 55.1443 2.17011 55.2037 2.17861C55.2037 2.2041 55.1952 2.22958 55.1867 2.26357C55.2717 2.28056 55.3481 2.28905 55.4331 2.30604C55.4331 2.34002 55.4246 2.36551 55.4161 2.391C55.4756 2.39949 55.5265 2.40799 55.586 2.41648C55.586 2.44197 55.5775 2.46746 55.569 2.50144C55.705 2.52693 55.8409 2.54392 55.9853 2.5694C55.9853 2.59489 55.9768 2.62887 55.9683 2.65436C56.0533 2.67135 56.1297 2.67984 56.2147 2.69684C56.2147 2.72232 56.2062 2.74781 56.1977 2.78179C56.2487 2.79029 56.3081 2.80728 56.3676 2.81577C56.3676 2.84126 56.3591 2.86675 56.3506 2.90073C56.5375 2.9602 56.7244 3.01966 56.9198 3.07913C56.9198 3.10462 56.9113 3.13011 56.9028 3.15559C56.9538 3.16409 57.0133 3.17258 57.0642 3.18108C57.0642 3.21506 57.0557 3.24055 57.0472 3.26603C57.3191 3.34249 57.591 3.41895 57.8628 3.48692C57.8628 3.5124 57.8543 3.54639 57.8458 3.57187C57.9478 3.61435 58.0582 3.66532 58.1601 3.7078C58.1517 3.75877 58.1432 3.81824 58.1262 3.87771C58.3216 3.9032 58.517 3.93718 58.7124 3.97116C58.7293 4.03063 58.7463 4.09859 58.7633 4.15806C58.8143 4.15806 58.8738 4.17505 58.9247 4.18355C58.9247 4.20903 58.9162 4.24302 58.9077 4.2685C59.1286 4.33647 59.341 4.40443 59.5619 4.4639C59.5789 4.52337 59.6044 4.58284 59.6214 4.6423C59.6723 4.6508 59.7318 4.65929 59.7828 4.67629C59.7828 4.70177 59.7828 4.73575 59.7658 4.76124C59.9782 4.82921 60.1991 4.88867 60.4115 4.95664C60.4115 4.98212 60.403 5.00761 60.3945 5.04159C60.5049 5.05858 60.6153 5.07557 60.7258 5.10106C60.7853 5.14354 60.7088 5.2115 60.9467 5.30495C60.9722 5.48336 60.9212 5.37292 60.9976 5.48336C61.1676 5.84866 61.4394 5.72973 61.7707 5.95061C61.7707 5.98459 61.7622 6.00158 61.7537 6.03556C61.8642 6.07804 61.9661 6.12902 62.0766 6.17149C62.119 6.26494 62.1615 6.35839 62.1955 6.45184C62.255 6.45184 62.306 6.46884 62.3654 6.47733C62.4334 6.59627 62.4929 6.7237 62.5608 6.85113C62.6118 6.85963 62.6713 6.86812 62.7222 6.87662C62.7392 6.93609 62.7562 6.99556 62.7732 7.05502C63.0875 7.32688 63.2999 7.03803 63.3679 7.58174C63.4698 7.62422 63.5803 7.67519 63.6822 7.71767C63.6992 7.78564 63.7247 7.83661 63.7417 7.90457C63.8266 7.92156 63.9116 7.93006 63.9966 7.94705C64.0305 8.0405 64.0815 8.13395 64.124 8.2274C64.2089 8.24439 64.2854 8.25289 64.3704 8.26988C64.3704 8.29537 64.3704 8.32935 64.3619 8.35483C64.4128 8.38882 64.4638 8.43129 64.5148 8.46528C64.5063 8.52474 64.4978 8.57572 64.4808 8.63519C64.5573 8.67766 64.6422 8.72014 64.7187 8.76262C64.8291 8.95801 64.9396 9.14492 65.05 9.33182C65.1095 9.33182 65.1604 9.34881 65.2199 9.3573C65.4238 9.67164 65.6277 9.99446 65.8231 10.3088C65.8741 10.3088 65.9335 10.3258 65.9845 10.3343C66.027 10.4277 66.0695 10.5212 66.1119 10.6146C66.1629 10.6486 66.2139 10.6911 66.2648 10.7251C66.2818 10.8185 66.2903 10.9035 66.3073 10.9884C66.4348 11.0649 66.5622 11.1499 66.6981 11.2263C66.6896 11.2773 66.6811 11.3368 66.6726 11.3877C66.7661 11.4897 66.868 11.5916 66.9615 11.6936C66.97 11.804 66.9785 11.9229 66.987 12.0419C67.0125 12.0419 67.0464 12.0504 67.0719 12.0589C67.0549 12.1438 67.0464 12.2203 67.0294 12.3052C67.1484 12.4327 67.2673 12.5686 67.3863 12.7045C67.3948 12.815 67.4032 12.9339 67.4117 13.0528C67.4882 13.1208 67.5562 13.1973 67.6326 13.2567C67.6241 13.3162 67.6156 13.3672 67.5986 13.4266C67.6241 13.4266 67.6496 13.4351 67.6836 13.4436C67.6751 13.4946 67.6666 13.5541 67.6581 13.6135C67.6836 13.6135 67.7091 13.622 67.7431 13.6305C67.7431 13.6815 67.7261 13.741 67.7176 13.8004C67.7431 13.8004 67.7686 13.8089 67.794 13.8174C67.777 13.9024 67.7686 13.9873 67.7516 14.0638C67.7601 14.0893 67.862 14.1658 67.8875 14.2592C68.1763 14.2932 68.3123 14.2932 68.4992 14.1912C68.5331 14.1403 68.5756 14.0893 68.6096 14.0383C68.788 14.0128 68.9579 13.9873 69.1363 13.9534C69.1703 13.9109 69.2128 13.8599 69.2468 13.8089C69.4252 13.775 69.5951 13.758 69.7735 13.724C69.8075 13.673 69.85 13.622 69.8839 13.5711C70.0029 13.5626 70.1133 13.5541 70.2238 13.5371C70.2917 13.4606 70.3682 13.3927 70.4361 13.3162C70.5211 13.3247 70.606 13.3417 70.691 13.3587C70.691 13.3332 70.6995 13.3077 70.708 13.2737C70.759 13.2822 70.8184 13.2907 70.8779 13.2992C70.9119 13.2482 70.9544 13.1973 70.9883 13.1548C71.0393 13.1548 71.0988 13.1718 71.1583 13.1803C71.1583 13.1463 71.1667 13.1208 71.1752 13.0953C71.2602 13.1038 71.3452 13.1208 71.4301 13.1378C71.4641 13.0868 71.4981 13.0443 71.5406 12.9849C71.6595 12.9764 71.7699 12.9679 71.8804 12.9594C71.9144 12.9084 71.9568 12.8574 71.9908 12.8065C72.0503 12.8065 72.1013 12.8235 72.1607 12.832C72.1607 12.8065 72.1692 12.781 72.1777 12.7555C72.2966 12.747 72.4071 12.7385 72.526 12.7215C72.526 12.696 72.526 12.6705 72.543 12.6366C72.6535 12.6536 72.7639 12.679 72.8743 12.696C72.8743 12.6705 72.8828 12.6366 72.8913 12.6111C73.0018 12.6281 73.1122 12.6536 73.2227 12.6705C73.2227 12.6366 73.2227 12.6111 73.2396 12.5856C73.435 12.6196 73.6219 12.6536 73.8173 12.6875C73.8173 12.6621 73.8258 12.6281 73.8343 12.6026C73.9193 12.6196 74.0042 12.6281 74.0892 12.6451C74.1232 12.5941 74.1657 12.5431 74.1996 12.4921C74.3695 12.4921 74.5395 12.4921 74.7094 12.4921C74.7094 12.4667 74.7179 12.4327 74.7264 12.4072C74.9048 12.3817 75.0747 12.3477 75.2531 12.3222C75.2531 12.2967 75.2616 12.2628 75.2701 12.2373C75.6609 12.2713 76.0517 12.3137 76.4425 12.3477C76.4425 12.3222 76.4509 12.2967 76.4594 12.2713C76.9012 12.3732 77.3345 12.4751 77.7762 12.5771C78.0311 12.5941 78.286 12.6111 78.5323 12.6196C78.5323 12.6451 78.5238 12.679 78.5154 12.696C78.6768 12.747 78.8382 12.8065 78.9996 12.8659C78.9996 12.8405 79.0081 12.8065 79.0166 12.781C79.3394 12.8659 79.6707 12.9509 79.9936 13.0274C79.9936 13.0019 80.0021 12.9764 80.0106 12.9424C80.5882 13.0698 81.1659 13.1973 81.7351 13.3247C81.7351 13.3502 81.7266 13.3842 81.7182 13.4097C82.024 13.4606 82.3298 13.5116 82.6357 13.5626C82.6781 13.656 82.7206 13.7495 82.7631 13.8344C83.0095 13.8769 83.2643 13.9194 83.5107 13.9619C83.5107 13.9873 83.5022 14.0128 83.4937 14.0468C83.5957 14.0893 83.7061 14.1403 83.808 14.1827C83.808 14.2082 83.7995 14.2422 83.7911 14.2677C84.0119 14.3017 84.2328 14.3357 84.4537 14.3781C84.4707 14.4376 84.4877 14.4971 84.5047 14.5565C84.5556 14.565 84.6151 14.5735 84.6746 14.582C84.6916 14.65 84.7086 14.7095 84.734 14.7604C85.0144 14.8114 85.2863 14.8539 85.5666 14.8964C85.6091 14.9898 85.6516 15.0833 85.694 15.1767C85.7705 15.1937 85.8555 15.2022 85.9404 15.2192C85.9404 15.2447 85.9319 15.2787 85.9234 15.3041C86.0084 15.3211 86.0933 15.3381 86.1698 15.3466C86.1698 15.3721 86.1613 15.3976 86.1528 15.4316C86.2378 15.4486 86.3142 15.4571 86.3992 15.4741C86.3992 15.4995 86.3907 15.5335 86.3822 15.559C86.4671 15.576 86.5521 15.5845 86.637 15.6015C86.637 15.627 86.6285 15.6525 86.62 15.678C86.671 15.678 86.7305 15.6949 86.79 15.7034C86.79 15.7289 86.7815 15.7629 86.773 15.7884C86.8579 15.8054 86.9344 15.8139 87.0193 15.8309C87.0363 15.8818 87.0533 15.9413 87.0703 16.0093C87.2657 16.1367 87.4866 16.0602 87.6395 16.1877C87.6565 16.2472 87.6735 16.3066 87.699 16.3661C87.8349 16.4171 87.9623 16.468 88.0983 16.519C88.1662 16.6464 88.2257 16.7739 88.2937 16.8928C88.5655 16.9948 88.8289 17.1052 89.1007 17.1986C89.1092 17.3176 89.1177 17.428 89.1262 17.547C89.466 17.6489 89.7124 17.8783 89.8823 18.0992C89.8993 18.1586 89.9163 18.2181 89.9333 18.2861C89.9843 18.2861 90.0437 18.3031 90.1032 18.3116L90.2391 18.507C90.2986 18.507 90.3496 18.5239 90.409 18.5324C90.409 18.5579 90.4006 18.5919 90.3921 18.6174C90.443 18.6259 90.5025 18.6344 90.5535 18.6514C90.5704 18.7108 90.5874 18.7703 90.6129 18.8298C90.7149 18.8808 90.8253 18.9232 90.9273 18.9657C90.9443 19.0252 90.9612 19.0931 90.9782 19.1441C91.0292 19.1441 91.0887 19.1611 91.1481 19.1781C91.1906 19.2715 91.2331 19.3565 91.2671 19.4499C91.352 19.4669 91.437 19.4839 91.522 19.4924C91.5814 19.6453 91.6409 19.7983 91.7004 19.9512C91.8533 20.0361 92.0147 20.1211 92.1676 20.206C92.3375 20.5204 93.2465 21.4974 93.2975 21.5908C93.323 21.5908 93.3485 21.5908 93.374 21.6078C93.4419 21.7352 93.5014 21.8542 93.5694 21.9816C93.7648 22.1855 93.8922 22.1345 93.9092 22.4743C94.2405 22.6188 94.3679 22.8736 94.4784 23.1625C94.4699 23.222 94.4614 23.2729 94.4529 23.3239C94.6653 23.5873 94.8777 23.8506 95.0901 24.114C95.0731 24.1989 95.0646 24.2754 95.0476 24.3603C95.0985 24.3943 95.1495 24.4283 95.2005 24.4708C95.192 24.5303 95.1835 24.5812 95.175 24.6322C95.3024 24.7087 95.4299 24.7936 95.5573 24.8616C95.5488 24.921 95.5403 24.972 95.5318 25.0315C95.5828 25.0655 95.6338 25.0995 95.6847 25.1419C95.6847 25.2609 95.7017 25.3713 95.7102 25.4902C95.7612 25.5242 95.8122 25.5582 95.8631 25.6007C95.8547 25.6517 95.8462 25.7111 95.8377 25.7621C95.8716 25.7621 95.8971 25.7706 95.9226 25.7791C95.9906 25.898 96.05 26.0255 96.118 26.1529C96.169 26.1529 96.2285 26.1699 96.2794 26.1784C96.2964 26.3823 96.3219 26.3908 96.3899 26.5437C96.4154 26.5437 96.4493 26.5437 96.4748 26.5607C96.4493 26.7051 96.4239 26.841 96.4069 26.977C96.4324 26.977 96.4663 26.977 96.4918 26.9939C96.5768 27.1893 96.6702 27.2573 96.9506 27.3253C96.9676 27.5716 97.01 27.7416 97.1035 27.9454C97.1545 27.9794 97.2054 28.0219 97.2564 28.0559C97.2479 28.1154 97.2394 28.1663 97.2309 28.2173C97.2564 28.2173 97.2819 28.2258 97.3159 28.2343C97.3159 28.4042 97.3159 28.5741 97.3159 28.744C97.3499 28.744 97.3754 28.744 97.4008 28.761C97.3923 28.812 97.3838 28.8715 97.3754 28.9309C97.4008 28.9309 97.4348 28.9394 97.4603 28.9479C97.4518 29.0074 97.4433 29.0584 97.4263 29.1093C97.4773 29.1433 97.5283 29.1773 97.5792 29.2198C97.5707 29.2792 97.5622 29.3302 97.5538 29.3812C97.5792 29.3812 97.6132 29.3897 97.6387 29.3982C97.6387 29.5681 97.6387 29.7465 97.6387 29.9079C97.7152 29.9759 97.7831 30.0438 97.8596 30.1203C97.8426 30.2307 97.8256 30.3412 97.8001 30.4516C97.8256 30.4516 97.8596 30.4601 97.8851 30.4686C97.8766 30.5281 97.8681 30.579 97.8596 30.6385C97.8851 30.6385 97.9106 30.647 97.9445 30.6555C97.9361 30.715 97.9276 30.7659 97.9191 30.8169C97.97 30.8509 98.021 30.8934 98.072 30.9359C98.072 30.9868 98.055 31.0378 98.0465 31.0973C98.0975 31.1313 98.1484 31.1737 98.1994 31.2077C98.1909 31.2587 98.1824 31.3182 98.1739 31.3776C98.2249 31.4116 98.2759 31.4456 98.3268 31.4881C98.3183 31.5475 98.3099 31.5985 98.3014 31.658C98.3268 31.658 98.3608 31.658 98.3863 31.675C98.3693 31.7599 98.3608 31.8449 98.3438 31.9213C98.3693 31.9213 98.3948 31.9213 98.4288 31.9383C98.4288 32.0573 98.4458 32.1677 98.4543 32.2866C98.4798 32.2866 98.5052 32.2951 98.5307 32.3036C98.5307 32.499 98.5222 32.6944 98.5137 32.8983C98.5392 32.8983 98.5647 32.8983 98.5987 32.9068C98.5647 33.1022 98.5307 33.2976 98.4968 33.4845C98.5222 33.4845 98.5477 33.4845 98.5817 33.5015C98.5647 33.5864 98.5562 33.6714 98.5392 33.7564C98.5647 33.7564 98.5902 33.7564 98.6242 33.7734C98.6242 33.9433 98.6242 34.1132 98.6242 34.2831C98.6752 34.3171 98.7261 34.351 98.7771 34.3935C98.7091 34.6399 98.6412 34.8778 98.5732 35.1326C98.6412 35.2006 98.7176 35.2686 98.7941 35.3365C98.7686 35.4809 98.7431 35.6169 98.7261 35.7528C98.7516 35.7528 98.7856 35.7613 98.8111 35.7698C98.7006 36.237 98.5987 36.7043 98.4883 37.1716C98.4883 37.2735 98.5987 37.4944 98.4883 37.6813C98.4288 37.6983 98.3693 37.7238 98.3099 37.7407C98.1569 38.0041 98.3438 38.3269 98.2674 38.4968C98.2419 38.4968 98.2164 38.4884 98.1824 38.4884C98.1739 38.5393 98.1654 38.5988 98.1569 38.6498C98.0975 38.6753 98.038 38.6837 97.9785 38.7092C97.9615 38.8197 97.9445 38.9301 97.9276 39.0406C97.8851 39.066 97.8426 39.083 97.8001 39.1085C97.7831 39.2529 97.7661 39.3974 97.7237 39.5248C97.5707 39.9751 96.9676 41.0625 96.4578 41.946C96.4663 41.946 96.4748 41.946 96.4918 41.946C96.4918 41.9715 96.4833 41.997 96.4748 42.0225C96.5853 42.0395 96.6362 42.3368 96.7467 42.3538C96.7467 42.3793 96.7382 42.4133 96.7297 42.4388C96.7807 42.4473 96.8401 42.4557 96.8911 42.4642C96.9336 42.5577 97.4093 43.2203 97.4518 43.3138C97.5537 43.3563 97.6642 43.4072 97.7661 43.4497C97.7831 43.5092 97.8001 43.5772 97.8171 43.6281C97.9276 43.6451 98.4203 44.0869 98.5307 44.1039C99.856 45.0214 100.689 45.6331 101.852 46.0408C101.852 46.0663 101.844 46.0918 101.835 46.1258C101.886 46.1258 101.946 46.1428 102.005 46.1513C102.005 46.1853 101.997 46.2108 101.988 46.2362C102.048 46.2532 102.099 46.2617 102.158 46.2702C102.158 46.2957 102.15 46.3212 102.141 46.3552C102.303 46.4062 104.486 47.3831 104.681 47.3831C104.724 47.5021 105.37 47.5021 105.404 47.621C105.489 47.638 105.565 47.6465 105.65 47.6635C105.65 47.689 105.641 47.7145 105.633 47.7484C106.355 47.8759 109.269 48.8019 109.32 48.8104C109.32 48.8359 109.218 49.0992 109.218 49.1247C109.354 49.1757 104.172 50.3905 104.112 50.382C104.112 50.4075 103.755 50.467 103.586 50.467C103.586 50.4925 103.577 50.518 103.569 50.552C103.518 50.5435 103.458 50.535 103.399 50.5265C103.399 50.552 103.39 50.5859 103.382 50.6114C103.297 50.5944 103.22 50.5859 103.135 50.5689C103.135 50.5944 103.127 50.6284 103.118 50.6539C103.033 50.6369 102.948 50.6199 102.872 50.6114C102.872 50.6454 102.863 50.6709 102.855 50.6964C102.744 50.6794 102.634 50.6624 102.524 50.6454C102.524 50.6709 102.515 50.6964 102.507 50.7219C102.396 50.7049 102.286 50.6879 102.175 50.6624C102.141 50.7134 102.099 50.7643 102.065 50.8153C101.835 50.8068 101.615 50.7983 101.385 50.7813C101.385 50.8068 101.377 50.8408 101.368 50.8663C101.156 50.8068 100.935 50.7389 100.723 50.6709C100.723 50.6964 100.714 50.7304 100.706 50.7558C100.595 50.7389 100.485 50.7134 100.374 50.6964C100.374 50.7219 100.366 50.7473 100.357 50.7813C100.23 50.7558 100.102 50.7389 99.9835 50.7134C99.2444 50.7558 99.0065 50.8238 98.072 50.7813C96.5683 50.7134 94.8437 50.433 93.7223 50.1612C93.4504 50.2716 93.7308 51.2231 93.4504 51.1806C93.4759 51.1806 93.5014 51.1806 93.5269 51.1976C93.4759 51.5034 93.4249 51.8008 93.374 52.1066C93.374 52.1321 93.3655 52.1661 93.357 52.1916C93.391 52.1916 93.4164 52.2001 93.4419 52.2086C93.4249 52.2935 93.408 52.3785 93.3995 52.4634C93.4249 52.4634 93.4589 52.4634 93.4844 52.4804C93.4334 52.6079 93.3825 52.7523 93.3315 52.8797C93.306 52.8797 93.2805 52.8797 93.2465 52.8627C93.2465 53.0581 93.238 53.262 93.2295 53.4574C93.2041 53.4574 93.1786 53.4574 93.1446 53.4404C93.0936 53.7378 92.8048 54.0436 92.7453 54.3494C92.7113 54.7402 92.6688 55.131 92.6349 55.5218C92.6094 55.5218 92.5839 55.5218 92.5499 55.5048C92.5414 55.5643 92.5329 55.6153 92.5244 55.6662C92.465 55.6832 92.4055 55.7002 92.346 55.7257C92.3205 55.8616 92.295 55.9976 92.2781 56.1335C92.2526 56.1335 92.2186 56.125 92.1931 56.1165C92.1846 56.176 92.1761 56.2269 92.1676 56.2864C92.1081 56.3034 92.2865 56.3204 92.2271 56.3374C92.2101 56.4223 92.2016 56.5073 92.1846 56.5838C92.1591 56.5838 92.1336 56.5753 92.0996 56.5753C92.0912 56.6262 92.0826 56.6857 92.0742 56.7367C92.0487 56.7367 92.0147 56.7367 91.9892 56.7197C91.9382 56.8556 91.8873 56.9915 91.8363 57.119C91.8108 57.119 91.7853 57.1105 91.7513 57.102C91.7004 57.2634 91.6409 57.4248 91.5814 57.5862C91.522 57.6032 91.4625 57.6202 91.403 57.6372C91.3945 57.6882 91.386 57.7476 91.3775 57.8071C91.352 57.8071 91.3266 57.7986 91.2926 57.7901C91.2756 57.9006 91.2586 58.011 91.2331 58.1214C91.2076 58.1214 91.1821 58.1214 91.1481 58.1044C91.1397 58.1554 91.1312 58.2149 91.1227 58.2659C91.0972 58.2659 91.0717 58.2574 91.0377 58.2489C91.0292 58.3083 91.0207 58.3593 91.0122 58.4188C90.9528 58.4358 90.8933 58.4528 90.8338 58.4698C90.7489 58.6312 90.6639 58.7841 90.579 58.9455C90.4855 58.9795 90.3921 59.022 90.2986 59.0729C90.2816 59.1494 90.2731 59.2343 90.2561 59.3193C90.2306 59.3193 90.2051 59.3108 90.1712 59.3023C90.1712 59.3533 90.1542 59.4128 90.1457 59.4637C90.1202 59.4637 90.0947 59.4552 90.0607 59.4467C90.0522 59.4977 90.0437 59.5572 90.0352 59.6166C89.9758 59.6336 89.9163 59.6506 89.8568 59.6676C89.8483 59.7271 89.8398 59.7781 89.8313 59.829C89.7719 59.846 89.7124 59.863 89.6529 59.8885C89.6444 59.9395 89.636 59.9989 89.6275 60.0499C89.568 60.0669 89.5085 60.0924 89.4491 60.1094C89.4491 60.1604 89.4321 60.2198 89.4236 60.2793C89.2961 60.3388 89.1772 60.4067 89.0498 60.4662C89.0413 60.5172 89.0328 60.5766 89.0243 60.6276C88.9648 60.6446 88.9053 60.6616 88.8459 60.6786C88.8034 60.7635 88.7609 60.8315 88.7184 60.9165C88.693 60.9165 88.6675 60.908 88.6335 60.8995C88.625 60.9589 88.6165 61.0099 88.608 61.0694C88.5485 61.0864 88.4891 61.1034 88.4296 61.1288C88.4211 61.1798 88.4126 61.2393 88.4041 61.2988C88.3107 61.3327 88.2172 61.3752 88.1322 61.4177C88.1237 61.4772 88.1153 61.5281 88.0983 61.5876C87.9114 61.698 87.7245 61.8085 87.5291 61.9189C87.4866 62.0209 87.4356 62.1313 87.3931 62.2333C87.2657 62.3012 87.1468 62.3607 87.0193 62.4287C86.9769 62.5051 86.9344 62.5816 86.8919 62.6665C86.8324 62.6495 86.7815 62.6495 86.722 62.6325C86.722 62.658 86.7135 62.692 86.705 62.7175C86.6116 62.76 86.5181 62.8025 86.4247 62.8449C86.4162 62.9044 86.4077 62.9639 86.3992 63.0149C86.2123 63.1253 86.0169 63.2357 85.83 63.3462C85.796 63.3971 85.7535 63.4481 85.7195 63.4991C85.6686 63.4991 85.6091 63.4821 85.5581 63.4651C85.5156 63.5161 85.4817 63.5671 85.4477 63.618C85.3882 63.618 85.3372 63.601 85.2778 63.5925C85.2098 63.6605 85.1418 63.737 85.0739 63.8134C85.0484 63.8134 85.0229 63.8049 84.9974 63.7964C84.9889 63.8474 84.9804 63.9069 84.9719 63.9578C84.921 64.0003 84.4962 64.1787 84.4197 64.2042C84.4112 64.2637 84.4027 64.3232 84.3857 64.3741C84.1564 64.3996 84.0969 64.4591 83.927 64.5525C83.927 64.578 83.9185 64.6035 83.91 64.6375C83.7995 64.6375 83.6806 64.6545 83.5617 64.663C83.4937 64.7309 83.4173 64.8074 83.3578 64.8839C83.2388 64.8923 83.1284 64.9008 83.0095 64.9093C83.0095 64.9433 83.001 64.9603 82.9925 64.9943C82.9075 64.9858 82.8311 64.9688 82.7461 64.9518C82.7036 65.0028 82.6696 65.0538 82.6357 65.1047C82.5762 65.0962 82.5252 65.0793 82.4658 65.0708C82.4318 65.1217 82.3893 65.1727 82.3553 65.2237C82.3043 65.2237 82.2449 65.2067 82.1939 65.1982C82.1514 65.2407 82.1174 65.2916 82.0835 65.3426C82.024 65.3341 80.7072 66.0223 80.5033 66.0138C80.4353 66.0902 80.3674 66.1582 80.2909 66.2346C79.9426 66.2601 79.5943 66.2941 79.2545 66.3111C79.2545 66.3366 79.246 66.3706 79.2375 66.396C79.178 66.3876 79.127 66.3706 79.0676 66.3621C79.0336 66.413 78.9911 66.464 78.9571 66.515C78.7872 66.515 78.6173 66.515 78.4474 66.515C78.4134 66.566 78.3709 66.6169 78.3369 66.6679C78.286 66.6679 78.2265 66.6509 78.1755 66.6339C78.1755 66.6594 78.167 66.6849 78.1585 66.7104C78.0226 66.6849 77.8782 66.6679 77.7423 66.6424C77.7423 66.6679 77.7423 66.6934 77.7253 66.7189C77.6403 66.7019 77.5554 66.6934 77.4789 66.6764C77.4789 66.7104 77.4704 66.7359 77.4619 66.7614C77.377 66.7444 77.292 66.7359 77.2155 66.7189C77.2155 66.7444 77.207 66.7699 77.1986 66.8038C77.0881 66.8123 76.1706 67.1437 76.1196 67.1352C76.1196 67.1607 73.469 67.0587 72.9083 67.0162C72.7384 67.0417 71.7869 66.9143 71.566 66.8718C71.566 66.8463 71.5745 66.8208 71.583 66.7868C71.4726 66.7614 71.4301 66.8888 71.2347 66.8123C71.2347 66.7784 71.2432 66.7529 71.2517 66.7274C71.1667 66.7274 71.0733 66.7529 70.9883 66.7614C70.9883 66.7359 70.9968 66.7104 71.0053 66.6764C70.8949 66.6594 70.7845 66.6424 70.674 66.6169C70.674 66.5915 70.674 66.566 70.691 66.5405C70.4956 66.5065 70.3002 66.4725 70.1133 66.4385C70.1133 66.413 70.1218 66.3876 70.1303 66.3536C70.0199 66.3111 69.9179 66.2601 69.816 66.2176C69.816 66.1922 69.8245 66.1582 69.833 66.1327C69.7225 66.1157 69.6121 66.0902 69.5016 66.0732C69.5016 66.0477 69.5101 66.0223 69.5186 65.9883C69.2723 65.9458 69.0174 65.9033 68.771 65.8608C68.771 65.8354 68.7795 65.8014 68.788 65.7759C68.6521 65.7504 68.5162 65.7334 68.3717 65.7079C68.3717 65.6739 68.3802 65.6485 68.3887 65.623C68.2783 65.606 68.1678 65.5805 68.0574 65.5635C68.0574 65.538 68.0659 65.5125 68.0744 65.487C67.9894 65.47 67.9045 65.4615 67.8195 65.4446C67.8195 65.4191 67.828 65.3851 67.8365 65.3596C67.7601 65.3426 67.6751 65.3341 67.5901 65.3171C67.5732 65.2577 67.5562 65.1982 67.5392 65.1387C67.4797 65.1387 67.4287 65.1217 67.3693 65.1047C67.3693 65.0793 67.3778 65.0538 67.3863 65.0283C67.3013 65.0113 67.2248 65.0028 67.1399 64.9858C67.1399 64.9603 67.1484 64.9263 67.1569 64.9008C66.936 64.8584 66.7151 64.8244 66.4942 64.7904C66.4517 64.6885 66.4093 64.6035 66.3668 64.51C66.2818 64.4931 66.2054 64.4846 66.1204 64.4676C66.1204 64.4421 66.1289 64.4166 66.1374 64.3826C65.6787 64.2212 65.2284 64.0598 64.7696 63.8984C64.7696 63.8644 64.7781 63.8389 64.7866 63.8134C64.6762 63.7709 64.5742 63.72 64.4638 63.669C64.3534 63.4821 64.2429 63.2867 64.1325 63.0998C64.0815 63.0913 64.022 63.0828 63.9626 63.0743C63.9456 63.0149 63.9286 62.9469 63.9116 62.8874C63.5548 62.5646 63.1045 62.5221 63.0451 61.9699C62.8666 61.8934 62.8582 61.868 62.7392 61.749C62.7392 61.7235 62.7392 61.698 62.7562 61.6641C62.6713 61.6471 62.5863 61.6386 62.5098 61.6216C62.5098 61.5961 62.5183 61.5621 62.5268 61.5366C62.4674 61.5281 62.4164 61.5196 62.3569 61.5111C62.3144 61.4177 62.272 61.3242 62.238 61.2308C62.153 61.2138 62.0766 61.2053 61.9916 61.1883C61.9916 61.1628 61.9916 61.1373 62.0086 61.1119C61.9236 61.0949 61.8387 61.0864 61.7622 61.0694C61.7283 61.1204 61.6858 61.1713 61.6518 61.2223C61.6263 61.2223 61.6008 61.2223 61.5753 61.2053C61.5668 61.2648 61.5583 61.3158 61.5498 61.3752C61.4564 61.4177 61.363 61.4602 61.2695 61.4942C61.261 61.5536 61.2525 61.6046 61.244 61.6641C61.2185 61.6641 61.1845 61.6556 61.1591 61.6471C61.1591 61.7065 61.1421 61.7575 61.1336 61.817C61.0741 61.834 61.0146 61.851 60.9552 61.868C60.9467 61.9274 60.9382 61.9784 60.9297 62.0294C60.8702 62.0464 60.8107 62.0718 60.7513 62.0888C60.7258 62.2587 60.6918 62.4202 60.6663 62.5816C60.6069 62.5986 60.5474 62.6241 60.4879 62.641C60.4454 62.743 60.3945 62.8534 60.352 62.9554C60.2925 62.9724 60.2331 62.9979 60.1736 63.0149C60.0886 63.2018 59.9952 63.3886 59.9102 63.5671C59.8847 63.5671 59.8507 63.5586 59.8253 63.5501C59.7913 63.601 59.7488 63.652 59.7148 63.703C59.6639 63.6945 59.6044 63.686 59.5449 63.669C59.5449 63.6945 59.5364 63.7285 59.5279 63.754C59.341 63.8644 59.1541 63.9748 58.9587 64.0853C58.9502 64.1363 58.9417 64.1957 58.9332 64.2467C58.6019 64.2807 58.6274 64.4506 58.2961 64.4846C58.2366 64.629 58.1771 64.8074 58.0582 64.8669C58.0072 64.8669 57.9478 64.8499 57.8883 64.8329C57.8458 64.8839 57.8118 64.9348 57.7779 64.9858C57.6504 65.0453 57.523 65.1132 57.404 65.1727C57.2681 65.2916 57.1322 65.4191 57.0048 65.538C56.9198 65.555 56.8264 65.5635 56.7414 65.5805C56.6395 65.6739 56.5375 65.7759 56.4356 65.8778C56.3761 65.8693 56.3251 65.8608 56.2657 65.8438C56.1637 65.9373 56.0618 66.0392 55.9598 66.1327C55.9088 66.1327 55.8494 66.1157 55.7984 66.1072C55.6965 66.2007 55.5945 66.3026 55.4926 66.396C55.4076 66.4045 55.3142 66.4215 55.2292 66.4385C55.1867 66.4895 55.1527 66.5405 55.1188 66.583C55.0593 66.583 55.0083 66.566 54.9489 66.5575C54.9064 66.6084 54.8724 66.6594 54.8384 66.7104C54.7195 66.7104 54.609 66.7274 54.4901 66.7359C54.4221 66.8038 54.3542 66.8803 54.2862 66.9568C54.2352 66.9398 54.1758 66.9313 54.1163 66.9228C54.0483 66.9907 53.9719 67.0757 53.9039 67.1437C53.8529 67.1352 53.7935 67.1267 53.734 67.1182C53.734 67.1522 53.7255 67.1776 53.717 67.2031C53.666 67.1946 53.6066 67.1861 53.5556 67.1776C53.5131 67.2201 53.4791 67.2711 53.4451 67.3306C53.3347 67.3391 53.2158 67.3475 53.0968 67.356C53.0629 67.3985 53.0289 67.458 52.9864 67.509C52.8929 67.5259 52.808 67.5344 52.723 67.5514C52.723 67.5769 52.7145 67.6109 52.706 67.6364C52.6466 67.6279 52.5956 67.6194 52.5361 67.6109C52.5361 67.6364 52.5276 67.6619 52.5191 67.6959C52.4682 67.6874 52.4087 67.6789 52.3577 67.6704C52.3577 67.6959 52.3492 67.7214 52.3407 67.7553C52.2558 67.7383 52.1708 67.7214 52.0859 67.7129C52.0859 67.7383 52.0774 67.7723 52.0689 67.7978C52.0179 67.7893 51.9584 67.7808 51.9075 67.7723C51.9075 67.7978 51.899 67.8233 51.8905 67.8488C51.8395 67.8488 51.78 67.8318 51.7291 67.8233C51.6866 67.8743 51.6526 67.9252 51.6186 67.9762C51.3638 67.9592 51.1089 67.9422 50.854 67.9337C50.854 67.9592 50.8455 67.9847 50.837 68.0102C50.7776 68.0102 50.7266 67.9932 50.6671 67.9762C50.6331 68.0272 50.5907 68.0782 50.5567 68.1291C50.4462 68.1376 50.3273 68.1461 50.2084 68.1546C50.2084 68.1801 50.1999 68.2141 50.1914 68.2396C49.6732 68.2651 49.1549 68.2906 48.6367 68.316C48.6367 68.3415 48.6367 68.3755 48.6197 68.3925C48.5687 68.3925 48.5093 68.3755 48.4583 68.367C48.4583 68.3925 48.4498 68.4265 48.4413 68.452C48.2714 68.452 48.1015 68.452 47.9316 68.452C47.9316 68.4774 47.9231 68.5114 47.9146 68.5369C47.6937 68.5029 47.4728 68.4689 47.2519 68.4265C47.2519 68.452 47.2434 68.4859 47.2349 68.5114C47.0395 68.4774 46.8526 68.4435 46.6572 68.4095C46.6572 68.435 46.6488 68.4605 46.6403 68.4944C46.5298 68.4774 46.4194 68.4605 46.3089 68.4435C46.3089 68.4774 46.3004 68.4944 46.2919 68.5284C45.7907 68.4435 45.298 68.3585 44.7967 68.2736C44.7967 68.299 44.7967 68.333 44.7797 68.3585C44.6948 68.3415 44.6183 68.333 44.5334 68.316C44.5334 68.3415 44.5249 68.367 44.5164 68.401C43.9047 68.3245 43.293 68.2481 42.6814 68.1716C42.6814 68.1461 42.6899 68.1206 42.6983 68.0867C42.5284 68.0867 42.3585 68.0867 42.1886 68.0867C41.3051 67.9082 40.4216 67.7383 39.5465 67.5514C39.5465 67.526 39.5465 67.5005 39.5635 67.4665C39.5125 67.458 39.4531 67.4495 39.3936 67.441C39.3936 67.4155 39.4021 67.39 39.4106 67.356C39.2407 67.3306 39.0793 67.2966 38.9094 67.2711C38.9094 67.2371 38.9179 67.2116 38.9263 67.1861C38.8669 67.1776 38.8159 67.1691 38.7564 67.1606C38.7564 67.1352 38.7649 67.1097 38.7734 67.0757C38.612 67.0247 38.4506 66.9652 38.2892 66.9058C38.2892 66.8803 38.2977 66.8548 38.3062 66.8208C38.2552 66.8123 38.1957 66.8038 38.1363 66.7953C38.1193 66.7359 38.1023 66.6764 38.0853 66.6169C38.0003 66.5999 37.9154 66.583 37.8389 66.5745C37.8389 66.549 37.8389 66.5235 37.8559 66.498C37.7795 66.481 37.6945 66.5405 37.5076 66.5235C37.4906 66.4385 37.4821 66.3451 37.4651 66.2601C37.2188 66.1922 36.9724 66.1157 36.726 66.0477C36.709 65.9883 36.692 65.9288 36.675 65.8693C36.5051 65.6994 36.3352 65.5295 36.1653 65.3596C36.0294 65.3086 35.902 65.2577 35.766 65.2067C35.766 65.1812 35.7745 65.1557 35.783 65.1217C35.7066 65.0793 35.6216 65.0368 35.5451 64.9943C35.5282 64.9348 35.5027 64.8754 35.4857 64.8159C35.2988 64.7564 35.1119 64.697 34.9165 64.6375C34.857 64.5101 34.789 64.3826 34.7296 64.2637C34.6701 64.2552 34.6191 64.2382 34.5597 64.2297C34.5427 64.1702 34.5257 64.1108 34.5087 64.0513C34.4577 64.0428 34.3983 64.0343 34.3388 64.0258C34.3218 63.9663 34.3048 63.9069 34.2878 63.8474C34.2114 63.8049 34.1349 63.7624 34.0499 63.72C34.0499 63.6945 34.0584 63.669 34.0669 63.635C33.9055 63.5755 33.7441 63.5246 33.5827 63.4651C33.5402 63.3717 33.4977 63.2782 33.4637 63.1933C33.4043 63.1848 33.3533 63.1678 33.3023 63.1593C33.1664 62.9384 33.039 62.7175 32.903 62.4966C32.7416 62.4372 32.5802 62.3862 32.4188 62.3267C32.4018 62.2672 32.3763 62.2078 32.3678 62.1483C32.3084 62.1398 32.2574 62.1313 32.1979 62.1143C32.13 61.9954 32.0705 61.8595 32.0025 61.7405C31.9431 61.732 31.8921 61.7235 31.8326 61.715C31.7901 61.6216 31.7477 61.5281 31.7137 61.4347C31.6627 61.4347 31.6032 61.4177 31.5438 61.4092C31.4758 61.2818 31.4163 61.1628 31.3484 61.0354C31.2889 61.0269 31.2379 61.0184 31.1785 61.0099C31.136 60.9165 31.0935 60.823 31.051 60.7296C30.8981 60.6446 30.7367 60.5681 30.5838 60.4832C30.5668 60.4237 30.5413 60.3643 30.5243 60.3048C30.4733 60.3048 30.4139 60.2878 30.3544 60.2708C30.3119 60.1774 30.2779 60.0839 30.2355 59.9904C30.21 59.9904 30.1845 59.9905 30.1505 59.9735C30.1335 59.8885 30.1165 59.7951 30.108 59.7101C30.0486 59.7016 29.9976 59.6931 29.9381 59.6846C29.9381 59.6591 29.9466 59.6251 29.9551 59.5997C29.8786 59.5572 29.8022 59.5147 29.7257 59.4722C29.7087 59.4128 29.6833 59.3533 29.6748 59.2938C29.6153 59.2853 29.5643 59.2683 29.5048 59.2598C29.4114 59.1579 29.5388 59.0559 29.4794 58.92C29.4284 58.8775 29.3774 58.8436 29.3264 58.8096C29.3264 58.7841 29.3264 58.7586 29.3349 58.7331C29.165 58.5632 28.9951 58.3848 28.8252 58.2149C28.7912 58.096 28.7487 57.977 28.7148 57.8581C28.6383 57.8156 28.5534 57.7731 28.4769 57.7391C28.4769 57.5947 28.4769 57.4503 28.4684 57.3059C28.341 57.2039 28.222 57.0935 28.0946 56.9915C28.0436 56.6432 27.9842 56.2864 27.9332 55.9381C27.8058 55.8277 27.6868 55.7257 27.5594 55.6153C27.5509 55.4963 27.5424 55.3859 27.5339 55.267C27.4829 55.2245 27.4319 55.1905 27.381 55.1565C27.3895 55.1055 27.398 55.0461 27.4065 54.9866C27.3045 54.8847 27.2111 54.7827 27.1176 54.6808C27.1261 54.6213 27.1346 54.5703 27.1431 54.5109C27.1176 54.5109 27.0921 54.5109 27.0581 54.4939C27.0242 54.4004 26.9732 54.3155 26.9392 54.222C26.8882 54.188 26.8373 54.1455 26.7863 54.1116C26.7608 53.9332 26.7353 53.7633 26.7013 53.5848C26.6758 53.5848 26.6504 53.5848 26.6164 53.5679C26.6249 53.5169 26.6334 53.4574 26.6419 53.3979C26.6164 53.3979 26.5909 53.3979 26.5569 53.3895C26.5654 53.33 26.5739 53.279 26.5824 53.2195L26.4465 53.0241C26.455 52.9647 26.4635 52.9137 26.4805 52.8542C26.4805 52.8542 24.0338 53.1091 22.2667 53.0326C22.2667 53.0496 22.2667 53.0666 22.2667 53.0836C22.1308 53.0581 21.9863 53.0326 21.8504 53.0072C21.8504 53.0411 21.8419 53.0666 21.8419 53.0921C21.4511 53.0326 21.0688 52.9647 20.678 52.8967C20.678 52.9222 20.6695 52.9477 20.661 52.9817C20.2448 52.9392 19.82 52.8967 19.4037 52.8542C19.4037 52.8797 19.3952 52.9137 19.3867 52.9392C19.2508 52.9137 19.1149 52.8967 18.9704 52.8712C18.9704 52.8967 18.9619 52.9307 18.9534 52.9562C18.7835 52.9307 18.6221 52.9052 18.4522 52.8712C18.4522 52.8967 18.4437 52.9307 18.4352 52.9562C18.1039 52.8967 17.7726 52.8457 17.4412 52.7863C16.3793 52.5994 15.5552 52.3955 14.8416 52.0047C14.5698 51.9282 14.2979 51.8518 14.0261 51.7838C14.0091 51.7243 13.9836 51.6649 13.9751 51.5969C13.8901 51.5884 13.8052 51.5714 13.7202 51.5544C13.7202 51.5289 13.7287 51.5034 13.7372 51.4695C13.6862 51.461 13.6268 51.4525 13.5758 51.444C13.5758 51.41 13.5843 51.3845 13.5928 51.359C13.3124 51.3081 13.0406 51.2656 12.7602 51.2146C12.7602 51.1891 12.7687 51.1636 12.7772 51.1296C12.6158 51.0447 12.4629 50.9597 12.31 50.8748C12.31 50.8493 12.3185 50.8238 12.327 50.7898C12.276 50.7813 12.2165 50.7728 12.1571 50.7643C12.1571 50.7389 12.1655 50.7049 12.174 50.6794C12.0126 50.6199 11.8512 50.5689 11.6898 50.518C11.6898 50.484 11.6983 50.4585 11.7068 50.433C11.6048 50.3905 11.4944 50.3481 11.384 50.2971C11.384 50.2631 11.3925 50.2376 11.401 50.2121C11.316 50.1951 11.2395 50.1866 11.1546 50.1697C11.1546 50.1442 11.1631 50.1187 11.1716 50.0932C11.0866 50.0762 11.0017 50.0677 10.9167 50.0507C10.8742 49.9573 10.8318 49.8723 10.7893 49.7704C10.7128 49.7534 10.6279 49.7449 10.5429 49.7279C10.5429 49.7024 10.5514 49.6684 10.5599 49.6429C10.5004 49.6344 10.4495 49.6259 10.39 49.6174C10.373 49.558 10.356 49.49 10.3305 49.439C10.2795 49.439 10.2201 49.4221 10.1691 49.4136C10.1691 49.3881 10.1776 49.3626 10.1861 49.3286C10.0502 49.2776 9.91424 49.2267 9.77831 49.1757C9.77831 49.1502 9.78681 49.1247 9.7953 49.0992C9.64238 49.0143 9.48097 48.9293 9.32805 48.8529C9.32805 48.8274 9.33655 48.7934 9.34504 48.7679C9.29407 48.7594 9.2346 48.7424 9.17513 48.7339C9.17513 48.7084 9.18363 48.6744 9.19212 48.649C9.08168 48.6065 8.97974 48.5555 8.87779 48.5045C8.83531 48.4111 8.79284 48.3176 8.75036 48.2327C8.69939 48.2242 8.63992 48.2157 8.58894 48.2072C8.57195 48.1477 8.55496 48.0883 8.53797 48.0288C8.4785 48.0203 8.42753 48.0033 8.36806 47.9948C8.32558 47.9014 8.28311 47.8164 8.24912 47.7145C8.19815 47.706 8.13868 47.6975 8.07921 47.689C8.06222 47.6295 8.04523 47.57 8.02824 47.5106C7.94329 47.4936 7.85833 47.4766 7.78187 47.4681C7.73939 47.3831 7.69692 47.2897 7.65444 47.1962C7.50152 47.1113 7.34011 47.0263 7.18719 46.9499C7.07675 46.7545 6.9663 46.5676 6.85586 46.3807C6.77091 46.3637 6.68595 46.3552 6.60949 46.3382C6.5925 46.2787 6.57551 46.2192 6.55852 46.1598C6.4056 46.0748 6.24419 45.9899 6.09127 45.9134C6.0233 45.786 5.96384 45.667 5.89587 45.5396C5.8449 45.5311 5.78543 45.5226 5.72596 45.5141C5.70897 45.4547 5.69198 45.3952 5.66649 45.3357C5.61552 45.3272 5.55605 45.3187 5.49658 45.3102C5.38614 45.1233 5.2757 44.9364 5.16526 44.741C5.06331 44.6986 4.95287 44.6476 4.84243 44.6051C4.79995 44.5117 4.75748 44.4182 4.72349 44.3248C4.66403 44.3163 4.61305 44.3078 4.55358 44.2993L4.41766 44.1039C4.41766 44.0529 4.43465 43.9934 4.44314 43.934C4.37518 43.8065 4.24775 43.849 4.1543 43.6281C4.09483 43.6196 4.04386 43.6111 3.98439 43.6026C3.98439 43.4412 3.89943 43.0334 3.83147 42.9825C3.72103 42.9655 3.61058 42.9485 3.50014 42.923C3.50014 42.8975 3.50014 42.8635 3.51713 42.838C3.32174 42.6342 3.16032 42.4133 3.13484 42.0904C3.07537 42.0904 3.0244 42.0734 2.96493 42.065C2.96493 42.0395 2.97342 42.0055 2.98192 41.98C2.81201 41.8101 2.6421 41.6402 2.47219 41.4618C2.47219 41.3513 2.4552 41.2324 2.4467 41.122C2.39573 41.088 2.34476 41.0455 2.29378 41.0115C2.30228 40.9605 2.31077 40.9011 2.31927 40.8416C2.29378 40.8416 2.2683 40.8331 2.24281 40.8246C2.23431 40.7142 2.22582 40.5952 2.21732 40.4763C2.09839 40.3489 1.97945 40.2129 1.86051 40.077C1.8775 39.9921 1.886 39.9156 1.90299 39.8306C1.82653 39.7882 1.75007 39.7457 1.67361 39.7032L1.53768 39.5078C1.54618 39.4568 1.55468 39.3974 1.56317 39.3464C1.48671 39.2784 1.41875 39.202 1.34229 39.1425C1.34229 38.9726 1.34229 38.8027 1.34229 38.6328C1.3168 38.6328 1.29132 38.6243 1.25733 38.6158C1.23185 38.4374 1.20636 38.2675 1.17238 38.0891C1.14689 38.0891 1.11291 38.0806 1.08742 38.0806C1.10441 37.9956 1.12141 37.9192 1.1299 37.8342C1.01096 37.7323 0.883531 37.6218 0.756099 37.5114L0.798576 36.7468C0.637162 36.6703 0.722117 36.7468 0.645657 36.6363C0.620171 36.6363 0.594685 36.6363 0.560703 36.6193C0.586189 36.4834 0.611676 36.339 0.628667 36.2031C0.662648 36.2031 0.688135 36.2116 0.713621 36.2201C0.69663 36.1351 0.688135 36.0501 0.671144 35.9567C0.586189 35.9397 0.50973 35.9227 0.424775 35.9142C0.492739 35.43 0.450261 35.2346 0.33982 34.8778C0.314333 34.8778 0.288847 34.8778 0.254865 34.8693C0.271856 34.7843 0.280351 34.6994 0.297342 34.6229C0.271856 34.6229 0.246369 34.6144 0.212387 34.6059C0.271856 34.419 0.331324 34.2321 0.390793 34.0367C0.365306 34.0367 0.33982 34.0367 0.314333 34.0197C0.305838 33.9008 0.297342 33.7818 0.288847 33.6714C0.26336 33.6714 0.229378 33.6629 0.203892 33.6544C0.229378 33.5185 0.246369 33.3741 0.271856 33.2381C0.246369 33.2381 0.212387 33.2381 0.186901 33.2296C0.203892 33.1447 0.212387 33.0682 0.229378 32.9748C0.203892 32.9748 0.16991 32.9663 0.144423 32.9578C0.178405 32.7709 0.212387 32.5755 0.246369 32.3801C0.220883 32.3801 0.186901 32.3801 0.161414 32.3631C0.178405 32.2527 0.195396 32.1422 0.220883 32.0318C0.195396 32.0318 0.16991 32.0233 0.135928 32.0148C0.152919 31.9043 0.16991 31.7939 0.195396 31.6835L0.0849549 31.7429Z" fill="#3B3978"/>
</svg>
