<svg width="39" height="44" viewBox="0 0 39 44" fill="none" xmlns="http://www.w3.org/2000/svg">
<g clip-path="url(#clip0_531_2950)">
<path d="M18.4506 30.9478V15.646C18.4506 14.4552 17.4738 13.4863 16.2734 13.4863H3.31351L3.82837 17.9353H14.0506C14.3645 17.9353 14.6187 18.1875 14.6187 18.4988C14.6187 18.8102 14.3645 19.0623 14.0506 19.0623H3.95887L4.36855 22.6033H14.3126C14.6265 22.6033 14.8807 22.8557 14.8807 23.1668C14.8807 23.4778 14.6265 23.7303 14.3126 23.7303H4.49873L4.92367 27.4014H14.3123C14.6262 27.4014 14.8804 27.6535 14.8804 27.9648C14.8804 28.2762 14.6262 28.5283 14.3123 28.5283H5.05417L5.58396 33.1071H16.2734C17.4738 33.1071 18.4506 32.1382 18.4506 30.9472V30.9478Z" fill="#199FB4"/>
<path d="M37.9992 0H33.8124V2.73696C33.8124 3.04833 33.5582 3.30045 33.2443 3.30045C32.9304 3.30045 32.6762 3.04833 32.6762 2.73696V0H26.8835V2.73696C26.8835 3.04833 26.6293 3.30045 26.3154 3.30045C26.0015 3.30045 25.7473 3.04833 25.7473 2.73696V0H19.9543V2.73696C19.9543 3.04833 19.6998 3.30045 19.3862 3.30045C19.0726 3.30045 18.8181 3.04833 18.8181 2.73696V0H13.0254V2.73696C13.0254 3.04833 12.7709 3.30045 12.4573 3.30045C12.1437 3.30045 11.8892 3.04833 11.8892 2.73696V0H6.09622V2.73696C6.09622 3.04833 5.84203 3.30045 5.52811 3.30045C5.2142 3.30045 4.96001 3.04833 4.96001 2.73696V0H1.00083C0.448962 0 0 0.445319 0 0.992711V4.36432C0 4.91171 0.448962 5.35703 1.00083 5.35703H1.8572C1.8598 5.35703 1.8624 5.35703 1.865 5.35703H37.1542C37.1568 5.35703 37.159 5.35703 37.1616 5.35703H37.9992C38.551 5.35703 39 4.91171 39 4.36432V0.992711C39 0.445319 38.551 0 37.9992 0Z" fill="#199FB4"/>
<path d="M3.18331 12.359H16.2733C18.1004 12.359 19.5868 13.8334 19.5868 15.6456V30.9475C19.5868 32.76 18.1004 34.2344 16.2733 34.2344H5.71412L6.53609 41.3379C6.71171 42.8555 8.00536 43.9999 9.5454 43.9999H29.292C30.8245 43.9999 32.1175 42.8616 32.3 41.3524L36.5094 6.48389H2.50354L3.18331 12.3593V12.359Z" fill="#199FB4"/>
</g>
<defs>
<clipPath id="clip0_531_2950">
<rect width="39" height="44" fill="white"/>
</clipPath>
</defs>
</svg>
