<svg width="85" height="44" viewBox="0 0 85 44" fill="none" xmlns="http://www.w3.org/2000/svg">
<path d="M61.7024 16.4314C61.7024 13.7656 63.8634 11.6056 66.5282 11.6056C69.1929 11.6056 71.354 13.7667 71.354 16.4314C71.354 19.0962 69.1929 21.2572 66.5282 21.2572C63.8634 21.2572 61.7024 19.0962 61.7024 16.4314ZM82.1966 12.6813C82.1966 10.6772 80.5659 9.04652 78.5617 9.04652C76.5576 9.04652 74.9269 10.6772 74.9269 12.6813C74.9269 14.6855 76.5576 16.3162 78.5617 16.3162C80.5659 16.3162 82.1966 14.6855 82.1966 12.6813ZM80.0046 12.6813C80.0046 13.4764 79.3579 14.1242 78.5617 14.1242C77.7656 14.1242 77.1189 13.4775 77.1189 12.6813C77.1189 11.8852 77.7656 11.2385 78.5617 11.2385C79.3579 11.2385 80.0046 11.8852 80.0046 12.6813ZM73.4851 7.0082C75.4199 7.0082 76.9898 5.43944 76.9898 3.50357C76.9898 1.56769 75.4199 0 73.4851 0C71.5503 0 69.9805 1.56876 69.9805 3.50463C69.9805 5.4405 71.5493 7.00926 73.4851 7.00926V7.0082Z" fill="#7980E9"/>
<path d="M49.2185 22.7033L59.4474 11.9503C54.2257 3.72448 43.763 0.0501604 34.3313 3.701C23.5922 7.85661 18.2552 19.9307 22.4108 30.6687C26.5664 41.4078 38.6406 46.7448 49.3796 42.5892C57.4689 39.4591 62.4921 31.8362 62.7024 23.6744L49.2185 22.7022V22.7033Z" fill="#7980E9"/>
</svg>
