<svg width="20" height="20" viewBox="0 0 20 20" fill="none" xmlns="http://www.w3.org/2000/svg">
<path d="M15.8203 15.8203V6.67969H4.17969V15.8203H15.8203ZM13.3203 0.820312H15V2.5H15.8203C16.263 2.5 16.6536 2.66927 16.9922 3.00781C17.3307 3.34635 17.5 3.73698 17.5 4.17969V15.8203C17.5 16.263 17.3307 16.6536 16.9922 16.9922C16.6536 17.3307 16.263 17.5 15.8203 17.5H4.17969C3.71094 17.5 3.30729 17.3438 2.96875 17.0312C2.65625 16.6927 2.5 16.2891 2.5 15.8203V4.17969C2.5 3.73698 2.65625 3.34635 2.96875 3.00781C3.30729 2.66927 3.71094 2.5 4.17969 2.5H5V0.820312H6.67969V2.5H13.3203V0.820312ZM14.1797 10V14.1797H10V10H14.1797Z" fill="white"/>
</svg>
