<svg width="203" height="174" viewBox="0 0 203 174" fill="none" xmlns="http://www.w3.org/2000/svg">
<g clip-path="url(#clip0_475_1632)">
<path d="M197.785 52.6657C187.639 70.844 167.59 81.3232 147.59 87.3078C138.134 90.1377 127.758 92.6181 121.477 100.209C113.872 109.394 114.934 122.682 116.12 134.531C117.303 146.379 117.633 159.909 109.184 168.332C101.361 176.131 87.0406 175.981 79.3852 168.024C74.2537 162.693 72.2939 155.015 67.5469 149.342C61.3331 141.909 51.0994 138.905 41.3923 138.755C31.6809 138.601 22.1242 140.886 12.5006 142.184C2.87699 143.483 -7.29401 143.72 -16.1404 139.733C-24.9951 135.738 -32.0696 126.536 -30.8662 116.939C-29.2072 103.697 -13.8337 96.1056 -10.052 83.3042C-5.40105 67.5605 -19.8552 52.3327 -20.3191 35.9273C-20.7578 20.5789 -6.70481 6.3916 8.71049 6.45404C24.1258 6.51646 38.0117 20.658 37.8905 36.0105C37.8278 44.0718 34.4807 51.7251 33.2229 59.6907C31.9651 67.652 33.5655 77.1366 40.5314 81.24C48.0698 85.6806 58.1865 81.369 63.6314 74.5355C69.0763 67.702 71.3328 58.9707 74.7635 50.9427C82.1139 33.7382 95.4607 19.1431 111.975 10.2495C128.489 1.36009 148.062 -1.7695 166.541 1.5349C178.404 3.65321 190.276 8.72633 197.664 18.2109C205.052 27.6954 204.463 40.6924 197.781 52.6657H197.785Z" fill="#E3FFDD"/>
</g>
<defs>
<clipPath id="clip0_475_1632">
<rect width="203" height="174" fill="white"/>
</clipPath>
</defs>
</svg>
