<svg width="20" height="20" viewBox="0 0 20 20" fill="none" xmlns="http://www.w3.org/2000/svg">
<path d="M16.6797 1.67969C17.0964 1.67969 17.474 1.84896 17.8125 2.1875C18.151 2.5 18.3203 2.8776 18.3203 3.32031V5.85938C18.3203 6.14583 18.2422 6.41927 18.0859 6.67969C17.9297 6.91406 17.7344 7.10938 17.5 7.26562V16.6797C17.5 16.9661 17.4089 17.2396 17.2266 17.5C17.0703 17.7604 16.862 17.9688 16.6016 18.125C16.3411 18.2552 16.0807 18.3203 15.8203 18.3203H4.17969C3.91927 18.3203 3.65885 18.2552 3.39844 18.125C3.13802 17.9688 2.91667 17.7604 2.73438 17.5C2.57812 17.2396 2.5 16.9661 2.5 16.6797V7.26562C2.26562 7.10938 2.07031 6.91406 1.91406 6.67969C1.75781 6.41927 1.67969 6.14583 1.67969 5.85938V3.32031C1.67969 2.8776 1.84896 2.5 2.1875 2.1875C2.52604 1.84896 2.90365 1.67969 3.32031 1.67969H16.6797ZM12.5 11.6797V10H7.5V11.6797H12.5ZM16.6797 5.82031V3.32031H3.32031V5.82031H16.6797Z" fill="white"/>
</svg>
