<svg width="20" height="20" viewBox="0 0 20 20" fill="none" xmlns="http://www.w3.org/2000/svg">
<path d="M3.32031 5V13.3203H16.6797V5H3.32031ZM16.6797 15H20V16.6797H0V15H3.32031C2.8776 15 2.48698 14.8307 2.14844 14.4922C1.83594 14.1536 1.67969 13.763 1.67969 13.3203V5C1.67969 4.55729 1.83594 4.16667 2.14844 3.82812C2.48698 3.48958 2.8776 3.32031 3.32031 3.32031H16.6797C17.1224 3.32031 17.5 3.48958 17.8125 3.82812C18.151 4.16667 18.3203 4.55729 18.3203 5V13.3203C18.3203 13.763 18.151 14.1536 17.8125 14.4922C17.5 14.8307 17.1224 15 16.6797 15Z" fill="white"/>
</svg>
