<svg width="191" height="17" viewBox="0 0 191 17" fill="none" xmlns="http://www.w3.org/2000/svg">
<g clip-path="url(#clip0_487_2324)">
<path d="M0 3.20997V2.1333H12.5699C12.9141 2.13696 13.644 2.44405 13.6638 2.80051C13.7918 5.14395 13.6026 7.38868 12.9574 9.6005C12.2744 11.9421 10.7354 13.7299 8.51692 14.6932C6.40301 15.6108 4.09807 16.1044 1.71203 15.9764C3.18438 15.3604 4.52338 15.1465 5.78668 14.4592C10.1641 12.1779 10.7444 7.81094 10.7119 3.2118C10.7119 3.03083 10.2776 2.80233 10.0902 2.80233L1.51019 2.84803C1.00199 2.84986 0.475765 3.39825 0.00180214 3.2118L0 3.20997Z" fill="white"/>
<path d="M112.47 14.1463C114.146 13.0642 115.342 11.7115 116.123 9.87257C116.907 8.02451 117.211 5.75784 117.127 3.79462C117.119 3.62462 116.708 3.37967 116.537 3.37967L112.273 3.38515C111.836 4.6044 111.425 5.73408 110.603 6.69376C109.377 8.12322 107.721 9.13408 105.714 9.46677L107.588 7.41946C109.255 5.59881 109.61 3.07623 109.704 0.51709L112.713 0.522574L112.439 2.73989L119.123 2.75085C119.368 2.75085 119.808 2.95558 119.942 3.12376C120.493 3.82021 119.819 7.70827 119.469 8.9129C118.586 11.9473 116.453 14.2195 113.483 15.2833C111.45 16.0109 109.269 16.5538 107.026 16.3618C109.015 15.5959 110.776 15.2449 112.472 14.1482L112.47 14.1463Z" fill="white"/>
<path d="M177.891 16.3714C179.686 15.6475 181.301 15.3185 182.84 14.4411C186.855 12.1543 188.084 8.24796 188.014 3.81699C188.01 3.61409 187.598 3.37645 187.417 3.37645L183.076 3.38376C182.508 5.79301 180.995 7.71968 178.801 8.73419C178.093 9.0614 177.43 9.45258 176.542 9.42516C177.884 8.1657 178.971 7.02688 179.593 5.38903C180.193 3.81333 180.51 2.29979 180.553 0.508389L183.555 0.488281L183.294 2.7385L189.946 2.74764C190.25 2.74764 190.897 3.0657 190.937 3.35817C191.034 4.0729 190.998 4.74376 190.941 5.42194C190.541 10.1033 188.767 13.7592 184.134 15.3569C182.164 16.0369 180.097 16.5268 177.888 16.3714H177.891Z" fill="white"/>
<path d="M97.1103 10.7668C95.6632 12.6368 93.9547 14.0151 91.8715 14.8724C90.109 15.5981 88.2996 16.3384 86.2866 16.3201C88.3212 15.1923 90.1396 14.419 91.794 13.0243C94.6666 10.5986 96.4129 7.16022 96.7102 3.34528C96.7391 2.96872 96.503 2.60495 96.1191 2.60678L89.6026 2.63055C89.0439 2.63237 88.5681 3.02173 87.8797 3.11495L87.8653 1.94141L98.2709 1.95603C99.1972 1.95603 99.8045 2.76033 99.7288 3.60119C99.518 5.9099 98.7809 8.06506 97.5969 10.0502C99.6045 11.1397 101.48 12.4741 102.589 14.4611L100.311 16.5102C99.3684 14.3587 98.5196 12.4448 97.1103 10.7686V10.7668Z" fill="white"/>
<path d="M132.58 15.4592C130.792 16.1008 128.934 16.4609 127.103 16.2744C128.448 15.7388 129.614 15.5798 130.727 14.9821C131.917 14.3441 132.834 13.3954 133.267 12.0628C133.562 11.1488 133.786 10.1325 133.787 9.13809L133.814 0.943359L136.653 0.970779L136.64 8.73046C136.635 11.6607 135.552 14.3916 132.582 15.4592H132.58Z" fill="white"/>
<path d="M20.0939 15.3584C19.3785 15.3584 18.8487 15.7185 18.1314 15.872C18.0918 15.4808 18.0864 15.0878 18.1188 14.7222L22.9774 14.7058V5.63362L20.8094 5.65007C20.2273 5.65373 19.7461 5.92975 18.9892 6.13448L18.9676 4.96093L27.8305 4.93169C28.373 4.93169 28.8433 4.56792 29.5588 4.45459L29.602 5.62814L25.7959 5.63362V14.6656C28.0558 14.6272 28.4126 14.9324 30.6131 14.1811C30.6509 14.5358 30.6581 14.8995 30.6257 15.3437L20.0958 15.3547L20.0939 15.3584Z" fill="white"/>
<path d="M53.8499 15.9085C53.7489 15.5319 53.7327 15.0731 53.8264 14.7514L61.3035 14.7459L61.7378 6.30622C61.7649 5.78891 61.4225 5.4946 60.9683 5.41966L56.6792 5.44159C56.0845 5.44525 55.5493 5.74138 54.8158 5.94063C54.7239 5.62804 54.7113 5.22955 54.7744 4.75977L62.747 4.7817C63.203 4.7817 63.8139 5.05589 64.0752 5.29536C64.4158 5.60794 64.5654 6.21299 64.5402 6.7102L64.1419 14.7678L66.1423 14.2597C66.2522 14.5046 66.2648 14.9671 66.1855 15.3802L55.8701 15.3912C55.2015 15.3912 54.6825 15.6836 53.8517 15.9121L53.8499 15.9085Z" fill="white"/>
<path d="M166.965 15.3546C165.318 15.9761 163.735 16.4331 161.935 16.4258L165.172 14.9543C169.392 13.0349 170.066 8.08666 170.229 3.9043L172.959 4.23698C172.735 8.92935 171.731 13.5541 166.963 15.3546H166.965Z" fill="white"/>
<path d="M128.395 1.19189H125.579V10.9111H128.395V1.19189Z" fill="white"/>
<path d="M70.4619 9.36852C70.3988 8.88046 70.397 8.42895 70.4385 7.86046L82.9994 7.84949C83.504 7.84949 83.9293 7.70874 84.5618 7.63379V9.36669L70.4619 9.37035V9.36852Z" fill="white"/>
<path d="M143.34 14.5269C142.706 14.5269 142.27 14.9309 141.553 15.0095V13.7793L154.251 13.772C154.903 13.772 155.44 13.4704 156.17 13.2803C156.269 13.6532 156.294 14.0718 156.237 14.5087L143.34 14.5269Z" fill="white"/>
<path d="M168.441 8.18203C167.695 8.66826 166.999 9.00461 166.105 9.40676C165.622 7.40697 164.986 5.77095 163.917 3.94482C165.979 4.623 167.561 6.0287 168.441 8.18386V8.18203Z" fill="white"/>
<path d="M164.981 8.97354C164.195 9.46709 163.454 9.83451 162.602 10.1782C162.222 8.11806 161.449 6.53688 160.497 4.74365C162.602 5.47484 164.13 6.86408 164.981 8.97172V8.97354Z" fill="white"/>
<path d="M144.413 3.28122C143.797 3.28122 143.308 3.61757 142.613 3.78757C142.488 3.4695 142.468 3.01068 142.522 2.54456L153.305 2.52262L154.995 2.04004L155.037 3.2666L144.411 3.28122H144.413Z" fill="white"/>
<path d="M103.101 2.05645C102.825 2.32151 102.401 2.56828 102.025 2.71817C101.551 1.71097 101.145 1.00355 100.48 0C101.646 0.210215 102.506 0.952366 103.101 2.05645Z" fill="white"/>
<path d="M101.471 2.65947C101.147 2.88979 100.774 3.10183 100.374 3.29377C99.9449 2.25366 99.5881 1.56269 98.9231 0.524414C100.021 0.752909 100.909 1.46216 101.471 2.65947Z" fill="white"/>
<path d="M48.5227 14.3186L47.2017 17.0002C42.9685 14.5197 38.5857 12.9696 33.7397 11.5566C37.4702 10.9954 41.0655 11.6791 44.5111 12.6095C45.915 13.0957 47.0612 13.5564 48.5245 14.3186H48.5227Z" fill="white"/>
<path d="M47.2935 8.57872L45.9491 11.2896C42.644 9.02474 39.137 7.6812 35.1777 6.35044C38.4648 5.78012 44.2011 6.74528 47.2917 8.57872H47.2935Z" fill="white"/>
<path d="M48.2308 3.62306L46.8396 6.27542C43.2984 4.10929 39.5805 2.75478 35.5005 1.50263C38.9714 1.13155 45.2555 1.998 48.2308 3.62123V3.62306Z" fill="white"/>
</g>
<defs>
<clipPath id="clip0_487_2324">
<rect width="191" height="17" fill="white"/>
</clipPath>
</defs>
</svg>
