<svg width="235" height="21" viewBox="0 0 235 21" fill="none" xmlns="http://www.w3.org/2000/svg">
<g clip-path="url(#clip0_61_2220)">
<path d="M0 3.96515V2.63515H15.4615C15.8849 2.63966 16.7827 3.01902 16.8071 3.45934C16.9644 6.35418 16.7317 9.12708 15.9381 11.8593C15.098 14.7519 13.2049 16.9603 10.4761 18.1503C7.87595 19.2839 5.04079 19.8935 2.10587 19.7355C3.91692 18.9745 5.56393 18.7103 7.11784 17.8613C12.5022 15.0432 13.216 9.64869 13.1761 3.96741C13.1761 3.74386 12.6419 3.4616 12.4113 3.4616L1.8576 3.51805C1.23249 3.52031 0.58521 4.19773 0.00221671 3.96741L0 3.96515Z" fill="#3C3C3C"/>
<path d="M138.342 17.4752C140.404 16.1384 141.876 14.4674 142.836 12.1958C143.8 9.91289 144.175 7.11289 144.07 4.68773C144.062 4.47773 143.556 4.17515 143.346 4.17515L138.101 4.18193C137.562 5.68806 137.057 7.08354 136.046 8.26902C134.539 10.0348 132.501 11.2835 130.032 11.6945L132.337 9.16547C134.388 6.91644 134.825 3.80031 134.94 0.639023L138.642 0.645797L138.305 3.38483L146.527 3.39838C146.828 3.39838 147.369 3.65128 147.533 3.85902C148.211 4.71935 147.382 9.52225 146.952 11.0103C145.866 14.7587 143.241 17.5655 139.588 18.8797C137.088 19.7784 134.406 20.449 131.646 20.2119C134.093 19.2658 136.259 18.8322 138.345 17.4774L138.342 17.4752Z" fill="#3C3C3C"/>
<path d="M218.813 20.2232C221.021 19.329 223.007 18.9226 224.9 17.8387C229.839 15.0139 231.351 10.1884 231.264 4.71484C231.26 4.4642 230.752 4.17065 230.531 4.17065L225.191 4.17968C224.492 7.15581 222.63 9.53581 219.932 10.789C219.061 11.1932 218.246 11.6765 217.153 11.6426C218.804 10.0868 220.141 8.68 220.906 6.65678C221.644 4.71032 222.034 2.84065 222.087 0.627744L225.78 0.602905L225.459 3.38258L233.641 3.39387C234.015 3.39387 234.811 3.78678 234.86 4.14807C234.979 5.03097 234.935 5.85968 234.864 6.69742C234.372 12.4803 232.191 16.9965 226.492 18.97C224.069 19.81 221.526 20.4152 218.809 20.2232H218.813Z" fill="#3C3C3C"/>
<path d="M119.449 13.3C117.669 15.61 115.568 17.3126 113.006 18.3716C110.838 19.2681 108.612 20.1826 106.136 20.16C108.639 18.7668 110.875 17.8116 112.91 16.0887C116.444 13.0923 118.592 8.84485 118.957 4.13226C118.993 3.6671 118.702 3.21775 118.23 3.22001L110.215 3.24936C109.528 3.25162 108.942 3.73259 108.096 3.84775L108.078 2.39807L120.877 2.41614C122.016 2.41614 122.763 3.40968 122.67 4.44839C122.411 7.30033 121.504 9.96259 120.048 12.4148C122.517 13.7607 124.825 15.409 126.188 17.8636L123.386 20.3948C122.227 17.7371 121.183 15.3729 119.449 13.3023V13.3Z" fill="#3C3C3C"/>
<path d="M163.079 19.0965C160.88 19.889 158.594 20.3339 156.342 20.1035C157.996 19.4419 159.43 19.2455 160.8 18.5071C162.263 17.719 163.391 16.5471 163.923 14.901C164.287 13.7719 164.561 12.5165 164.564 11.2881L164.597 1.16516L168.088 1.19903L168.073 10.7845C168.066 14.4042 166.734 17.7777 163.081 19.0965H163.079Z" fill="#3C3C3C"/>
<path d="M24.7161 18.9723C23.8361 18.9723 23.1844 19.4171 22.3021 19.6068C22.2533 19.1235 22.2467 18.6381 22.2866 18.1864L28.2628 18.1661V6.95935L25.5961 6.97967C24.8801 6.98419 24.2883 7.32516 23.3573 7.57806L23.3307 6.12838L34.2324 6.09225C34.8997 6.09225 35.4782 5.6429 36.3582 5.5029L36.4114 6.95258L31.7298 6.95935V18.1164C34.5095 18.069 34.9484 18.4461 37.655 17.5181C37.7016 17.9561 37.7104 18.4055 37.6705 18.9542L24.7183 18.9677L24.7161 18.9723Z" fill="#3C3C3C"/>
<path d="M66.2374 19.6519C66.1132 19.1868 66.0933 18.62 66.2085 18.2226L75.4057 18.2158L75.9399 7.79031C75.9731 7.15128 75.552 6.78773 74.9933 6.69515L69.7176 6.72225C68.9861 6.72676 68.3277 7.09257 67.4255 7.3387C67.3125 6.95257 67.2969 6.46031 67.3745 5.87999L77.1812 5.90709C77.7421 5.90709 78.4935 6.2458 78.8149 6.5416C79.2339 6.92773 79.4179 7.67515 79.3869 8.28934L78.897 18.2429L81.3575 17.6152C81.4927 17.9177 81.5082 18.489 81.4107 18.9993L68.7223 19.0129C67.8999 19.0129 67.2615 19.3742 66.2396 19.6564L66.2374 19.6519Z" fill="#3C3C3C"/>
<path d="M205.373 18.9677C203.347 19.7355 201.401 20.3 199.187 20.291L203.168 18.4732C208.359 16.1023 209.188 9.98968 209.388 4.82323L212.746 5.23419C212.471 11.0306 211.237 16.7435 205.371 18.9677H205.373Z" fill="#3C3C3C"/>
<path d="M157.931 1.47226H154.467V13.4784H157.931V1.47226Z" fill="#3C3C3C"/>
<path d="M86.671 11.5726C86.5934 10.9697 86.5912 10.4119 86.6422 9.70967L102.093 9.69612C102.713 9.69612 103.236 9.52225 104.015 9.42967V11.5703L86.671 11.5748V11.5726Z" fill="#3C3C3C"/>
<path d="M176.314 17.9448C175.534 17.9448 174.998 18.4439 174.115 18.541V17.0213L189.734 17.0123C190.537 17.0123 191.197 16.6397 192.095 16.4048C192.217 16.8655 192.248 17.3826 192.177 17.9223L176.314 17.9448Z" fill="#3C3C3C"/>
<path d="M207.189 10.1071C206.271 10.7077 205.415 11.1232 204.316 11.62C203.722 9.14968 202.939 7.12872 201.625 4.87291C204.161 5.71065 206.107 7.4471 207.189 10.1094V10.1071Z" fill="#3C3C3C"/>
<path d="M202.933 11.0848C201.966 11.6945 201.055 12.1484 200.007 12.5729C199.539 10.0281 198.588 8.07484 197.417 5.85968C200.007 6.76291 201.886 8.47904 202.933 11.0826V11.0848Z" fill="#3C3C3C"/>
<path d="M177.633 4.05323C176.875 4.05323 176.275 4.46871 175.419 4.67871C175.266 4.28581 175.242 3.71904 175.308 3.14323L188.571 3.11613L190.65 2.52L190.701 4.03517L177.631 4.05323H177.633Z" fill="#3C3C3C"/>
<path d="M126.818 2.54032C126.478 2.86774 125.958 3.17258 125.494 3.35774C124.911 2.11355 124.412 1.23968 123.594 0C125.029 0.259677 126.086 1.17645 126.818 2.54032Z" fill="#3C3C3C"/>
<path d="M124.814 3.28548C124.415 3.56999 123.956 3.83193 123.464 4.06902C122.936 2.78419 122.497 1.93064 121.679 0.648056C123.029 0.930314 124.122 1.80644 124.814 3.28548Z" fill="#3C3C3C"/>
<path d="M59.6848 17.6874L58.06 21C52.8529 17.9358 47.4619 16.021 41.5012 14.2755C46.0898 13.5823 50.5121 14.4268 54.7504 15.5761C56.4773 16.1768 57.8871 16.7458 59.687 17.6874H59.6848Z" fill="#3C3C3C"/>
<path d="M58.1729 10.5971L56.5192 13.9458C52.4538 11.1481 48.1401 9.4884 43.27 7.84452C47.3133 7.14001 54.369 8.33227 58.1707 10.5971H58.1729Z" fill="#3C3C3C"/>
<path d="M59.3258 4.4755L57.6145 7.75195C53.2587 5.07614 48.6856 3.40292 43.667 1.85614C47.9364 1.39775 55.666 2.46808 59.3258 4.47324V4.4755Z" fill="#3C3C3C"/>
</g>
<defs>
<clipPath id="clip0_61_2220">
<rect width="234.938" height="21" fill="white"/>
</clipPath>
</defs>
</svg>
