<svg width="175" height="198" viewBox="0 0 175 198" fill="none" xmlns="http://www.w3.org/2000/svg">
<g clip-path="url(#clip0_475_1633)">
<path d="M142.713 8.98C119.802 2.94436 95.8873 -6.15605 75.9328 6.5864C58.3514 17.8129 48.1717 37.2621 34.3901 52.891C26.348 62.0055 16.9452 69.956 9.80719 79.7886C2.66445 89.6258 -2.0958 102.148 0.922323 113.905C3.37543 123.465 10.876 131.35 19.9445 135.306C29.013 139.263 39.4517 139.511 49.0428 137.076C57.5934 134.903 65.4847 130.716 73.8187 127.816C82.1527 124.915 91.4755 123.348 99.7106 126.516C108.727 129.979 114.815 138.479 118.916 147.199C123.017 155.924 125.706 165.334 130.758 173.543C143.622 194.424 172.612 203.871 195.161 194.104C217.705 184.338 230.549 156.267 222.672 133.058C219.63 124.098 213.976 116.04 212.177 106.752C207.869 84.5101 226.641 62.3762 221.646 40.28C218.354 25.7212 205.081 15.0579 190.8 10.5711C176.52 6.07951 160.732 13.7297 142.713 8.9847V8.98Z" fill="#E3FCFF"/>
</g>
<defs>
<clipPath id="clip0_475_1633">
<rect width="175" height="198" fill="white"/>
</clipPath>
</defs>
</svg>
