<svg width="92" height="92" viewBox="0 0 92 92" fill="none" xmlns="http://www.w3.org/2000/svg">
<path d="M58.9001 43.0813C58.2641 43.0813 57.7001 42.9133 57.2081 42.5773C56.7161 42.2413 56.3321 41.7553 56.0561 41.1193C55.7801 40.4713 55.6421 39.7033 55.6421 38.8153C55.6421 37.9273 55.7801 37.1713 56.0561 36.5473C56.3321 35.9113 56.7161 35.4313 57.2081 35.1073C57.7001 34.7713 58.2641 34.6033 58.9001 34.6033C59.8601 34.6033 60.6401 34.9693 61.2401 35.7013C61.8521 36.4333 62.1581 37.4713 62.1581 38.8153C62.1581 39.7033 62.0201 40.4713 61.7441 41.1193C61.4681 41.7553 61.0841 42.2413 60.5921 42.5773C60.1121 42.9133 59.5481 43.0813 58.9001 43.0813ZM58.9001 41.5693C59.2961 41.5693 59.6261 41.3593 59.8901 40.9393C60.1661 40.5073 60.3041 39.7993 60.3041 38.8153C60.3041 37.8313 60.1661 37.1353 59.8901 36.7273C59.6261 36.3073 59.2961 36.0973 58.9001 36.0973C58.5161 36.0973 58.1861 36.3073 57.9101 36.7273C57.6461 37.1353 57.5141 37.8313 57.5141 38.8153C57.5141 39.7993 57.6461 40.5073 57.9101 40.9393C58.1861 41.3593 58.5161 41.5693 58.9001 41.5693ZM68.6381 48.4633C68.0021 48.4633 67.4381 48.2953 66.9461 47.9593C66.4541 47.6233 66.0641 47.1373 65.7761 46.5013C65.5001 45.8653 65.3621 45.1033 65.3621 44.2153C65.3621 43.3153 65.5001 42.5533 65.7761 41.9293C66.0641 41.2933 66.4541 40.8133 66.9461 40.4893C67.4381 40.1533 68.0021 39.9853 68.6381 39.9853C69.2741 39.9853 69.8381 40.1533 70.3301 40.4893C70.8221 40.8133 71.2061 41.2933 71.4821 41.9293C71.7581 42.5533 71.8961 43.3153 71.8961 44.2153C71.8961 45.1033 71.7581 45.8653 71.4821 46.5013C71.2061 47.1373 70.8221 47.6233 70.3301 47.9593C69.8381 48.2953 69.2741 48.4633 68.6381 48.4633ZM68.6381 46.9693C69.0341 46.9693 69.3641 46.7533 69.6281 46.3213C69.8921 45.8893 70.0241 45.1873 70.0241 44.2153C70.0241 43.2193 69.8921 42.5173 69.6281 42.1093C69.3641 41.7013 69.0341 41.4973 68.6381 41.4973C68.2421 41.4973 67.9061 41.7013 67.6301 42.1093C67.3661 42.5173 67.2341 43.2193 67.2341 44.2153C67.2341 45.1873 67.3661 45.8893 67.6301 46.3213C67.9061 46.7533 68.2421 46.9693 68.6381 46.9693ZM59.3501 48.4633L66.6221 34.6033H68.2061L60.9161 48.4633H59.3501Z" fill="#2AC854"/>
<path d="M44.5213 48.6915C42.9152 48.6915 41.4834 48.396 40.2258 47.8051C38.9758 47.2142 37.9834 46.3998 37.2486 45.3619C36.5137 44.3241 36.1311 43.1347 36.1008 41.7938H40.8736C40.9266 42.6953 41.3054 43.4263 42.0099 43.9869C42.7145 44.5476 43.5516 44.8279 44.5213 44.8279C45.294 44.8279 45.9758 44.6574 46.5667 44.3165C47.1652 43.968 47.6311 43.487 47.9645 42.8733C48.3054 42.2521 48.4758 41.54 48.4758 40.7369C48.4758 39.9188 48.3016 39.1991 47.9531 38.5779C47.6122 37.9566 47.1387 37.4718 46.5326 37.1233C45.9266 36.7748 45.2334 36.5968 44.4531 36.5892C43.7713 36.5892 43.1084 36.7294 42.4645 37.0097C41.8281 37.29 41.3319 37.6726 40.9758 38.1574L36.6008 37.3733L37.7031 25.1006H51.9304V29.1233H41.7599L41.1576 34.9529H41.294C41.7031 34.3771 42.3205 33.8998 43.1463 33.521C43.972 33.1423 44.8963 32.9529 45.919 32.9529C47.3205 32.9529 48.5705 33.2824 49.669 33.9415C50.7675 34.6006 51.6349 35.5059 52.2713 36.6574C52.9076 37.8013 53.222 39.1195 53.2145 40.6119C53.222 42.1801 52.8584 43.5741 52.1236 44.7938C51.3963 46.0059 50.3773 46.9604 49.0667 47.6574C47.7637 48.3468 46.2486 48.6915 44.5213 48.6915Z" fill="#2AC854"/>
<path d="M30.4901 25.1006V48.3733H25.5697V29.771H25.4333L20.1038 33.1119V28.7483L25.8651 25.1006H30.4901Z" fill="#2AC854"/>
<path d="M54.6533 66.6405V52.932H63.0893V55.226H57.3913V58.7965H62.2568V61.0905H57.3913V66.6405H54.6533Z" fill="#2AC854"/>
<path d="M43.8315 66.6405V52.932H52.2675V55.226H46.5695V58.7965H51.435V61.0905H46.5695V66.6405H43.8315Z" fill="#2AC854"/>
<path d="M35.0341 66.8995C33.8255 66.8995 32.7586 66.6159 31.8336 66.0485C30.921 65.4689 30.2056 64.6425 29.6876 63.5695C29.1696 62.4965 28.9106 61.2139 28.9106 59.7215C28.9106 58.2415 29.1696 56.9774 29.6876 55.929C30.2056 54.8807 30.921 54.079 31.8336 53.524C32.7586 52.969 33.8255 52.6915 35.0341 52.6915C36.2551 52.6915 37.322 52.9752 38.2346 53.5425C39.1473 54.0975 39.8626 54.8992 40.3806 55.9475C40.8986 56.9835 41.1576 58.2415 41.1576 59.7215C41.1576 61.2139 40.8986 62.4965 40.3806 63.5695C39.8626 64.6425 39.1473 65.4689 38.2346 66.0485C37.322 66.6159 36.2551 66.8995 35.0341 66.8995ZM35.0341 64.5315C35.7125 64.5315 36.2983 64.3342 36.7916 63.9395C37.2973 63.5449 37.6858 62.9899 37.9571 62.2745C38.2285 61.5469 38.3641 60.6959 38.3641 59.7215C38.3641 58.7472 38.2285 57.9147 37.9571 57.224C37.6858 56.521 37.2973 55.9845 36.7916 55.6145C36.2983 55.2322 35.7125 55.041 35.0341 55.041C34.3558 55.041 33.7638 55.2322 33.2581 55.6145C32.7648 55.9845 32.3825 56.521 32.1111 57.224C31.8521 57.9147 31.7226 58.7472 31.7226 59.7215C31.7226 60.6959 31.8521 61.5469 32.1111 62.2745C32.3825 62.9899 32.7648 63.5449 33.2581 63.9395C33.7638 64.3342 34.3558 64.5315 35.0341 64.5315Z" fill="#2AC854"/>
</svg>
