<svg width="92" height="92" viewBox="0 0 92 92" fill="none" xmlns="http://www.w3.org/2000/svg">
<path d="M60.5508 62.6504V39.7988H31.4492V62.6504H60.5508ZM60.5508 29.3496C61.6576 29.3496 62.6341 29.7728 63.4805 30.6191C64.3268 31.4655 64.75 32.4421 64.75 33.5488V62.6504C64.75 63.7572 64.3268 64.7337 63.4805 65.5801C62.6341 66.4264 61.6576 66.8496 60.5508 66.8496H31.4492C30.2773 66.8496 29.2682 66.459 28.4219 65.6777C27.6406 64.8314 27.25 63.8223 27.25 62.6504V33.5488C27.25 32.4421 27.6406 31.4655 28.4219 30.6191C29.2682 29.7728 30.2773 29.3496 31.4492 29.3496H33.5V25.1504H37.6992V29.3496H54.3008V25.1504H58.5V29.3496H60.5508ZM55.4727 46.1465L43.0703 58.5488L36.4297 51.9082L38.6758 49.6621L43.0703 54.0566L53.2266 43.9004L55.4727 46.1465Z" fill="#2AC854"/>
</svg>
