<svg width="92" height="92" viewBox="0 0 92 92" fill="none" xmlns="http://www.w3.org/2000/svg">
<path d="M17.3864 51.5V47.9545L25.6705 40.2841C26.375 39.6023 26.9659 38.9886 27.4432 38.4432C27.928 37.8977 28.2955 37.3636 28.5455 36.8409C28.7955 36.3106 28.9205 35.7386 28.9205 35.125C28.9205 34.4432 28.7652 33.8561 28.4545 33.3636C28.1439 32.8636 27.7197 32.4811 27.1818 32.2159C26.6439 31.9432 26.0341 31.8068 25.3523 31.8068C24.6402 31.8068 24.0189 31.9508 23.4886 32.2386C22.9583 32.5265 22.5492 32.9394 22.2614 33.4773C21.9735 34.0152 21.8295 34.6553 21.8295 35.3977H17.1591C17.1591 33.875 17.5038 32.553 18.1932 31.4318C18.8826 30.3106 19.8485 29.4432 21.0909 28.8295C22.3333 28.2159 23.7652 27.9091 25.3864 27.9091C27.053 27.9091 28.5038 28.2045 29.7386 28.7955C30.9811 29.3788 31.947 30.1894 32.6364 31.2273C33.3258 32.2652 33.6705 33.4545 33.6705 34.7955C33.6705 35.6742 33.4962 36.5417 33.1477 37.3977C32.8068 38.2538 32.197 39.2045 31.3182 40.25C30.4394 41.2879 29.2008 42.5341 27.6023 43.9886L24.2045 47.3182V47.4773H33.9773V51.5H17.3864ZM46.6676 52.0114C44.7131 52.0038 43.0313 51.5227 41.6222 50.5682C40.2206 49.6136 39.1411 48.2311 38.3835 46.4205C37.6335 44.6098 37.2623 42.4318 37.2699 39.8864C37.2699 37.3485 37.6449 35.1856 38.3949 33.3977C39.1525 31.6098 40.232 30.25 41.6335 29.3182C43.0426 28.3788 44.7206 27.9091 46.6676 27.9091C48.6146 27.9091 50.2888 28.3788 51.6903 29.3182C53.0994 30.2576 54.1828 31.6212 54.9403 33.4091C55.6979 35.1894 56.0729 37.3485 56.0653 39.8864C56.0653 42.4394 55.6866 44.6212 54.929 46.4318C54.179 48.2424 53.1032 49.625 51.7017 50.5795C50.3002 51.5341 48.6222 52.0114 46.6676 52.0114ZM46.6676 47.9318C48.0009 47.9318 49.0653 47.2614 49.8608 45.9205C50.6563 44.5795 51.0502 42.5682 51.0426 39.8864C51.0426 38.1212 50.8608 36.6515 50.4972 35.4773C50.1411 34.303 49.6335 33.4205 48.9744 32.8295C48.3229 32.2386 47.554 31.9432 46.6676 31.9432C45.3419 31.9432 44.2813 32.6061 43.4858 33.9318C42.6903 35.2576 42.2888 37.2424 42.2812 39.8864C42.2812 41.6742 42.4593 43.1667 42.8153 44.3636C43.179 45.553 43.6903 46.447 44.3494 47.0455C45.0085 47.6364 45.7812 47.9318 46.6676 47.9318ZM61.8275 46.208C61.1915 46.208 60.6275 46.04 60.1355 45.704C59.6435 45.368 59.2595 44.882 58.9835 44.246C58.7075 43.598 58.5695 42.83 58.5695 41.942C58.5695 41.054 58.7075 40.298 58.9835 39.674C59.2595 39.038 59.6435 38.558 60.1355 38.234C60.6275 37.898 61.1915 37.73 61.8275 37.73C62.7875 37.73 63.5675 38.096 64.1675 38.828C64.7795 39.56 65.0855 40.598 65.0855 41.942C65.0855 42.83 64.9475 43.598 64.6715 44.246C64.3955 44.882 64.0115 45.368 63.5195 45.704C63.0395 46.04 62.4755 46.208 61.8275 46.208ZM61.8275 44.696C62.2235 44.696 62.5535 44.486 62.8175 44.066C63.0935 43.634 63.2315 42.926 63.2315 41.942C63.2315 40.958 63.0935 40.262 62.8175 39.854C62.5535 39.434 62.2235 39.224 61.8275 39.224C61.4435 39.224 61.1135 39.434 60.8375 39.854C60.5735 40.262 60.4415 40.958 60.4415 41.942C60.4415 42.926 60.5735 43.634 60.8375 44.066C61.1135 44.486 61.4435 44.696 61.8275 44.696ZM71.5655 51.59C70.9295 51.59 70.3655 51.422 69.8735 51.086C69.3815 50.75 68.9915 50.264 68.7035 49.628C68.4275 48.992 68.2895 48.23 68.2895 47.342C68.2895 46.442 68.4275 45.68 68.7035 45.056C68.9915 44.42 69.3815 43.94 69.8735 43.616C70.3655 43.28 70.9295 43.112 71.5655 43.112C72.2015 43.112 72.7655 43.28 73.2575 43.616C73.7495 43.94 74.1335 44.42 74.4095 45.056C74.6855 45.68 74.8235 46.442 74.8235 47.342C74.8235 48.23 74.6855 48.992 74.4095 49.628C74.1335 50.264 73.7495 50.75 73.2575 51.086C72.7655 51.422 72.2015 51.59 71.5655 51.59ZM71.5655 50.096C71.9615 50.096 72.2915 49.88 72.5555 49.448C72.8195 49.016 72.9515 48.314 72.9515 47.342C72.9515 46.346 72.8195 45.644 72.5555 45.236C72.2915 44.828 71.9615 44.624 71.5655 44.624C71.1695 44.624 70.8335 44.828 70.5575 45.236C70.2935 45.644 70.1615 46.346 70.1615 47.342C70.1615 48.314 70.2935 49.016 70.5575 49.448C70.8335 49.88 71.1695 50.096 71.5655 50.096ZM62.2775 51.59L69.5495 37.73H71.1335L63.8435 51.59H62.2775Z" fill="#2AC854"/>
<path d="M35.1225 71.759C33.9138 71.759 32.847 71.4753 31.922 70.908C31.0093 70.3283 30.294 69.502 29.776 68.429C29.258 67.356 28.999 66.0733 28.999 64.581C28.999 63.101 29.258 61.8368 29.776 60.7885C30.294 59.7402 31.0093 58.9385 31.922 58.3835C32.847 57.8285 33.9138 57.551 35.1225 57.551C36.3435 57.551 37.4103 57.8347 38.323 58.402C39.2357 58.957 39.951 59.7587 40.469 60.807C40.987 61.843 41.246 63.101 41.246 64.581C41.246 66.0733 40.987 67.356 40.469 68.429C39.951 69.502 39.2357 70.3283 38.323 70.908C37.4103 71.4753 36.3435 71.759 35.1225 71.759ZM35.1225 69.391C35.8008 69.391 36.3867 69.1937 36.88 68.799C37.3857 68.4043 37.7742 67.8493 38.0455 67.134C38.3168 66.4063 38.4525 65.5553 38.4525 64.581C38.4525 63.6067 38.3168 62.7742 38.0455 62.0835C37.7742 61.3805 37.3857 60.844 36.88 60.474C36.3867 60.0917 35.8008 59.9005 35.1225 59.9005C34.4442 59.9005 33.8522 60.0917 33.3465 60.474C32.8532 60.844 32.4708 61.3805 32.1995 62.0835C31.9405 62.7742 31.811 63.6067 31.811 64.581C31.811 65.5553 31.9405 66.4063 32.1995 67.134C32.4708 67.8493 32.8532 68.4043 33.3465 68.799C33.8522 69.1937 34.4442 69.391 35.1225 69.391ZM43.9198 71.5V57.7915H52.3558V60.0855H46.6578V63.656H51.5233V65.95H46.6578V71.5H43.9198ZM54.7416 71.5V57.7915H63.1776V60.0855H57.4796V63.656H62.3451V65.95H57.4796V71.5H54.7416Z" fill="#2AC854"/>
</svg>
