<svg width="92" height="92" viewBox="0 0 92 92" fill="none" xmlns="http://www.w3.org/2000/svg">
<path d="M55.0234 57.6719C55.5391 58.1875 56.1979 58.4453 57 58.4453C57.8021 58.4453 58.4609 58.1875 58.9766 57.6719C59.4922 57.099 59.75 56.4401 59.75 55.6953C59.75 54.9505 59.4922 54.3203 58.9766 53.8047C58.4609 53.2318 57.8021 52.9453 57 52.9453C56.1979 52.9453 55.5391 53.2318 55.0234 53.8047C54.5078 54.3203 54.25 54.9505 54.25 55.6953C54.25 56.4401 54.5078 57.099 55.0234 57.6719ZM59.75 41.9453H55.1953V46.5H63.3594L59.75 41.9453ZM33.0234 57.6719C33.5391 58.1875 34.1979 58.4453 35 58.4453C35.8021 58.4453 36.4609 58.1875 36.9766 57.6719C37.4922 57.099 37.75 56.4401 37.75 55.6953C37.75 54.9505 37.4922 54.3203 36.9766 53.8047C36.4609 53.2318 35.8021 52.9453 35 52.9453C34.1979 52.9453 33.5391 53.2318 33.0234 53.8047C32.5078 54.3203 32.25 54.9505 32.25 55.6953C32.25 56.4401 32.5078 57.099 33.0234 57.6719ZM60.6953 39.1953L66.1953 46.5V55.6953H62.5C62.5 57.1849 61.9557 58.474 60.8672 59.5625C59.7786 60.651 58.4896 61.1953 57 61.1953C55.5104 61.1953 54.2214 60.651 53.1328 59.5625C52.0443 58.474 51.5 57.1849 51.5 55.6953H40.5C40.5 57.1849 39.9557 58.474 38.8672 59.5625C37.7786 60.651 36.4896 61.1953 35 61.1953C33.5104 61.1953 32.2214 60.651 31.1328 59.5625C30.0443 58.474 29.5 57.1849 29.5 55.6953H25.8047V35.5C25.8047 34.526 26.1771 33.6667 26.9219 32.9219C27.6667 32.1771 28.526 31.8047 29.5 31.8047H55.1953V39.1953H60.6953Z" fill="#2AC854"/>
</svg>
