<svg width="271" height="191" viewBox="0 0 271 191" fill="none" xmlns="http://www.w3.org/2000/svg">
<g clip-path="url(#clip0_351_1349)">
<path d="M162.968 130.597C162.428 130.597 161.908 130.337 161.598 129.887L147.588 110.137C147.228 109.627 147.178 108.947 147.468 108.397C147.758 107.837 148.328 107.487 148.958 107.487H154.548V84.1966C154.548 83.2666 155.298 82.5166 156.228 82.5166C157.158 82.5166 157.908 83.2666 157.908 84.1966V109.167C157.908 110.097 157.158 110.847 156.228 110.847H152.208L162.968 126.017L173.728 110.847H169.708C168.778 110.847 168.028 110.097 168.028 109.167V93.1466C168.028 92.2166 168.778 91.4666 169.708 91.4666C170.638 91.4666 171.388 92.2166 171.388 93.1466V107.487H176.978C177.608 107.487 178.178 107.837 178.468 108.397C178.758 108.957 178.708 109.627 178.348 110.137L164.338 129.887C164.028 130.327 163.508 130.597 162.968 130.597Z" fill="#3B3978"/>
<path d="M186.198 175.357C185.658 175.357 185.138 175.097 184.828 174.647L170.818 154.897C170.458 154.387 170.408 153.717 170.698 153.157C170.988 152.597 171.558 152.247 172.188 152.247H177.778V128.957C177.778 128.027 178.528 127.277 179.458 127.277C180.388 127.277 181.138 128.027 181.138 128.957V153.927C181.138 154.857 180.388 155.607 179.458 155.607H175.438L186.198 170.777L196.958 155.607H192.938C192.008 155.607 191.258 154.857 191.258 153.927V137.907C191.258 136.977 192.008 136.227 192.938 136.227C193.868 136.227 194.618 136.977 194.618 137.907V152.247H200.208C200.838 152.247 201.408 152.597 201.698 153.157C201.988 153.717 201.938 154.387 201.578 154.897L187.568 174.647C187.258 175.087 186.738 175.357 186.198 175.357Z" fill="#3B3978"/>
<path d="M103.728 135.237C74.6583 135.237 69.4483 126.147 68.9483 125.107C68.5483 124.267 68.8983 123.267 69.7383 122.867C70.5783 122.467 71.5783 122.817 71.9783 123.657C72.0083 123.707 76.7383 131.877 103.738 131.877C130.738 131.877 135.468 123.707 135.508 123.617C135.908 122.777 136.908 122.447 137.738 122.847C138.578 123.247 138.918 124.267 138.518 125.107C138.018 126.147 132.808 135.237 103.738 135.237H103.728Z" fill="#3B3978"/>
<path d="M103.728 149.167C74.6583 149.167 69.4483 140.077 68.9483 139.047C68.5483 138.207 68.8983 137.207 69.7383 136.807C70.5783 136.407 71.5783 136.757 71.9783 137.597C72.0083 137.647 76.7383 145.817 103.738 145.817C105.418 145.817 107.068 145.787 108.638 145.717C109.558 145.687 110.348 146.397 110.388 147.327C110.428 148.257 109.708 149.037 108.778 149.077C107.158 149.137 105.468 149.177 103.748 149.177L103.728 149.167Z" fill="#3B3978"/>
<path d="M103.728 163.107C74.6583 163.107 69.4483 154.017 68.9483 152.977C68.5483 152.137 68.8983 151.137 69.7383 150.737C70.5783 150.337 71.5783 150.687 71.9783 151.527C72.0083 151.577 76.7383 159.747 103.738 159.747C104.668 159.747 105.418 160.497 105.418 161.427C105.418 162.357 104.668 163.107 103.738 163.107H103.728Z" fill="#3B3978"/>
<path d="M103.728 177.047C74.6583 177.047 69.4483 167.957 68.9483 166.917C68.5483 166.077 68.8983 165.077 69.7383 164.677C70.5783 164.277 71.5783 164.627 71.9783 165.467C72.0083 165.517 76.7383 173.687 103.738 173.687C105.308 173.687 106.858 173.657 108.328 173.607C109.238 173.577 110.038 174.297 110.068 175.227C110.098 176.157 109.378 176.937 108.448 176.967C106.938 177.027 105.348 177.057 103.728 177.057V177.047Z" fill="#3B3978"/>
<path d="M103.728 121.757C86.3583 121.757 68.7783 117.917 68.7783 110.567C68.7783 103.217 86.3583 99.3767 103.728 99.3767C121.098 99.3767 138.678 103.227 138.678 110.567C138.678 117.907 121.098 121.757 103.728 121.757ZM103.728 102.727C84.4483 102.727 72.1383 107.367 72.1383 110.557C72.1383 113.747 84.4483 118.387 103.728 118.387C123.008 118.387 135.318 113.747 135.318 110.557C135.318 107.367 123.008 102.727 103.728 102.727Z" fill="#3B3978"/>
<path d="M136.998 132.367C136.068 132.367 135.318 131.617 135.318 130.687V110.567C135.318 109.637 136.068 108.887 136.998 108.887C137.928 108.887 138.678 109.637 138.678 110.567V130.687C138.678 131.617 137.928 132.367 136.998 132.367Z" fill="#3B3978"/>
<path d="M103.728 190.667C78.5683 190.667 71.5283 183.817 69.6683 180.867C69.0883 179.947 68.7783 178.887 68.7783 177.797V110.567C68.7783 109.637 69.5283 108.887 70.4583 108.887C71.3883 108.887 72.1383 109.637 72.1383 110.567V177.797C72.1383 178.247 72.2683 178.687 72.5083 179.077C73.7283 181.007 79.5783 187.307 103.728 187.307C108.888 187.307 113.578 187.007 117.668 186.417C118.588 186.287 119.438 186.927 119.568 187.837C119.698 188.757 119.058 189.607 118.148 189.737C113.908 190.347 109.058 190.657 103.728 190.657V190.667Z" fill="#3B3978"/>
<path d="M137.238 190.667C122.048 190.667 109.698 178.307 109.698 163.127C109.698 147.947 122.058 135.587 137.238 135.587C152.418 135.587 164.778 147.947 164.778 163.127C164.778 178.307 152.418 190.667 137.238 190.667ZM137.238 138.937C123.898 138.937 113.058 149.787 113.058 163.117C113.058 176.447 123.908 187.297 137.238 187.297C150.568 187.297 161.418 176.447 161.418 163.117C161.418 149.787 150.568 138.937 137.238 138.937Z" fill="#3B3978"/>
<path d="M137.238 183.027C126.268 183.027 117.338 174.097 117.338 163.127C117.338 162.197 118.088 161.447 119.018 161.447C119.948 161.447 120.698 162.197 120.698 163.127C120.698 172.247 128.118 179.667 137.238 179.667C138.168 179.667 138.918 180.417 138.918 181.347C138.918 182.277 138.168 183.027 137.238 183.027Z" fill="#3B3978"/>
<path d="M155.458 164.807C154.528 164.807 153.778 164.057 153.778 163.127C153.778 154.007 146.358 146.587 137.238 146.587C136.308 146.587 135.558 145.837 135.558 144.907C135.558 143.977 136.308 143.227 137.238 143.227C148.208 143.227 157.138 152.157 157.138 163.127C157.138 164.057 156.388 164.807 155.458 164.807Z" fill="#3B3978"/>
</g>
<defs>
<clipPath id="clip0_351_1349">
<rect width="133.11" height="108.15" fill="white" transform="translate(68.7783 82.5166)"/>
</clipPath>
</defs>
</svg>
