<svg width="32" height="32" viewBox="0 0 32 32" fill="none" xmlns="http://www.w3.org/2000/svg">
<rect width="32" height="32" rx="16" fill="white"/>
<mask id="mask0_2011_752" style="mask-type:alpha" maskUnits="userSpaceOnUse" x="4" y="4" width="24" height="24">
<rect x="4" y="4" width="24" height="24" fill="#D9D9D9"/>
</mask>
<g mask="url(#mask0_2011_752)">
<path d="M8.05 25C7.75 25 7.5 24.9 7.3 24.7C7.1 24.5 7 24.25 7 23.95V19.9C7 19.6833 7.075 19.4875 7.225 19.3125C7.375 19.1375 7.56667 19.0167 7.8 18.95L11.25 18.25C11.4833 18.2167 11.7208 18.2375 11.9625 18.3125C12.2042 18.3875 12.4 18.5 12.55 18.65L14.9 21C15.5333 20.6333 16.1333 20.2292 16.7 19.7875C17.2667 19.3458 17.8083 18.8667 18.325 18.35C18.875 17.8167 19.3792 17.2625 19.8375 16.6875C20.2958 16.1125 20.6917 15.5167 21.025 14.9L18.6 12.45C18.4667 12.3167 18.375 12.1583 18.325 11.975C18.275 11.7917 18.2667 11.5667 18.3 11.3L18.95 7.8C18.9833 7.58333 19.0917 7.39583 19.275 7.2375C19.4583 7.07917 19.6667 7 19.9 7H23.95C24.25 7 24.5 7.1 24.7 7.3C24.9 7.5 25 7.75 25 8.05C25 10.1333 24.5458 12.1917 23.6375 14.225C22.7292 16.2583 21.4417 18.1083 19.775 19.775C18.1083 21.4417 16.2583 22.7292 14.225 23.6375C12.1917 24.5458 10.1333 25 8.05 25ZM21.95 13C22.2333 12.35 22.45 11.6917 22.6 11.025C22.75 10.3583 22.8667 9.68333 22.95 9H20.75L20.3 11.35L21.95 13ZM13 21.9L11.35 20.25L9 20.75V22.95C9.68333 22.9 10.3583 22.7833 11.025 22.6C11.6917 22.4167 12.35 22.1833 13 21.9Z" fill="#E06A3F"/>
</g>
</svg>
