<svg width="54" height="43" viewBox="0 0 54 43" fill="none" xmlns="http://www.w3.org/2000/svg">
<g clip-path="url(#clip0_479_1993)">
<path d="M37.4221 17.283L37.4835 42H47V17.283H37.4221ZM41.4355 33.9782H39.3989V31.8892H41.4355V33.9782ZM41.4355 30.1492H39.3989V28.0602H41.4355V30.1492ZM41.4355 26.3202H39.3989V24.2312H41.4355V26.3202ZM41.4355 22.4617H39.3989V20.3727H41.4355V22.4617ZM45.1521 33.9782H43.1154V31.8892H45.1521V33.9782ZM45.1521 30.1492H43.1154V28.0602H45.1521V30.1492ZM45.1521 26.3202H43.1154V24.2312H45.1521V26.3202ZM45.1521 22.4617H43.1154V20.3727H45.1521V22.4617Z" fill="white"/>
<path d="M9 17.283V42H18.5165L18.5779 17.283H9ZM13.1024 33.9782H11.0658V31.8892H13.1024V33.9782ZM13.1024 30.1492H11.0658V28.0602H13.1024V30.1492ZM13.1024 26.3202H11.0658V24.2312H13.1024V26.3202ZM13.1024 22.4617H11.0658V20.3727H13.1024V22.4617ZM16.8182 33.9782H14.7815V31.8892H16.8182V33.9782ZM16.8182 30.1492H14.7815V28.0602H16.8182V30.1492ZM16.8182 26.3202H14.7815V24.2312H16.8182V26.3202ZM16.8182 22.4617H14.7815V20.3727H16.8182V22.4617Z" fill="white"/>
<path d="M20.4234 5V42H25.7569V37.3425H30.8266V42H35.3287V5H20.4226H20.4234ZM26.8278 29.9917H23.7786V26.8647H26.8278V29.9917ZM26.8278 24.2598H23.7786V21.1329H26.8278V24.2598ZM26.8278 18.5272H23.7786V15.4002H26.8278V18.5272ZM26.8278 12.7519H23.7786V9.6249H26.8278V12.7519ZM32.3907 29.9917H29.3415V26.8647H32.3907V29.9917ZM32.3907 24.2598H29.3415V21.1329H32.3907V24.2598ZM32.3907 18.5272H29.3415V15.4002H32.3907V18.5272ZM32.3907 12.7519H29.3415V9.6249H32.3907V12.7519Z" fill="white"/>
</g>
<defs>
<clipPath id="clip0_479_1993">
<rect width="38" height="37" fill="white" transform="translate(9 5)"/>
</clipPath>
</defs>
</svg>
