<svg width="54" height="43" viewBox="0 0 54 43" fill="none" xmlns="http://www.w3.org/2000/svg">
<g clip-path="url(#clip0_479_1992)">
<path d="M46.7176 7H7.28459C6.66852 7 6.16797 7.49491 6.16797 8.10402V35.0312H47.8342V8.10402C47.8342 7.49491 47.3337 7 46.7176 7ZM44.6601 31.8929H9.33975V10.136H44.6601V31.8929Z" fill="white"/>
<path d="M33.1258 35.0288V35.0407C33.1258 36.1328 32.3822 37.0156 31.4653 37.0156H22.5347C21.6178 37.0156 20.8742 36.1305 20.8742 35.0407V35.0288H2V36.5754C2 38.16 3.60514 38.9976 5.43168 38.9976H48.5659C50.3925 38.9976 51.9976 38.16 51.9976 36.5754V35.0288H33.1234H33.1258Z" fill="white"/>
</g>
<defs>
<clipPath id="clip0_479_1992">
<rect width="50" height="32" fill="white" transform="translate(2 7)"/>
</clipPath>
</defs>
</svg>
