<svg width="92" height="92" viewBox="0 0 92 92" fill="none" xmlns="http://www.w3.org/2000/svg">
<g clip-path="url(#clip0_592_2488)">
<path d="M46 23.5C33.574 23.5 23.5 33.574 23.5 46C23.5 58.426 33.574 68.5 46 68.5C58.426 68.5 68.5 58.426 68.5 46C68.5 33.574 58.426 23.5 46 23.5ZM46 63.4C36.406 63.4 28.6 55.594 28.6 46C28.6 36.406 36.406 28.6 46 28.6C55.594 28.6 63.4 36.406 63.4 46C63.4 55.594 55.594 63.4 46 63.4Z" fill="#2AC854"/>
<path d="M48.1358 56.92H43.6958V51.85H39.1718V49.672H43.6958V47.548H39.1718V45.37H42.7118L38.1338 36.214H43.1198L44.9438 41.608C45.3818 42.886 45.7598 44.278 46.0598 45.262H46.1138C46.4378 44.308 46.7978 42.862 47.2298 41.584L49.0838 36.214H53.8538L49.1678 45.37H52.7078V47.548H48.1298V49.672H52.7078V51.85H48.1298V56.92H48.1358Z" fill="#2AC854"/>
</g>
<defs>
<clipPath id="clip0_592_2488">
<rect width="45" height="45" fill="white" transform="translate(23.5 23.5)"/>
</clipPath>
</defs>
</svg>
