<svg width="92" height="92" viewBox="0 0 92 92" fill="none" xmlns="http://www.w3.org/2000/svg">
<g clip-path="url(#clip0_592_2467)">
<path d="M45 68C32.8677 68 23 58.1323 23 46C23 33.8677 32.8677 24 45 24C57.1323 24 67 33.8677 67 46C67 58.1323 57.1323 68 45 68ZM45 27.0917C34.5749 27.0917 26.0917 35.5749 26.0917 46C26.0917 56.4251 34.5749 64.9083 45 64.9083C55.4251 64.9083 63.9083 56.4251 63.9083 46C63.9083 35.5749 55.4251 27.0917 45 27.0917Z" fill="#2AC854"/>
<path d="M45.0005 30.8229C44.361 30.8229 43.8389 30.3067 43.8389 29.6613V25.5488C43.8389 24.9093 44.3551 24.3872 45.0005 24.3872C45.6458 24.3872 46.1621 24.9035 46.1621 25.5488V29.6672C46.1621 30.3067 45.6458 30.8288 45.0005 30.8288V30.8229Z" fill="#2AC854"/>
<path d="M36.8331 33.0112C36.4342 33.0112 36.0411 32.8059 35.8299 32.4304L33.7707 28.8635C33.4481 28.3062 33.6417 27.6022 34.1931 27.2795C34.7505 26.9568 35.4545 27.1504 35.7771 27.7019L37.8363 31.2688C38.159 31.8262 37.9654 32.5302 37.4139 32.8529C37.2321 32.9585 37.0326 33.0112 36.8331 33.0112Z" fill="#2AC854"/>
<path d="M30.85 38.9893C30.6505 38.9893 30.451 38.9365 30.2692 38.8309L26.7022 36.7717C26.1449 36.449 25.9572 35.745 26.2798 35.1877C26.6025 34.6304 27.3065 34.4426 27.8638 34.7653L31.4308 36.8245C31.9881 37.1472 32.1758 37.8512 31.8532 38.4085C31.6361 38.7781 31.2489 38.9893 30.85 38.9893Z" fill="#2AC854"/>
<path d="M28.6667 47.1616H24.5483C23.9089 47.1616 23.3867 46.6453 23.3867 46C23.3867 45.3546 23.903 44.8384 24.5483 44.8384H28.6667C29.3062 44.8384 29.8283 45.3546 29.8283 46C29.8283 46.6453 29.3121 47.1616 28.6667 47.1616Z" fill="#2AC854"/>
<path d="M27.2886 57.3871C26.8896 57.3871 26.4966 57.1818 26.2854 56.8063C25.9627 56.249 26.1563 55.545 26.7078 55.2223L30.2747 53.1631C30.8262 52.8463 31.536 53.0341 31.8587 53.5855C32.1814 54.1429 31.9878 54.8469 31.4363 55.1695L27.8694 57.2287C27.6875 57.3343 27.488 57.3871 27.2886 57.3871Z" fill="#2AC854"/>
<path d="M34.7742 64.873C34.5748 64.873 34.3753 64.8202 34.1934 64.7146C33.6361 64.3919 33.4484 63.6879 33.771 63.1306L35.8302 59.5637C36.1529 59.0063 36.8569 58.8186 37.4142 59.1413C37.9716 59.4639 38.1593 60.1679 37.8366 60.7253L35.7774 64.2922C35.5604 64.6618 35.1732 64.873 34.7742 64.873Z" fill="#2AC854"/>
<path d="M45.0005 67.6127C44.361 67.6127 43.8389 67.0965 43.8389 66.4511V62.3327C43.8389 61.6933 44.3551 61.1711 45.0005 61.1711C45.6458 61.1711 46.1621 61.6874 46.1621 62.3327V66.4511C46.1621 67.0906 45.6458 67.6127 45.0005 67.6127Z" fill="#2AC854"/>
<path d="M55.2257 64.8731C54.8268 64.8731 54.4337 64.6677 54.2225 64.2923L52.1633 60.7253C51.8406 60.168 52.0342 59.464 52.5857 59.1413C53.143 58.8187 53.847 59.0123 54.1697 59.5637L56.2289 63.1307C56.5516 63.688 56.358 64.392 55.8065 64.7147C55.6246 64.8203 55.4252 64.8731 55.2257 64.8731Z" fill="#2AC854"/>
<path d="M62.7113 57.3872C62.5118 57.3872 62.3182 57.3344 62.1305 57.2288L58.5636 55.1696C58.0062 54.847 57.8185 54.1371 58.1412 53.5856C58.4638 53.0283 59.1737 52.8406 59.7252 53.1632L63.2921 55.2224C63.8494 55.5451 64.0372 56.255 63.7145 56.8064C63.4974 57.176 63.1102 57.3872 62.7113 57.3872Z" fill="#2AC854"/>
<path d="M65.4509 47.1616H61.3325C60.693 47.1616 60.1709 46.6453 60.1709 46C60.1709 45.3546 60.6872 44.8384 61.3325 44.8384H65.4509C66.0904 44.8384 66.6125 45.3546 66.6125 46C66.6125 46.6453 66.0962 47.1616 65.4509 47.1616Z" fill="#2AC854"/>
<path d="M59.1509 38.9894C58.7519 38.9894 58.3589 38.784 58.1477 38.4086C57.825 37.8512 58.0186 37.1472 58.5701 36.8246L62.137 34.7654C62.6943 34.4427 63.3983 34.6363 63.721 35.1878C64.0437 35.7451 63.8501 36.4491 63.2986 36.7718L59.7317 38.831C59.5498 38.9366 59.3503 38.9894 59.1509 38.9894Z" fill="#2AC854"/>
<path d="M53.1668 33.0112C52.9673 33.0112 52.7737 32.9584 52.586 32.8528C52.0287 32.5301 51.8409 31.8261 52.1636 31.2688L54.2228 27.7019C54.5455 27.1445 55.2495 26.9568 55.8068 27.2795C56.3641 27.6021 56.5519 28.3061 56.2292 28.8635L54.17 32.4304C53.9529 32.8 53.5657 33.0112 53.1668 33.0112Z" fill="#2AC854"/>
<path d="M44.6009 46.4828C44.2548 46.2846 44.0157 45.911 44.0191 45.4802L43.9729 32.5881C43.9699 31.9441 44.4878 31.4294 45.1267 31.4235C45.7707 31.4205 46.2854 31.9384 46.2913 32.5773L46.3374 45.4694C46.3404 46.1134 45.8226 46.6281 45.1837 46.634C44.9734 46.6353 44.774 46.582 44.6009 46.4828Z" fill="#2AC854"/>
<path d="M44.1909 46.662C44.5408 46.8536 44.9842 46.8621 45.3497 46.6342C45.9004 46.3002 46.0685 45.5897 45.7397 45.0419L40.8329 36.9728C40.4989 36.4222 39.7884 36.2541 39.2406 36.5829C38.69 36.9169 38.5218 37.6274 38.8507 38.1752L43.7574 46.2443C43.8663 46.4242 44.0159 46.5663 44.1909 46.662Z" fill="#2AC854"/>
<path d="M47.3584 46C47.3584 47.3024 46.3024 48.3584 45 48.3584C43.6976 48.3584 42.6416 47.3024 42.6416 46C42.6416 44.6976 43.6976 43.6416 45 43.6416C46.3024 43.6416 47.3584 44.6976 47.3584 46Z" fill="#2AC854"/>
</g>
<defs>
<clipPath id="clip0_592_2467">
<rect width="44" height="44" fill="white" transform="translate(23 24)"/>
</clipPath>
</defs>
</svg>
