<svg width="314" height="28" viewBox="0 0 314 28" fill="none" xmlns="http://www.w3.org/2000/svg">
<g clip-path="url(#clip0_589_2210)">
<path d="M0 5.28688V3.51355H20.6647C21.2306 3.51957 22.4305 4.02538 22.4631 4.61247C22.6734 8.47226 22.3623 12.1695 21.3017 15.8125C20.1788 19.6692 17.6487 22.6138 14.0016 24.2004C10.5264 25.7118 6.73714 26.5247 2.81455 26.314C5.23506 25.2994 7.43634 24.9471 9.51318 23.8151C16.7095 20.0576 17.6635 12.8649 17.6102 5.28989C17.6102 4.99183 16.8962 4.61549 16.5881 4.61549L2.48273 4.69075C1.64725 4.69376 0.782148 5.59699 0.00296268 5.28989L0 5.28688Z" fill="#199FB4"/>
<path d="M184.898 23.3002C187.653 21.5179 189.621 19.2899 190.903 16.2611C192.192 13.2172 192.693 9.48388 192.554 6.25033C192.542 5.97033 191.866 5.56689 191.585 5.56689L184.575 5.57592C183.855 7.58409 183.18 9.44474 181.829 11.0254C179.814 13.3798 177.091 15.0447 173.791 15.5927L176.872 12.2207C179.613 9.22194 180.196 5.0671 180.35 0.852051L185.298 0.861083L184.848 4.51313L195.836 4.53119C196.239 4.53119 196.962 4.86839 197.181 5.14538C198.088 6.29248 196.98 12.6964 196.405 14.6804C194.953 19.6783 191.446 23.4207 186.563 25.1729C183.221 26.3712 179.636 27.2654 175.948 26.9493C179.219 25.6877 182.113 25.1097 184.901 23.3032L184.898 23.3002Z" fill="#199FB4"/>
<path d="M292.45 26.9643C295.4 25.7721 298.055 25.2301 300.585 23.785C307.186 20.0185 309.206 13.5845 309.091 6.28647C309.085 5.95228 308.407 5.56088 308.11 5.56088L300.973 5.57293C300.04 9.5411 297.551 12.7144 293.946 14.3854C292.781 14.9243 291.691 15.5686 290.23 15.5235C292.438 13.4491 294.224 11.5734 295.246 8.87572C296.233 6.28045 296.754 3.78755 296.825 0.837012L301.761 0.803894L301.332 4.51013L312.267 4.52518C312.768 4.52518 313.831 5.04906 313.896 5.53078C314.056 6.70798 313.997 7.81293 313.902 8.92991C313.245 16.6405 310.329 22.662 302.712 25.2934C299.474 26.4134 296.076 27.2202 292.444 26.9643H292.45Z" fill="#199FB4"/>
<path d="M159.647 17.7334C157.268 20.8134 154.46 23.0835 151.035 24.4955C148.137 25.6908 145.163 26.9101 141.854 26.88C145.198 25.0224 148.188 23.7488 150.907 21.4516C155.63 17.4564 158.501 11.7931 158.99 5.50971C159.037 4.88949 158.649 4.29035 158.018 4.29336L147.305 4.3325C146.386 4.33551 145.604 4.9768 144.473 5.13035L144.449 3.19745L161.555 3.22153C163.078 3.22153 164.077 4.54627 163.952 5.93121C163.606 9.73379 162.394 13.2835 160.447 16.5531C163.748 18.3476 166.832 20.5454 168.654 23.8181L164.909 27.1931C163.36 23.6495 161.964 20.4972 159.647 17.7364V17.7334Z" fill="#199FB4"/>
<path d="M217.959 25.4619C215.02 26.5187 211.965 27.1118 208.955 26.8047C211.165 25.9226 213.082 25.6606 214.913 24.6761C216.868 23.6254 218.376 22.0628 219.087 19.8679C219.573 18.3626 219.941 16.6886 219.944 15.0507L219.988 1.55353L224.654 1.59869L224.634 14.3793C224.625 19.2056 222.844 23.7036 217.962 25.4619H217.959Z" fill="#199FB4"/>
<path d="M33.0338 25.2964C31.8576 25.2964 30.9866 25.8895 29.8075 26.1424C29.7423 25.4981 29.7334 24.8508 29.7867 24.2486L37.7741 24.2215V9.27915L34.21 9.30625C33.2531 9.31227 32.462 9.7669 31.2177 10.1041L31.1821 8.1712L45.7526 8.12303C46.6444 8.12303 47.4176 7.52389 48.5938 7.33722L48.6649 9.27012L42.4077 9.27915V24.1553C46.123 24.0921 46.7096 24.5949 50.327 23.3574C50.3892 23.9415 50.4011 24.5407 50.3477 25.2723L33.0368 25.2903L33.0338 25.2964Z" fill="#199FB4"/>
<path d="M88.5282 26.2026C88.3623 25.5824 88.3356 24.8267 88.4897 24.2968L100.782 24.2878L101.496 10.3871C101.54 9.53508 100.977 9.05035 100.231 8.92691L93.1796 8.96304C92.2019 8.96906 91.322 9.4568 90.1162 9.78497C89.9651 9.27013 89.9443 8.61379 90.048 7.84003L103.155 7.87616C103.905 7.87616 104.909 8.32777 105.338 8.72218C105.898 9.23702 106.144 10.2336 106.103 11.0525L105.448 24.3239L108.737 23.4869C108.917 23.8904 108.938 24.6521 108.808 25.3325L91.8493 25.3506C90.7502 25.3506 89.8969 25.8323 88.5311 26.2086L88.5282 26.2026Z" fill="#199FB4"/>
<path d="M274.487 25.2903C271.779 26.314 269.177 27.0667 266.218 27.0546L271.539 24.631C278.477 21.4697 279.585 13.3196 279.852 6.43097L284.341 6.97893C283.973 14.7075 282.323 22.3247 274.484 25.2903H274.487Z" fill="#199FB4"/>
<path d="M211.079 1.96301H206.448V17.9712H211.079V1.96301Z" fill="#199FB4"/>
<path d="M115.838 15.4301C115.734 14.6262 115.731 13.8826 115.799 12.9462L136.449 12.9281C137.279 12.9281 137.978 12.6963 139.018 12.5729V15.4271L115.838 15.4331V15.4301Z" fill="#199FB4"/>
<path d="M235.649 23.9264C234.606 23.9264 233.889 24.5918 232.71 24.7213V22.695L253.585 22.683C254.658 22.683 255.54 22.1862 256.74 21.8731C256.903 22.4873 256.945 23.1768 256.85 23.8963L235.649 23.9264Z" fill="#199FB4"/>
<path d="M276.913 13.4761C275.686 14.277 274.543 14.831 273.073 15.4933C272.279 12.1996 271.233 9.50493 269.477 6.49719C272.866 7.61418 275.467 9.92945 276.913 13.4791V13.4761Z" fill="#199FB4"/>
<path d="M271.225 14.7797C269.933 15.5927 268.715 16.1978 267.314 16.7638C266.689 13.3707 265.418 10.7664 263.854 7.81287C267.314 9.01717 269.826 11.3053 271.225 14.7767V14.7797Z" fill="#199FB4"/>
<path d="M237.411 5.40429C236.398 5.40429 235.595 5.95826 234.452 6.23826C234.247 5.71439 234.215 4.9587 234.303 4.19095L252.029 4.15482L254.808 3.35999L254.876 5.3802L237.408 5.40429H237.411Z" fill="#199FB4"/>
<path d="M169.495 3.3871C169.042 3.82366 168.346 4.23011 167.727 4.47699C166.947 2.81806 166.281 1.6529 165.188 0C167.104 0.346237 168.518 1.5686 169.495 3.3871Z" fill="#199FB4"/>
<path d="M166.817 4.38063C166.284 4.75999 165.671 5.10924 165.013 5.42537C164.308 3.71225 163.721 2.57418 162.628 0.864075C164.432 1.24042 165.893 2.40859 166.817 4.38063Z" fill="#199FB4"/>
<path d="M79.7707 23.5832L77.599 28C70.6397 23.9144 63.4344 21.3613 55.4678 19.034C61.6005 18.1097 67.5111 19.2357 73.1757 20.7682C75.4837 21.5691 77.3679 22.3278 79.7736 23.5832H79.7707Z" fill="#199FB4"/>
<path d="M77.7502 14.1295L75.54 18.5944C70.1064 14.8641 64.341 12.6512 57.832 10.4594C63.236 9.52001 72.6662 11.1097 77.7472 14.1295H77.7502Z" fill="#199FB4"/>
<path d="M79.2907 5.96731L77.0035 10.3359C71.1818 6.76817 65.0698 4.5372 58.3623 2.47484C64.0684 1.86365 74.3993 3.29075 79.2907 5.9643V5.96731Z" fill="#199FB4"/>
</g>
<defs>
<clipPath id="clip0_589_2210">
<rect width="314" height="28" fill="white"/>
</clipPath>
</defs>
</svg>
