<svg width="92" height="92" viewBox="0 0 92 92" fill="none" xmlns="http://www.w3.org/2000/svg">
<g clip-path="url(#clip0_687_1748)">
<path d="M60.9992 19.7555C61.3707 18.9303 62.6016 18.7481 63.2414 19.3732C66.0332 21.999 68.8608 24.5895 71.6333 27.2345C72.0749 27.6726 72.1256 28.4137 71.7425 28.9052C71.2892 29.5279 70.2815 29.6666 69.6981 29.1464C69.1159 28.6046 68.5373 28.0581 67.9438 27.5291C65.2004 30.2973 62.5222 33.1325 59.7993 35.9222C58.2888 34.5142 56.7992 33.0834 55.2633 31.7029C55.1827 31.6176 54.9861 31.4956 55.1332 31.3728C55.7948 30.5875 56.5365 29.8751 57.2465 29.1328C59.1974 27.0806 61.1599 25.0375 63.1387 23.0116C62.5278 22.4368 61.8985 21.8802 61.2933 21.2998C60.8699 20.9163 60.7562 20.2653 60.9988 19.7555H60.9992Z" fill="#7980E9"/>
<path d="M47.992 27.7114C48.542 27.4814 49.2173 27.6365 49.629 28.0586C54.356 32.4896 59.1048 36.8954 63.8213 41.3356C64.3434 41.8773 64.2447 42.8676 63.6198 43.2945C63.0469 43.7362 62.1613 43.6529 61.6802 43.1159C57.0374 38.7133 52.306 34.4043 47.6354 30.0311C46.8844 29.4164 47.0971 28.0802 47.992 27.7114Z" fill="#7980E9"/>
<path d="M48.4472 32.4838C52.1536 35.854 55.8004 39.2879 59.4596 42.7071C56.5228 45.7938 53.5489 48.8455 50.5972 51.9175C48.9359 53.6145 47.3299 55.3626 45.6611 57.0517C44.4382 58.3457 43.1719 59.5978 41.9603 60.9034C41.0908 61.8562 39.6734 62.2887 38.4183 61.9427C37.5774 61.7501 36.9114 61.1697 36.3268 60.5733C35.5342 61.3212 34.8013 62.128 34.0374 62.9054C33.5092 62.4011 32.9677 61.9116 32.4326 61.4156C29.4841 64.5171 26.5231 67.6074 23.5738 70.7089C23.0113 71.2882 22.498 71.9244 21.8791 72.4458C21.251 72.6268 20.6127 72.7723 19.9995 72.9999C20.1744 72.5355 20.3319 72.0643 20.4492 71.5828C20.4975 71.4201 20.5124 71.2343 20.6494 71.1171C23.5186 68.1512 26.3228 65.1235 29.2129 62.1755C29.8628 61.5018 30.5357 60.8472 31.157 60.1448C30.6094 59.6759 30.0804 59.1852 29.5844 58.663C30.2988 57.8912 31.0466 57.1505 31.761 56.3787C31.126 55.8075 30.4624 55.1963 30.1711 54.3731C29.7258 53.1712 30.0365 51.7779 30.8177 50.7821C36.6995 44.6884 42.5574 38.5696 48.4472 32.4834M43.8415 40.7653C44.5502 41.4506 45.292 42.1004 45.9927 42.7948C46.3815 42.3826 46.7671 41.9696 47.1672 41.569C46.4596 40.8849 45.7384 40.2156 45.0515 39.5112C44.6477 39.9301 44.2472 40.3511 43.8411 40.7653M40.9365 43.8006C41.6533 44.4392 42.3306 45.1185 43.0256 45.7799C43.443 45.3848 43.8379 44.967 44.2392 44.5564C43.526 43.8839 42.8334 43.1895 42.1005 42.5385C41.7161 42.9619 41.2999 43.3593 40.9365 43.8006ZM38.0343 46.7885C38.7511 47.4977 39.515 48.1566 40.2338 48.8622C39.6552 49.4634 39.0928 50.0801 38.5049 50.6721C37.7974 49.9629 37.0738 49.2677 36.3413 48.5848C35.9226 49.0069 35.5141 49.4383 35.1011 49.8664C35.857 50.5381 36.585 51.2402 37.3155 51.939C36.722 52.517 36.1696 53.1365 35.5624 53.701C34.8779 52.9986 34.1281 52.3636 33.4343 51.6715C33.1272 51.931 32.821 52.2089 32.6268 52.5637C32.406 53.0544 32.4415 53.7134 32.8706 54.0853C34.5628 55.7142 36.3413 57.253 38.0186 58.8974C38.3627 59.2059 38.6975 59.6385 39.208 59.6337C39.6911 59.6712 40.1121 59.373 40.4192 59.0337C42.6094 56.6821 44.8883 54.4126 47.0821 52.0646C45.3601 50.4166 43.5909 48.8172 41.8547 47.1839C41.7004 47.3306 41.5489 47.4797 41.3934 47.6256C40.6734 46.9268 39.9244 46.2563 39.2064 45.5555C38.8071 45.9585 38.4151 46.3683 38.0343 46.7881V46.7885Z" fill="#7980E9"/>
</g>
<defs>
<clipPath id="clip0_687_1748">
<rect width="52" height="54" fill="white" transform="translate(20 19)"/>
</clipPath>
</defs>
</svg>
