<svg width="92" height="92" viewBox="0 0 92 92" fill="none" xmlns="http://www.w3.org/2000/svg">
<g clip-path="url(#clip0_687_1760)">
<path d="M48.8308 68.0002C45.4332 68.0002 37.9016 67.2627 35.7106 65.7423C34.3008 64.7654 30.5858 63.9179 26.2421 63.5944C25.3276 63.5232 24.6227 62.7339 24.6417 61.8023L24.8513 51.2439C24.8577 50.7651 25.0609 50.3122 25.4038 49.9887C25.7467 49.6653 26.204 49.4906 26.6739 49.5165C28.2425 49.6006 32.4274 49.7688 34.4723 49.6782C36.695 47.9638 40.3656 46.8186 45.8143 49.9629C47.2368 50.7845 48.3735 50.5193 49.8087 50.1828C51.009 49.8982 52.368 49.5812 53.8858 49.9823C55.213 50.3252 56.2354 51.1662 56.7816 52.2855C57.9755 51.4509 59.3662 50.3963 60.4331 49.5876C61.0301 49.1348 61.5635 48.7272 61.9763 48.4231C63.6973 47.1615 65.9136 47.3168 67.4885 48.8177C69.1269 50.3834 69.4826 52.7707 68.3458 54.6275C66.1867 58.1534 53.1745 67.612 50.0183 67.9485C49.7262 67.9808 49.3198 67.9938 48.8308 67.9938V68.0002ZM28.1345 60.2302C30.9859 60.5407 35.3868 61.2524 37.6602 62.831C38.9367 63.7173 47.1479 64.7136 49.6563 64.4484C51.8218 64.0473 63.7163 55.5203 65.3992 52.7707C65.7358 52.2208 65.3611 51.632 65.1134 51.3991C64.5609 50.8686 64.1291 51.1856 63.983 51.2891C63.583 51.5868 63.0622 51.9749 62.4843 52.4149C60.1727 54.1681 58.1215 55.7014 56.7117 56.4778C56.0576 57.83 54.8256 58.9039 53.2698 59.3633C51.4027 59.9132 49.3388 59.8679 47.3511 59.8226C45.6365 59.7838 43.8647 59.745 43.0074 60.1849C42.1564 60.6248 41.1149 60.269 40.6831 59.4021C40.2512 58.5351 40.6005 57.4741 41.4515 57.0342C43.0772 56.1996 45.1919 56.2514 47.4273 56.2966C49.161 56.3355 50.9518 56.3743 52.3172 55.9732C53.3269 55.6756 53.7778 54.8798 53.7651 54.2587C53.7587 53.8058 53.5174 53.5276 53.0157 53.3982C52.3108 53.2171 51.5424 53.3983 50.5708 53.6247C48.9324 54.0064 46.6906 54.5369 44.0933 53.036C39.1399 50.1699 36.9744 52.0979 36.2631 52.7319C35.9837 52.9777 35.6408 53.1265 35.2725 53.1589C33.6848 53.3012 30.3445 53.1977 28.2679 53.1201L28.1282 60.2302H28.1345Z" fill="#7980E9"/>
<path d="M32.3182 47.7702L23.1099 47.1685L21.9989 64.8137L31.2073 65.4154L32.3182 47.7702Z" fill="#7980E9"/>
<path d="M52.9967 47.7757C52.5967 47.7757 52.1902 47.6398 51.86 47.3616C51.4472 47.0188 50.8376 46.5723 50.1327 46.0548C46.9701 43.7257 41.6738 39.831 39.902 34.8623C38.4668 30.8382 39.9211 26.7235 43.4393 24.8732C46.9701 23.0099 50.5201 24.3491 52.9967 26.8141C55.4734 24.3491 59.0234 23.0099 62.5542 24.8732C66.0724 26.73 67.5267 30.8382 66.0915 34.8623C64.3197 39.831 59.0234 43.7257 55.8608 46.0548C55.1559 46.5723 54.5526 47.0188 54.1335 47.3616C53.8033 47.6334 53.3968 47.7757 52.9967 47.7757ZM46.8939 27.6875C46.2335 27.6875 45.6175 27.8557 45.0904 28.1339C43.5155 28.9685 42.3406 30.987 43.2805 33.6201C44.6712 37.5278 49.4087 41.0085 52.2347 43.0917C52.5014 43.2858 52.7554 43.4734 52.9904 43.6481C53.2254 43.4734 53.4794 43.2858 53.7461 43.0917C56.5721 41.0149 61.3095 37.5278 62.7003 33.6201C63.6402 30.987 62.4653 28.9685 60.8904 28.1339C59.2266 27.254 56.6673 27.4675 54.4637 30.6894C54.1271 31.1811 53.5746 31.4787 52.984 31.4787C52.3935 31.4787 51.841 31.1875 51.5044 30.6894C49.9993 28.4832 48.3228 27.6875 46.8812 27.6875H46.8939Z" fill="#7980E9"/>
</g>
<defs>
<clipPath id="clip0_687_1760">
<rect width="47" height="44" fill="white" transform="translate(22 24)"/>
</clipPath>
</defs>
</svg>
