<svg width="92" height="92" viewBox="0 0 92 92" fill="none" xmlns="http://www.w3.org/2000/svg">
<g clip-path="url(#clip0_687_1753)">
<path d="M64.0376 47.003C63.4936 46.4297 62.9869 45.8929 62.5176 45.1997C62.0963 44.5847 62.0483 44.1261 61.9736 43.3756C61.8563 42.156 61.7016 40.6446 59.995 38.3306C56.987 34.2551 52.7149 34.0466 46.0056 34.0466C39.2963 34.0466 35.0243 34.2551 32.0109 38.3306C30.3043 40.6394 30.1549 42.156 30.0323 43.3756C29.9576 44.1261 29.9149 44.5795 29.4936 45.1997C29.0189 45.8929 28.5123 46.4297 27.9736 47.003C27.4936 43.803 27.7603 40.7854 28.7736 38.586C29.7496 36.4492 31.3763 34.7867 33.7336 33.5098C36.9443 31.7691 40.2509 31.4668 46.0056 31.4668C51.7603 31.4668 55.067 31.7743 58.2776 33.5098C60.6403 34.7867 62.2616 36.4492 63.243 38.586C64.251 40.7854 64.5176 43.7977 64.043 47.003H64.0376Z" fill="#7980E9"/>
<path d="M45.1783 26.8023C46.277 27.8759 46.277 29.6166 45.1783 30.6902C44.0797 31.7638 42.2983 31.7638 41.1997 30.6902C40.101 29.6166 40.1437 27.9176 41.1997 26.8023C40.8317 27.1879 40.8157 27.7873 41.1997 28.1625C41.5837 28.5378 42.2077 28.5378 42.5917 28.1625C42.9757 27.7873 42.9757 27.1775 42.5917 26.8023C42.2077 26.427 41.5837 26.427 41.1997 26.8023C42.2983 25.7287 44.0797 25.7287 45.1783 26.8023Z" fill="#7980E9"/>
<path d="M50.7836 26.8023C51.8822 27.8759 51.8822 29.6166 50.7836 30.6902C49.6849 31.7638 47.9036 31.7638 46.8049 30.6902C45.7062 29.6166 45.7489 27.9176 46.8049 26.8023C46.4369 27.1879 46.4209 27.7873 46.8049 28.1625C47.1889 28.5378 47.8129 28.5378 48.1969 28.1625C48.5809 27.7873 48.5809 27.1775 48.1969 26.8023C47.8129 26.427 47.1889 26.427 46.8049 26.8023C47.9036 25.7287 49.6849 25.7287 50.7836 26.8023Z" fill="#7980E9"/>
<path d="M65.3916 51.772C64.4689 48.9837 62.7302 48.1811 61.2529 46.0234C59.7809 43.8658 61.3382 42.6827 58.7622 39.2013C56.1916 35.7198 52.6022 35.5322 45.9996 35.5322C39.3969 35.5322 35.8022 35.7198 33.2316 39.2013C30.6609 42.6827 32.2182 43.8658 30.7462 46.0234C29.2742 48.1811 27.5356 48.9837 26.6129 51.772C25.6902 54.5602 25.3222 58.985 29.1889 61.7733C33.0556 64.5615 36.4476 66 46.0049 66C55.5622 66 58.9542 64.5615 62.8209 61.7733C66.6876 58.985 66.3142 54.5602 65.3969 51.772H65.3916Z" fill="#7980E9"/>
</g>
<defs>
<clipPath id="clip0_687_1753">
<rect width="40" height="40" fill="white" transform="translate(26 26)"/>
</clipPath>
</defs>
</svg>
