<?xml version="1.0" encoding="UTF-8"?>
<svg id="_レイヤー_1" data-name="レイヤー 1" xmlns="http://www.w3.org/2000/svg" viewBox="0 0 157 157">
  <defs>
    <style>
      .cls-1 {
        fill: #00a4af;
      }
    </style>
  </defs>
  <path class="cls-1" d="M147,25.5l-.05,105.2c-2.93,18.01-27.47,18.33-30.89.5l-.05-105.7-3.56-.29c-1.14-4.43-.98-11.78,4.84-12.68,4.16-.64,24.33-.65,28.35.08,3.11.57,4.91,3.18,5.32,6.18.49,3.54.73,7.64-3.96,6.7ZM119.5,23.25v20.25c10.49-1.22,10.74,4.8,0,3.5v9c1.86.22,8.51-1.08,7.92,2.18-.4,2.21-6.25,1.05-7.92,1.32v9c2.7.06,10.56-1.06,6.67,3.42l-6.67.08v9c2.7.06,10.56-1.06,6.67,3.42l-6.67.08v9c10.74-1.3,10.49,4.72,0,3.5v8.5c2.07.29,8.08-1.15,7.85,2.18-.2,2.87-5.81,1.54-7.85,1.82v8.5c10.49-1.22,10.74,4.8,0,3.5v9.25c0,1.75,2.61,5.75,4.04,6.96,7.36,6.24,17.92,1.95,19.74-7.18l.2-107.69,3.52-.84c.06-2.77.67-5.4-2.78-5.97-4.12-.67-21.69-.59-25.94.02-2.86.41-2.87,3.52-2.78,5.96,1.16-.16,3.64-.06,4,1.25Z"/>
  <g>
    <path class="cls-1" d="M109,60l-6.5.5-9.7,83.55-69.8.21c-1.03-.52-1.24-2.89-1.43-4.07-3.97-24.57-5.62-51.47-8.56-76.44-.13-1.07.06-2.18,0-3.25-1.98-.32-5.68.93-6.63-1.12-.66-1.4-.57-11.04-.36-13.13.49-4.96,3.2-8.79,8.29-9.71l86.46-.05c2.83-.34,8.25,4.88,8.25,7.25v16.25ZM105.5,57v-12.25c0-1.17-3.04-4.33-4.49-4.51l-85.78-.25c-1.66-.32-5.24,3.06-5.24,4.26v12.75h95.5ZM99,60.5H16.5l9.07,80.43,64.43.07,2-20.5h-5.5c-.6,3.58-.45,9.93-1.61,13.14-.23.64-.57,1.06-1.23,1.27l-52.68-.12-7.98-53c.26-2.14,2.65-1.84,4.26-1.77,6.75.28,13.12,3.59,19.98,3.51,6.09-.07,11.73-3.13,17.78-3.02.21-1.93-.95-5.48,1.76-5.99l29.92-.08.73-.77,1.58-13.17ZM97,78h-28v39h23.5l4.5-39ZM65,84c-7.38.91-13.46,3.51-21.19,2.94-5.75-.43-11.04-3.22-16.81-2.93l7.25,47.5h47.25l1.5-11h-16.75c-.11,0-1.25-1.56-1.25-1.75v-34.75Z"/>
    <path class="cls-1" d="M37.38,52.88c-3.77,3.87-5.02-9.06-1.6-9.4,3.21-.48,2.53,8.45,1.6,9.4Z"/>
    <path class="cls-1" d="M22.88,52.88c-4.11,4.22-5.38-12.03-.12-8.89,1.07,1.08,1.12,7.86.12,8.89Z"/>
    <path class="cls-1" d="M52,53c-4.35,1.74-3.82-3.82-3.53-6.78.38-3.9,3.53-2.82,3.53-1.97v8.75Z"/>
    <path class="cls-1" d="M77.5,44.75c.41-1.47,3.5-1.61,3.5-.5v8c0,1.45-3.5,1.45-3.5,0,0-1.74-.35-6.24,0-7.5Z"/>
    <path class="cls-1" d="M92,44.75c.41-1.47,3.5-1.61,3.5-.5v8c0,1.45-3.5,1.45-3.5,0,0-1.74-.35-6.24,0-7.5Z"/>
    <path class="cls-1" d="M63,44.75c.41-1.47,3.5-1.61,3.5-.5v8c0,.16-1.14,1.32-1.66,1.17l-1.84-1.17v-7.5Z"/>
    <path class="cls-1" d="M75.36,82.11c1.65-.36,9.07-.49,9.9.88,2.42,3.98-8.64,3.43-10.41,2.91-1.95-.58-1.95-3.25.51-3.79Z"/>
    <path class="cls-1" d="M74.25,99c-.78-.24-1.17-2.44-.46-3.05.84-.6,9.15-.7,10.36-.34,1.9.56,1.52,3.4.6,3.4h-10.5Z"/>
    <path class="cls-1" d="M85,109c.69.45.41,3.5-.75,3.5h-10c-1.02,0-1.02-3.5,0-3.5h10.75Z"/>
  </g>
</svg>