<svg width="104" height="104" viewBox="0 0 104 104" fill="none" xmlns="http://www.w3.org/2000/svg">
<rect width="104" height="104" fill="#FFF2F2"/>
<path d="M64.9998 8.6665V14.7332C64.9998 17.1601 64.9998 18.3735 64.5275 19.3005C64.1121 20.1158 63.4492 20.7787 62.6338 21.1942C61.7068 21.6665 60.4934 21.6665 58.0665 21.6665H45.9332C43.5063 21.6665 42.2928 21.6665 41.3659 21.1942C40.5505 20.7787 39.8876 20.1158 39.4721 19.3005C38.9998 18.3735 38.9998 17.1601 38.9998 14.7332V8.6665M35.5332 95.3332H68.4665C73.3203 95.3332 75.7472 95.3332 77.6011 94.3886C79.2318 93.5577 80.5577 92.2318 81.3886 90.6011C82.3332 88.7472 82.3332 86.3203 82.3332 81.4665V22.5332C82.3332 17.6794 82.3332 15.2525 81.3886 13.3986C80.5577 11.7678 79.2318 10.442 77.6011 9.61111C75.7472 8.6665 73.3203 8.6665 68.4665 8.6665H35.5332C30.6794 8.6665 28.2525 8.6665 26.3986 9.61111C24.7678 10.442 23.442 11.7678 22.6111 13.3986C21.6665 15.2525 21.6665 17.6794 21.6665 22.5332V81.4665C21.6665 86.3203 21.6665 88.7472 22.6111 90.6011C23.442 92.2318 24.7678 93.5577 26.3986 94.3886C28.2525 95.3332 30.6794 95.3332 35.5332 95.3332Z" stroke="#E2789E" stroke-width="3" stroke-linecap="round" stroke-linejoin="round"/>
</svg>
