<svg width="271" height="191" viewBox="0 0 271 191" fill="none" xmlns="http://www.w3.org/2000/svg">
<g clip-path="url(#clip0_351_1478)">
<path d="M182.352 182.357H124.872C121.952 182.357 119.282 180.887 117.732 178.427C116.872 177.087 116.402 175.527 116.402 173.927V124.217C116.402 123.287 117.152 122.537 118.082 122.537C119.012 122.537 119.762 123.287 119.762 124.217V173.927C119.762 174.897 120.032 175.797 120.562 176.627C121.502 178.127 123.112 179.007 124.872 179.007H182.352C185.172 179.007 187.462 176.727 187.462 173.927V72.6966C187.462 69.8966 185.172 67.6166 182.352 67.6166H124.872C122.052 67.6166 119.762 69.8966 119.762 72.6966V106.567C119.762 107.497 119.012 108.247 118.082 108.247C117.152 108.247 116.402 107.497 116.402 106.567V72.6966C116.402 68.0466 120.202 64.2566 124.872 64.2566H182.352C187.022 64.2566 190.822 68.0366 190.822 72.6966V173.927C190.822 178.577 187.022 182.367 182.352 182.367V182.357Z" fill="#3B3978"/>
<path d="M170.442 138.287H136.782C130.612 138.287 125.592 133.267 125.592 127.097V119.507C125.592 113.337 130.612 108.317 136.782 108.317H170.442C176.612 108.317 181.632 113.337 181.632 119.507V127.097C181.632 133.267 176.612 138.287 170.442 138.287ZM136.782 111.687C132.462 111.687 128.952 115.197 128.952 119.517V127.107C128.952 131.417 132.462 134.937 136.782 134.937H170.442C174.752 134.937 178.272 131.427 178.272 127.107V119.517C178.272 115.207 174.762 111.687 170.442 111.687H136.782Z" fill="#3B3978"/>
<path d="M82.1917 167.787C81.7617 167.787 81.3317 167.627 81.0017 167.297C80.3417 166.637 80.3417 165.577 81.0017 164.917L90.9717 154.947C93.2017 152.717 94.4317 149.747 94.4317 146.597V130.707C94.4317 127.417 95.7117 124.317 98.0417 121.987L112.652 107.377C114.302 105.727 116.492 104.827 118.812 104.827C121.132 104.827 123.332 105.737 124.972 107.377C126.622 109.027 127.522 111.217 127.522 113.537C127.522 115.857 126.612 118.057 124.972 119.697L113.552 131.117C112.892 131.777 111.832 131.777 111.172 131.117C110.512 130.457 110.512 129.397 111.172 128.737L122.592 117.317C123.602 116.307 124.162 114.957 124.162 113.527C124.162 112.097 123.602 110.747 122.592 109.737C120.502 107.647 117.102 107.647 115.012 109.737L100.402 124.347C98.7117 126.037 97.7717 128.297 97.7717 130.687V146.577C97.7717 150.627 96.1917 154.437 93.3317 157.307L83.3617 167.277C83.0317 167.607 82.6017 167.767 82.1717 167.767L82.1917 167.787Z" fill="#3B3978"/>
<path d="M107.692 190.667C107.262 190.667 106.832 190.507 106.502 190.177C105.842 189.517 105.842 188.457 106.502 187.797L117.962 176.337C118.622 175.677 119.682 175.677 120.342 176.337C121.002 176.997 121.002 178.057 120.342 178.717L108.882 190.177C108.552 190.507 108.122 190.667 107.692 190.667Z" fill="#3B3978"/>
<path d="M156.352 78.5465H148.022C147.092 78.5465 146.342 77.7965 146.342 76.8665C146.342 75.9365 147.092 75.1865 148.022 75.1865H156.352C157.282 75.1865 158.032 75.9365 158.032 76.8665C158.032 77.7965 157.282 78.5465 156.352 78.5465Z" fill="#3B3978"/>
<path d="M156.352 171.177H148.022C147.092 171.177 146.342 170.427 146.342 169.497C146.342 168.567 147.092 167.817 148.022 167.817H156.352C157.282 167.817 158.032 168.567 158.032 169.497C158.032 170.427 157.282 171.177 156.352 171.177Z" fill="#3B3978"/>
<path d="M141.742 119.207C142.742 119.207 143.142 119.737 143.142 121.047V130.127C143.142 131.257 142.472 131.787 141.212 131.787C140.662 131.787 140.102 131.747 139.742 131.657C139.412 131.587 139.182 131.297 139.182 130.857C139.182 130.807 139.182 130.747 139.202 130.677C139.242 130.167 139.552 129.947 139.852 129.947H139.962C140.162 129.967 140.562 130.037 140.802 130.037C141.272 130.037 141.442 129.947 141.442 129.617V127.447H137.622C137.472 128.867 137.222 130.197 136.842 131.287C136.732 131.637 136.402 131.847 136.022 131.847C135.892 131.847 135.772 131.827 135.642 131.777C135.222 131.617 135.022 131.327 135.022 130.977C135.022 130.847 135.042 130.727 135.092 130.597C135.452 129.617 135.742 128.377 135.892 126.957C136.022 125.517 136.092 123.607 136.092 121.047C136.092 120.887 136.092 120.737 136.112 120.597H136.062C135.842 120.597 135.642 120.547 135.482 120.437C135.282 120.287 135.192 120.077 135.192 119.857C135.192 119.657 135.262 119.437 135.412 119.277C136.252 118.317 136.972 116.927 137.452 115.457C137.602 115.017 137.852 114.877 138.232 114.877C138.342 114.877 138.452 114.897 138.582 114.917C139.092 114.987 139.332 115.167 139.332 115.467C139.332 115.537 139.312 115.627 139.282 115.737C139.262 115.787 139.242 115.867 139.232 115.917H140.992C141.792 115.917 142.232 116.387 142.232 116.987C142.232 117.117 142.212 117.257 142.182 117.407C142.022 117.897 141.732 118.607 141.382 119.227H141.782L141.742 119.207ZM137.652 124.087C137.652 124.667 137.632 125.267 137.612 125.847H138.852V124.087H137.652ZM139.582 119.207C139.832 118.737 140.052 118.257 140.182 117.917C140.202 117.867 140.222 117.807 140.222 117.757C140.222 117.647 140.152 117.597 140.002 117.597H138.532C138.282 118.157 137.982 118.687 137.672 119.217H139.582V119.207ZM138.072 120.867C137.802 120.867 137.672 120.937 137.672 121.247V122.537H138.852V120.867H138.072ZM141.522 121.247C141.522 120.937 141.392 120.867 141.122 120.867H140.342V122.537H141.522V121.247ZM141.522 124.087H140.342V125.847H141.522V124.087ZM147.092 122.207C147.092 121.697 147.382 121.447 147.962 121.447C148.542 121.447 148.892 121.697 148.892 122.207V123.117H151.132C151.582 123.117 151.842 123.447 151.842 123.977C151.842 124.507 151.592 124.887 151.132 124.887H148.892V126.577H151.552C152.002 126.577 152.242 126.907 152.242 127.447C152.242 127.987 152.002 128.357 151.552 128.357H148.892V131.197C148.892 131.687 148.532 131.957 147.962 131.957C147.362 131.957 147.012 131.687 147.012 131.197V128.357H144.242C143.802 128.357 143.552 127.997 143.552 127.467C143.552 126.907 143.802 126.577 144.242 126.577H147.012V124.887H145.412C145.302 125.157 145.192 125.417 145.082 125.647C144.932 125.977 144.662 126.137 144.332 126.137C144.202 126.137 144.042 126.097 143.892 126.047C143.562 125.897 143.382 125.627 143.382 125.317C143.382 125.167 143.422 125.027 143.492 124.897C143.892 124.207 144.242 123.227 144.402 122.367C144.452 121.987 144.752 121.767 145.152 121.767C145.222 121.767 145.302 121.767 145.372 121.787C145.812 121.877 146.082 122.097 146.082 122.457C146.082 122.507 146.082 122.587 146.062 122.637C146.022 122.787 145.992 122.947 145.952 123.107H147.082V122.197L147.092 122.207ZM144.142 117.207C143.692 117.207 143.432 116.857 143.432 116.337C143.432 115.817 143.682 115.497 144.142 115.497H149.802C150.962 115.497 151.582 116.097 151.562 117.137C151.542 118.047 151.432 119.137 151.232 119.777C150.962 120.637 150.432 121.137 149.192 121.137C148.632 121.137 148.102 121.087 147.792 121.007C147.482 120.957 147.242 120.677 147.242 120.257C147.242 120.187 147.242 120.097 147.262 120.007C147.352 119.557 147.592 119.337 147.842 119.337H147.932C148.242 119.387 148.512 119.427 148.732 119.427C149.132 119.427 149.312 119.297 149.422 118.917C149.512 118.607 149.572 118.047 149.572 117.607C149.572 117.277 149.482 117.207 149.152 117.207H147.642C147.402 119.067 146.382 120.687 144.912 121.497C144.752 121.587 144.562 121.647 144.402 121.647C144.092 121.647 143.782 121.487 143.602 121.177C143.492 120.997 143.442 120.827 143.442 120.647C143.442 120.397 143.592 120.137 143.842 119.977C144.932 119.317 145.532 118.427 145.702 117.207H144.142Z" fill="#3B3978"/>
<path d="M157.862 125.917V125.957C157.772 127.397 157.482 129.047 157.062 130.337C156.952 130.667 156.642 130.827 156.312 130.827C156.202 130.827 156.092 130.807 156.002 130.787C155.622 130.677 155.352 130.427 155.352 130.077C155.352 130.007 155.372 129.917 155.392 129.837C155.832 128.657 156.082 127.087 156.192 125.867C156.232 125.447 156.522 125.247 156.942 125.247H157.092C157.562 125.297 157.872 125.497 157.872 125.897L157.862 125.917ZM158.592 124.387C157.752 124.437 156.952 124.497 156.222 124.517H156.182C155.732 124.517 155.472 124.187 155.452 123.627V123.577C155.452 123.087 155.722 122.757 156.122 122.757H157.072C157.122 122.707 157.182 122.627 157.232 122.577L158.102 121.427C157.372 120.517 156.552 119.587 155.832 118.917C155.672 118.737 155.592 118.517 155.592 118.297C155.592 118.077 155.662 117.857 155.832 117.677C156.052 117.437 156.282 117.327 156.502 117.327C156.652 117.327 156.772 117.377 156.882 117.487C156.972 117.577 157.062 117.647 157.152 117.737C157.662 116.977 158.172 116.047 158.512 115.277C158.662 115.007 158.892 114.857 159.172 114.857C159.322 114.857 159.482 114.897 159.642 114.987C160.002 115.137 160.222 115.407 160.222 115.717C160.222 115.827 160.182 115.957 160.132 116.067C159.692 116.957 159.072 118.017 158.352 118.997C158.622 119.307 158.882 119.637 159.132 119.947C159.772 119.017 160.352 118.107 160.842 117.257C160.992 117.007 161.262 116.857 161.532 116.857C161.692 116.857 161.862 116.897 162.002 116.987C162.292 117.147 162.492 117.437 162.492 117.737C162.492 117.847 162.452 117.977 162.402 118.087C161.492 119.557 160.252 121.307 159.072 122.687C159.822 122.647 160.542 122.597 161.292 122.507C161.142 122.127 160.982 121.777 160.842 121.447C160.802 121.377 160.792 121.297 160.792 121.227C160.792 120.977 160.972 120.717 161.262 120.607C161.392 120.567 161.502 120.557 161.612 120.557C161.862 120.557 162.082 120.687 162.212 120.957C162.652 121.847 163.172 123.047 163.472 123.997C163.492 124.067 163.512 124.147 163.512 124.217C163.512 124.507 163.292 124.747 162.932 124.867C162.802 124.917 162.692 124.937 162.582 124.937C162.312 124.937 162.072 124.787 162.002 124.517C161.962 124.367 161.912 124.187 161.852 124.027C161.402 124.097 160.922 124.157 160.472 124.207V131.357C160.472 131.757 160.072 131.997 159.512 131.997C158.982 131.997 158.582 131.757 158.582 131.357V124.387H158.592ZM162.012 125.207C162.342 125.207 162.612 125.367 162.722 125.697C163.032 126.737 163.362 128.227 163.502 129.337V129.427C163.502 129.807 163.192 130.097 162.752 130.177C162.662 130.197 162.592 130.197 162.502 130.197C162.142 130.197 161.862 130.017 161.812 129.637C161.682 128.567 161.462 127.087 161.152 126.057C161.132 126.007 161.132 125.947 161.132 125.897C161.132 125.607 161.372 125.347 161.732 125.257C161.842 125.237 161.932 125.217 162.002 125.217L162.012 125.207ZM165.682 119.337C165.322 120.087 164.902 120.797 164.422 121.407C164.262 121.627 163.982 121.757 163.712 121.757C163.492 121.757 163.272 121.687 163.092 121.507C162.872 121.267 162.742 120.977 162.742 120.707C162.742 120.487 162.792 120.287 162.942 120.127C163.852 118.947 164.582 117.327 165.112 115.507C165.242 115.107 165.532 114.927 165.952 114.927C166.042 114.927 166.152 114.947 166.262 114.967C166.732 115.057 167.012 115.327 167.012 115.727C167.012 115.817 166.992 115.927 166.962 116.037C166.832 116.527 166.672 117.037 166.472 117.527H170.092C171.422 117.527 172.072 118.107 172.072 119.507C172.072 123.857 171.762 127.277 171.272 129.437C170.912 131.057 170.092 131.637 168.362 131.637C167.502 131.637 166.852 131.587 166.342 131.457C165.962 131.387 165.702 131.007 165.702 130.527C165.702 130.457 165.702 130.377 165.722 130.307C165.812 129.797 166.162 129.507 166.542 129.507C166.612 129.507 166.672 129.507 166.742 129.527C167.162 129.637 167.602 129.687 168.162 129.687C168.892 129.687 169.202 129.537 169.362 128.737C169.802 126.917 170.072 123.387 170.072 119.967C170.072 119.457 169.922 119.327 169.452 119.327H165.682V119.337ZM165.652 121.677C165.962 121.677 166.252 121.827 166.412 122.097C167.062 123.097 167.762 124.477 168.172 125.577C168.212 125.707 168.222 125.817 168.222 125.927C168.222 126.287 168.022 126.597 167.622 126.797C167.442 126.867 167.262 126.907 167.112 126.907C166.732 126.907 166.402 126.707 166.272 126.327C165.912 125.257 165.292 123.947 164.712 122.977C164.622 122.817 164.582 122.667 164.582 122.537C164.582 122.227 164.782 121.977 165.112 121.807C165.292 121.717 165.472 121.677 165.642 121.677H165.652Z" fill="#3B3978"/>
</g>
<defs>
<clipPath id="clip0_351_1478">
<rect width="110.31" height="126.41" fill="white" transform="translate(80.5117 64.2566)"/>
</clipPath>
</defs>
</svg>
