<svg width="270" height="191" viewBox="0 0 270 191" fill="none" xmlns="http://www.w3.org/2000/svg">
<g clip-path="url(#clip0_351_1490)">
<path d="M169.295 133.257H100.705C99.775 133.257 99.025 132.507 99.025 131.577V65.9366C99.025 65.0066 99.775 64.2566 100.705 64.2566H169.305C170.235 64.2566 170.985 65.0066 170.985 65.9366V131.577C170.985 132.507 170.235 133.257 169.305 133.257H169.295ZM102.385 129.897H167.625V67.6166H102.385V129.897Z" fill="#3B3978"/>
<path d="M143.665 91.3566H126.345C125.415 91.3566 124.665 90.6066 124.665 89.6766V65.9366C124.655 65.0066 125.405 64.2566 126.335 64.2566C127.265 64.2566 128.015 65.0066 128.015 65.9366V87.9966H141.985V65.9366C141.985 65.0066 142.735 64.2566 143.665 64.2566C144.595 64.2566 145.345 65.0066 145.345 65.9366V89.6766C145.345 90.6066 144.595 91.3566 143.665 91.3566Z" fill="#3B3978"/>
<path d="M156.585 113.447H148.015C147.085 113.447 146.335 112.697 146.335 111.767C146.335 110.837 147.085 110.087 148.015 110.087H156.585C157.515 110.087 158.265 110.837 158.265 111.767C158.265 112.697 157.515 113.447 156.585 113.447Z" fill="#3B3978"/>
<path d="M156.585 120.987H148.015C147.085 120.987 146.335 120.237 146.335 119.307C146.335 118.377 147.085 117.627 148.015 117.627H156.585C157.515 117.627 158.265 118.377 158.265 119.307C158.265 120.237 157.515 120.987 156.585 120.987Z" fill="#3B3978"/>
<path d="M148.545 178.297C147.695 178.297 146.965 177.647 146.875 176.787C146.225 170.287 145.575 149.017 164.335 146.037L169.475 140.897C172.715 137.657 177.435 136.527 181.775 137.957C183.565 138.547 185.205 139.557 186.545 140.887C187.205 141.547 187.205 142.607 186.545 143.267L170.665 159.147C170.005 159.807 168.945 159.807 168.285 159.147C167.625 158.487 167.625 157.427 168.285 156.767L182.855 142.197C182.195 141.757 181.475 141.397 180.725 141.157C177.585 140.127 174.185 140.947 171.845 143.287L166.315 148.817C166.055 149.077 165.715 149.247 165.355 149.297C158.435 150.247 153.785 154.227 151.525 161.137C149.635 166.937 149.895 173.227 150.215 176.467C150.305 177.387 149.635 178.217 148.715 178.307C148.655 178.307 148.605 178.307 148.545 178.307V178.297Z" fill="#3B3978"/>
<path d="M168.355 177.987C167.925 177.987 167.495 177.827 167.165 177.497C166.505 176.837 166.505 175.777 167.165 175.117L190.975 151.307C192.755 149.527 193.695 147.047 193.565 144.517L191.665 109.637C191.645 109.207 191.355 109.027 191.185 108.967C191.045 108.917 190.695 108.827 190.375 109.137L185.785 113.727C185.665 113.847 185.585 114.017 185.565 114.207L182.915 139.727C182.815 140.647 181.995 141.317 181.075 141.227C180.155 141.127 179.485 140.306 179.575 139.387L182.225 113.847C182.335 112.897 182.755 112.017 183.415 111.367L188.005 106.777C189.175 105.607 190.855 105.257 192.395 105.847C193.935 106.437 194.945 107.827 195.025 109.477L196.925 144.357C197.105 147.847 195.805 151.247 193.355 153.707L169.545 177.517C169.215 177.847 168.785 178.007 168.355 178.007V177.987Z" fill="#3B3978"/>
<path d="M142.065 190.667C142.065 190.667 142.025 190.667 141.995 190.667C141.065 190.627 140.345 189.847 140.385 188.917L140.865 176.647C140.905 175.757 141.625 175.047 142.515 175.037L176.795 174.497C177.725 174.497 178.475 175.217 178.505 176.137L178.775 187.837C178.795 188.767 178.065 189.537 177.135 189.557C176.225 189.607 175.435 188.847 175.415 187.917L175.185 177.887L144.165 178.377L143.745 189.057C143.705 189.957 142.965 190.667 142.065 190.667Z" fill="#3B3978"/>
<path d="M121.455 178.297C121.395 178.297 121.345 178.297 121.285 178.297C120.365 178.207 119.685 177.377 119.785 176.457C120.105 173.227 120.375 166.927 118.475 161.127C116.215 154.217 111.565 150.227 104.645 149.287C104.285 149.237 103.945 149.067 103.685 148.807L98.155 143.277C95.815 140.937 92.415 140.127 89.275 141.147C88.525 141.397 87.805 141.747 87.145 142.187L101.715 156.757C102.375 157.417 102.375 158.477 101.715 159.137C101.055 159.797 99.995 159.797 99.335 159.137L83.455 143.257C82.795 142.597 82.795 141.537 83.455 140.877C84.785 139.547 86.435 138.527 88.225 137.947C92.575 136.527 97.285 137.647 100.525 140.887L105.665 146.027C124.415 149.007 123.775 170.277 123.125 176.777C123.035 177.647 122.305 178.287 121.455 178.287V178.297Z" fill="#3B3978"/>
<path d="M101.645 177.986C101.215 177.986 100.785 177.826 100.455 177.496L76.645 153.686C74.195 151.236 72.895 147.826 73.075 144.346L74.975 109.456C75.055 107.816 76.065 106.426 77.605 105.826C79.145 105.236 80.825 105.586 81.995 106.756L86.585 111.346C87.245 112.006 87.665 112.876 87.765 113.816L90.425 139.376C90.525 140.296 89.855 141.126 88.925 141.216C88.005 141.306 87.175 140.646 87.085 139.716L84.435 114.176C84.415 114.006 84.335 113.846 84.215 113.716L79.625 109.126C79.315 108.816 78.955 108.906 78.815 108.956C78.645 109.026 78.355 109.196 78.335 109.626L76.435 144.516C76.305 147.046 77.245 149.526 79.025 151.306L102.835 175.116C103.495 175.776 103.495 176.836 102.835 177.496C102.505 177.826 102.075 177.986 101.645 177.986Z" fill="#3B3978"/>
<path d="M127.935 190.667C127.035 190.667 126.295 189.957 126.255 189.057L125.835 178.377L94.8149 177.887L94.585 187.917C94.565 188.847 93.7849 189.587 92.8649 189.557C91.9349 189.537 91.2049 188.767 91.2249 187.837L91.495 176.137C91.515 175.217 92.2449 174.487 93.2049 174.497L127.485 175.037C128.375 175.047 129.105 175.757 129.135 176.647L129.615 188.917C129.655 189.847 128.925 190.627 128.005 190.667C127.985 190.667 127.955 190.667 127.935 190.667Z" fill="#3B3978"/>
</g>
<defs>
<clipPath id="clip0_351_1490">
<rect width="123.89" height="126.41" fill="white" transform="translate(73.055 64.2566)"/>
</clipPath>
</defs>
</svg>
