<svg width="94" height="77" viewBox="0 0 94 77" fill="none" xmlns="http://www.w3.org/2000/svg">
<g clip-path="url(#clip0_602_975)">
<path d="M61.3839 4.79798C62.6564 4.79798 63.8767 5.30348 64.7765 6.20328C65.6763 7.10307 66.1818 8.32346 66.1818 9.59596V67.1717C66.1818 68.4442 65.6763 69.6646 64.7765 70.5644C63.8767 71.4642 62.6564 71.9697 61.3839 71.9697H32.596C31.3235 71.9697 30.1031 71.4642 29.2033 70.5644C28.3035 69.6646 27.798 68.4442 27.798 67.1717V9.59596C27.798 8.32346 28.3035 7.10307 29.2033 6.20328C30.1031 5.30348 31.3235 4.79798 32.596 4.79798H61.3839ZM32.596 0C30.051 0 27.6102 1.011 25.8106 2.81059C24.011 4.61018 23 7.05096 23 9.59596V67.1717C23 69.7168 24.011 72.1575 25.8106 73.9571C27.6102 75.7567 30.051 76.7677 32.596 76.7677H61.3839C63.9289 76.7677 66.3696 75.7567 68.1692 73.9571C69.9688 72.1575 70.9798 69.7168 70.9798 67.1717V9.59596C70.9798 7.05096 69.9688 4.61018 68.1692 2.81059C66.3696 1.011 63.9289 0 61.3839 0L32.596 0Z" fill="#3B3978"/>
<path d="M46.9899 67.1716C48.2624 67.1716 49.4828 66.6661 50.3826 65.7663C51.2824 64.8666 51.7879 63.6462 51.7879 62.3737C51.7879 61.1012 51.2824 59.8808 50.3826 58.981C49.4828 58.0812 48.2624 57.5757 46.9899 57.5757C45.7174 57.5757 44.497 58.0812 43.5972 58.981C42.6974 59.8808 42.1919 61.1012 42.1919 62.3737C42.1919 63.6462 42.6974 64.8666 43.5972 65.7663C44.497 66.6661 45.7174 67.1716 46.9899 67.1716Z" fill="#3B3978"/>
</g>
<defs>
<clipPath id="clip0_602_975">
<rect width="76.7677" height="76.7677" fill="white" transform="translate(8)"/>
</clipPath>
</defs>
</svg>
