<svg width="95" height="95" viewBox="0 0 95 95" fill="none" xmlns="http://www.w3.org/2000/svg">
<path d="M47.9522 45.1914C45.1277 45.1914 43.2447 47.0744 43.2447 49.8989C43.2447 51.7819 44.657 53.1941 46.0692 53.6649L44.657 60.2553H50.7767L49.3644 53.6649C51.2474 53.1941 52.1889 51.7819 52.1889 49.8989C52.6596 47.0744 50.7767 45.1914 47.9522 45.1914ZM48.4229 24.9494C45.1277 24.9494 41.8325 27.3031 41.8325 30.5983V37.6595H54.5426V30.5983C54.0719 27.3031 51.7181 24.9494 48.4229 24.9494ZM47.9522 9.41479L15 23.5372V37.6595C15.4707 58.3723 28.6516 76.7314 47.9522 84.2633C67.2527 76.7314 80.4336 58.3723 80.9044 37.6595V23.5372L47.9522 9.41479ZM66.782 61.1968C66.782 64.0213 64.899 65.9042 62.0745 65.9042H33.8298C31.0053 65.9042 29.1224 64.0213 29.1224 61.1968V42.367C29.1224 39.5425 31.0053 37.6595 33.8298 37.6595H35.2421V30.5983C35.7128 24.0079 41.3617 18.8297 47.9522 18.8297C54.5426 18.8297 60.1916 24.0079 60.6623 30.5983V37.6595H62.0745C64.899 37.6595 66.782 39.5425 66.782 42.367V61.1968Z" fill="#3B3978"/>
</svg>
