<svg width="94" height="75" viewBox="0 0 94 75" fill="none" xmlns="http://www.w3.org/2000/svg">
<g clip-path="url(#clip0_602_969)">
<path d="M34.4991 24.9251L34.9337 24.8882C35.0912 24.8716 35.2418 24.8154 35.3713 24.725L35.3682 24.7281C35.7841 26.1501 36.2931 27.646 36.9294 29.2127C37.7457 31.2626 38.5496 32.9462 39.4497 34.5714L39.3256 34.3251C39.2511 35.4455 39.1611 36.5967 39.0431 37.7109C38.9903 38.3681 38.8559 39.0163 38.6427 39.6408L38.6583 39.5854C38.621 39.6008 38.5682 45.9875 38.5682 45.9875C38.5705 47.9689 39.2444 49.8921 40.4817 51.4479C41.719 53.0037 43.4479 54.1018 45.3904 54.5657L45.4525 54.5781C45.5373 54.3549 45.6889 54.1627 45.887 54.0274C46.085 53.8921 46.3201 53.82 46.5606 53.8209H48.3422C48.5801 53.8241 48.8118 53.8967 49.0083 54.0297C49.2048 54.1627 49.3575 54.3503 49.4471 54.5688L49.4502 54.5781C51.409 54.1274 53.1573 53.0349 54.4127 51.4772C55.668 49.9196 56.3571 47.9877 56.3686 45.9937C56.3686 45.9937 56.26 39.6315 56.2041 39.5884C56.0162 38.9943 55.8893 38.3827 55.8255 37.7632L55.8224 37.717C55.7137 36.5967 55.6423 35.4732 55.5399 34.3313C56.3066 32.9585 57.1104 31.278 57.8181 29.5451L57.9361 29.2188C58.5723 27.6522 59.0658 26.1593 59.4973 24.7343C59.625 24.8237 59.7734 24.8798 59.9287 24.8974H59.9318L60.3694 24.9343C60.8971 24.9897 61.3627 24.5588 61.4061 23.8909L61.8779 17.9474V17.9412C61.8776 17.702 61.7896 17.4711 61.6303 17.2916C61.4709 17.1121 61.2511 16.9962 61.0119 16.9655H60.953C61.3704 13.8707 61.1143 10.7231 60.2018 7.73473L60.2422 7.89171C59.3667 5.96405 58.0353 4.27427 56.3608 2.96576C54.6863 1.65726 52.7182 0.768654 50.6235 0.375353L50.5428 0.363041C49.5269 0.163343 48.4959 0.0480328 47.4607 0.0183105H47.3955C46.3124 0.0377315 45.2336 0.159346 44.1737 0.381509L44.2855 0.363041C42.1924 0.749608 40.2229 1.62715 38.5415 2.9224C36.8601 4.21765 35.5156 5.89302 34.6202 7.8086L34.5861 7.89171C33.6927 10.8694 33.4546 14.0026 33.8877 17.0794L33.8753 16.9655C33.6354 16.9912 33.4136 17.1037 33.2521 17.2815C33.0906 17.4592 33.0009 17.6897 33 17.9289V17.9504L33.4718 23.894C33.5152 24.5773 33.987 24.9897 34.496 24.9343L34.4991 24.9251Z" fill="#3B3978"/>
<path d="M80.4739 64.2613C80.2566 54.9044 79.313 52.7867 78.804 51.3524C78.6023 50.7768 78.4378 46.8863 71.957 44.3624C67.9841 42.8111 62.8566 42.7803 58.5175 40.9613V46.0214C58.5142 48.6158 57.6005 51.1283 55.9332 53.1276C54.2659 55.127 51.9489 56.4886 49.3798 56.9789L49.3085 56.9912C49.2619 57.2642 49.1203 57.5124 48.9081 57.6924C48.696 57.8724 48.4268 57.9728 48.1476 57.9762H48.0918V61.7928C48.0918 63.5838 48.8092 65.3015 50.0863 66.5679C51.3634 67.8344 53.0955 68.5459 54.9015 68.5459C56.7076 68.5459 58.4397 67.8344 59.7168 66.5679C60.9938 65.3015 61.7113 63.5838 61.7113 61.7928V59.1273C60.7739 58.991 59.9194 58.5187 59.3094 57.7999C58.6995 57.081 58.3763 56.1654 58.4011 55.2262C58.4259 54.287 58.7969 53.3894 59.444 52.7031C60.091 52.0169 60.9693 51.5896 61.9126 51.5021C62.8559 51.4146 63.7988 51.673 64.563 52.2283C65.3271 52.7836 65.8596 53.5975 66.0596 54.5158C66.2596 55.4341 66.1133 56.3933 65.6483 57.2119C65.1833 58.0305 64.432 58.6517 63.5363 58.958L63.5084 58.9673V61.9375C63.5084 64.202 62.6013 66.3737 60.9866 67.9749C59.3719 69.5762 57.1819 70.4757 54.8984 70.4757C52.6149 70.4757 50.4249 69.5762 48.8103 67.9749C47.1956 66.3737 46.2884 64.202 46.2884 61.9375V61.7836V61.7898V57.9392C46.0225 57.9218 45.7703 57.8156 45.573 57.6378C45.3758 57.4601 45.245 57.2213 45.2021 56.9604V56.9543C42.6307 56.468 40.3099 55.1101 38.6372 53.1133C36.9645 51.1165 36.044 48.605 36.0334 46.0091V40.9089C31.6757 42.7649 26.5171 42.8019 22.5225 44.3562C16.0231 46.8771 15.8742 50.7584 15.6755 51.3432C15.1789 52.7837 14.2229 54.8921 14.0057 64.2552C13.9684 65.4864 14.0057 67.3732 17.7489 69.0229C25.8995 72.1932 36.3997 73.1782 46.7509 73.8861H47.7441C58.1171 73.1843 68.6018 72.2025 76.7462 69.0229C80.4739 67.3824 80.508 65.5048 80.4739 64.2613ZM34.9068 60.4447H31.0394V64.2952H28.277V60.457H24.4096V57.7176H28.277V53.8825H31.0394V57.7176H34.9068V60.4447Z" fill="#3B3978"/>
<path d="M49.1777 55.2952C49.1773 54.7459 48.957 54.2162 48.5651 53.8281C48.1732 53.4399 47.642 53.222 47.0881 53.2222C46.5342 53.2224 46.0031 53.4407 45.6115 53.8292C45.22 54.2176 45 54.7444 45 55.2936C45 55.8429 45.22 56.3696 45.6115 56.7581C46.0031 57.1466 46.5342 57.3649 47.0881 57.3651C47.642 57.3653 48.1732 57.1473 48.5651 56.7592C48.957 56.371 49.1773 55.8444 49.1777 55.2952Z" fill="#3B3978"/>
</g>
<defs>
<clipPath id="clip0_602_969">
<rect width="64.9086" height="74.1812" fill="white" transform="translate(14)"/>
</clipPath>
</defs>
</svg>
