<svg width="94" height="78" viewBox="0 0 94 78" fill="none" xmlns="http://www.w3.org/2000/svg">
<path fill-rule="evenodd" clip-rule="evenodd" d="M24.3973 6.39722C22.7006 6.39722 21.0735 7.07122 19.8737 8.27095C18.674 9.47067 18 11.0979 18 12.7945V66.8518C18 67.3138 18.091 67.7714 18.2678 68.1983C18.4447 68.6252 18.7038 69.013 19.0306 69.3398C19.3573 69.6665 19.7452 69.9257 20.172 70.1025C20.5989 70.2793 21.0565 70.3703 21.5185 70.3703H72.0573C72.5193 70.3703 72.9769 70.2793 73.4037 70.1025C73.8306 69.9257 74.2185 69.6665 74.5452 69.3398C74.872 69.013 75.1311 68.6252 75.3079 68.1983C75.4848 67.7714 75.5758 67.3138 75.5758 66.8518V35.1851C75.5758 33.4884 74.9018 31.8613 73.702 30.6615C72.5023 29.4618 70.8751 28.7878 69.1785 28.7878H67.5791C67.155 28.7878 66.7482 28.9563 66.4482 29.2562C66.1483 29.5562 65.9798 29.963 65.9798 30.3871V63.973H62.7812V12.7945C62.7812 11.0979 62.1072 9.47067 60.9074 8.27095C59.7077 7.07122 58.0805 6.39722 56.3839 6.39722H24.3973ZM40.3906 15.9932C39.5422 15.9932 38.7287 16.3302 38.1288 16.93C37.5289 17.5299 37.1919 18.3435 37.1919 19.1918V22.3905H33.9933C33.1449 22.3905 32.3313 22.7275 31.7315 23.3274C31.1316 23.9272 30.7946 24.7408 30.7946 25.5891C30.7946 26.4375 31.1316 27.2511 31.7315 27.8509C32.3313 28.4508 33.1449 28.7878 33.9933 28.7878H37.1919V31.9865C37.1919 32.8348 37.5289 33.6484 38.1288 34.2482C38.7287 34.8481 39.5422 35.1851 40.3906 35.1851C41.2389 35.1851 42.0525 34.8481 42.6524 34.2482C43.2522 33.6484 43.5892 32.8348 43.5892 31.9865V28.7878H46.7879C47.6362 28.7878 48.4498 28.4508 49.0497 27.8509C49.6495 27.2511 49.9865 26.4375 49.9865 25.5891C49.9865 24.7408 49.6495 23.9272 49.0497 23.3274C48.4498 22.7275 47.6362 22.3905 46.7879 22.3905H43.5892V19.1918C43.5892 18.3435 43.2522 17.5299 42.6524 16.93C42.0525 16.3302 41.2389 15.9932 40.3906 15.9932ZM40.3906 44.7811C38.6939 44.7811 37.0667 45.4551 35.867 46.6548C34.6673 47.8545 33.9933 49.4817 33.9933 51.1784V63.973H46.7879V51.1784C46.7879 49.4817 46.1139 47.8545 44.9142 46.6548C43.7144 45.4551 42.0873 44.7811 40.3906 44.7811Z" fill="#3B3978"/>
</svg>
